<?xml version="1.0" encoding="UTF-8" standalone="no"?><svg xmlns="http://www.w3.org/2000/svg" xmlns:xlink="http://www.w3.org/1999/xlink" contentStyleType="text/css" height="747px" preserveAspectRatio="none" style="width:1520px;height:747px;background:#FFFFFF;" version="1.1" viewBox="0 0 1520 747" width="1520px" zoomAndPan="magnify"><defs/><g><rect fill="none" height="26.2969" id="_title" style="stroke:none;stroke-width:1.0;" width="216" x="645.25" y="5"/><text fill="#000000" font-family="sans-serif" font-size="14" font-weight="bold" lengthAdjust="spacing" textLength="206" x="650.25" y="22.9951">Your Race - Domain Model</text><!--MD5=[27e1e7f9c4820a0277e6c5de2c4c6668]
class YourRace--><g id="elem_YourRace"><rect codeLine="3" fill="#F1F1F1" height="48" id="YourRace" rx="2.5" ry="2.5" style="stroke:#181818;stroke-width:0.5;" width="99" x="612" y="44.2969"/><ellipse cx="627" cy="60.2969" fill="#ADD1B2" rx="11" ry="11" style="stroke:#181818;stroke-width:1.0;"/><path d="M629.9688,65.9375 Q629.3906,66.2344 628.75,66.375 Q628.1094,66.5313 627.4063,66.5313 Q624.9063,66.5313 623.5781,64.8906 Q622.2656,63.2344 622.2656,60.1094 Q622.2656,56.9844 623.5781,55.3281 Q624.9063,53.6719 627.4063,53.6719 Q628.1094,53.6719 628.75,53.8281 Q629.4063,53.9844 629.9688,54.2813 L629.9688,57 Q629.3438,56.4219 628.75,56.1563 Q628.1563,55.875 627.5313,55.875 Q626.1875,55.875 625.5,56.9531 Q624.8125,58.0156 624.8125,60.1094 Q624.8125,62.2031 625.5,63.2813 Q626.1875,64.3438 627.5313,64.3438 Q628.1563,64.3438 628.75,64.0781 Q629.3438,63.7969 629.9688,63.2188 L629.9688,65.9375 Z " fill="#000000"/><text fill="#000000" font-family="sans-serif" font-size="14" lengthAdjust="spacing" textLength="67" x="641" y="65.1436">YourRace</text><line style="stroke:#181818;stroke-width:0.5;" x1="613" x2="710" y1="76.2969" y2="76.2969"/><line style="stroke:#181818;stroke-width:0.5;" x1="613" x2="710" y1="84.2969" y2="84.2969"/></g><!--MD5=[069cecb0f107147f35d50ee2cc41a241]
class Athlete--><g id="elem_Athlete"><rect codeLine="4" fill="#F1F1F1" height="48" id="Athlete" rx="2.5" ry="2.5" style="stroke:#181818;stroke-width:0.5;" width="81" x="1020" y="152.2969"/><ellipse cx="1035" cy="168.2969" fill="#ADD1B2" rx="11" ry="11" style="stroke:#181818;stroke-width:1.0;"/><path d="M1037.9688,173.9375 Q1037.3906,174.2344 1036.75,174.375 Q1036.1094,174.5313 1035.4063,174.5313 Q1032.9063,174.5313 1031.5781,172.8906 Q1030.2656,171.2344 1030.2656,168.1094 Q1030.2656,164.9844 1031.5781,163.3281 Q1032.9063,161.6719 1035.4063,161.6719 Q1036.1094,161.6719 1036.75,161.8281 Q1037.4063,161.9844 1037.9688,162.2813 L1037.9688,165 Q1037.3438,164.4219 1036.75,164.1563 Q1036.1563,163.875 1035.5313,163.875 Q1034.1875,163.875 1033.5,164.9531 Q1032.8125,166.0156 1032.8125,168.1094 Q1032.8125,170.2031 1033.5,171.2813 Q1034.1875,172.3438 1035.5313,172.3438 Q1036.1563,172.3438 1036.75,172.0781 Q1037.3438,171.7969 1037.9688,171.2188 L1037.9688,173.9375 Z " fill="#000000"/><text fill="#000000" font-family="sans-serif" font-size="14" lengthAdjust="spacing" textLength="49" x="1049" y="173.1436">Athlete</text><line style="stroke:#181818;stroke-width:0.5;" x1="1021" x2="1100" y1="184.2969" y2="184.2969"/><line style="stroke:#181818;stroke-width:0.5;" x1="1021" x2="1100" y1="192.2969" y2="192.2969"/></g><!--MD5=[c943b7297f25d0ee4f831707c42d3ae4]
class Organizer--><g id="elem_Organizer"><rect codeLine="5" fill="#F1F1F1" height="48" id="Organizer" rx="2.5" ry="2.5" style="stroke:#181818;stroke-width:0.5;" width="99" x="214" y="152.2969"/><ellipse cx="229" cy="168.2969" fill="#ADD1B2" rx="11" ry="11" style="stroke:#181818;stroke-width:1.0;"/><path d="M231.9688,173.9375 Q231.3906,174.2344 230.75,174.375 Q230.1094,174.5313 229.4063,174.5313 Q226.9063,174.5313 225.5781,172.8906 Q224.2656,171.2344 224.2656,168.1094 Q224.2656,164.9844 225.5781,163.3281 Q226.9063,161.6719 229.4063,161.6719 Q230.1094,161.6719 230.75,161.8281 Q231.4063,161.9844 231.9688,162.2813 L231.9688,165 Q231.3438,164.4219 230.75,164.1563 Q230.1563,163.875 229.5313,163.875 Q228.1875,163.875 227.5,164.9531 Q226.8125,166.0156 226.8125,168.1094 Q226.8125,170.2031 227.5,171.2813 Q228.1875,172.3438 229.5313,172.3438 Q230.1563,172.3438 230.75,172.0781 Q231.3438,171.7969 231.9688,171.2188 L231.9688,173.9375 Z " fill="#000000"/><text fill="#000000" font-family="sans-serif" font-size="14" lengthAdjust="spacing" textLength="67" x="243" y="173.1436">Organizer</text><line style="stroke:#181818;stroke-width:0.5;" x1="215" x2="312" y1="184.2969" y2="184.2969"/><line style="stroke:#181818;stroke-width:0.5;" x1="215" x2="312" y1="192.2969" y2="192.2969"/></g><!--MD5=[02529dc4f79219f8425437af1389750d]
class Race--><g id="elem_Race"><rect codeLine="6" fill="#F1F1F1" height="48" id="Race" rx="2.5" ry="2.5" style="stroke:#181818;stroke-width:0.5;" width="67" x="979" y="368.2969"/><ellipse cx="994" cy="384.2969" fill="#ADD1B2" rx="11" ry="11" style="stroke:#181818;stroke-width:1.0;"/><path d="M996.9688,389.9375 Q996.3906,390.2344 995.75,390.375 Q995.1094,390.5313 994.4063,390.5313 Q991.9063,390.5313 990.5781,388.8906 Q989.2656,387.2344 989.2656,384.1094 Q989.2656,380.9844 990.5781,379.3281 Q991.9063,377.6719 994.4063,377.6719 Q995.1094,377.6719 995.75,377.8281 Q996.4063,377.9844 996.9688,378.2813 L996.9688,381 Q996.3438,380.4219 995.75,380.1563 Q995.1563,379.875 994.5313,379.875 Q993.1875,379.875 992.5,380.9531 Q991.8125,382.0156 991.8125,384.1094 Q991.8125,386.2031 992.5,387.2813 Q993.1875,388.3438 994.5313,388.3438 Q995.1563,388.3438 995.75,388.0781 Q996.3438,387.7969 996.9688,387.2188 L996.9688,389.9375 Z " fill="#000000"/><text fill="#000000" font-family="sans-serif" font-size="14" lengthAdjust="spacing" textLength="35" x="1008" y="389.1436">Race</text><line style="stroke:#181818;stroke-width:0.5;" x1="980" x2="1045" y1="400.2969" y2="400.2969"/><line style="stroke:#181818;stroke-width:0.5;" x1="980" x2="1045" y1="408.2969" y2="408.2969"/></g><!--MD5=[3b034ebaa87c9ec5e8fb5410143f628f]
class Track--><g id="elem_Track"><rect codeLine="7" fill="#F1F1F1" height="48" id="Track" rx="2.5" ry="2.5" style="stroke:#181818;stroke-width:0.5;" width="70" x="691.5" y="152.2969"/><ellipse cx="706.5" cy="168.2969" fill="#ADD1B2" rx="11" ry="11" style="stroke:#181818;stroke-width:1.0;"/><path d="M709.4688,173.9375 Q708.8906,174.2344 708.25,174.375 Q707.6094,174.5313 706.9063,174.5313 Q704.4063,174.5313 703.0781,172.8906 Q701.7656,171.2344 701.7656,168.1094 Q701.7656,164.9844 703.0781,163.3281 Q704.4063,161.6719 706.9063,161.6719 Q707.6094,161.6719 708.25,161.8281 Q708.9063,161.9844 709.4688,162.2813 L709.4688,165 Q708.8438,164.4219 708.25,164.1563 Q707.6563,163.875 707.0313,163.875 Q705.6875,163.875 705,164.9531 Q704.3125,166.0156 704.3125,168.1094 Q704.3125,170.2031 705,171.2813 Q705.6875,172.3438 707.0313,172.3438 Q707.6563,172.3438 708.25,172.0781 Q708.8438,171.7969 709.4688,171.2188 L709.4688,173.9375 Z " fill="#000000"/><text fill="#000000" font-family="sans-serif" font-size="14" lengthAdjust="spacing" textLength="38" x="720.5" y="173.1436">Track</text><line style="stroke:#181818;stroke-width:0.5;" x1="692.5" x2="760.5" y1="184.2969" y2="184.2969"/><line style="stroke:#181818;stroke-width:0.5;" x1="692.5" x2="760.5" y1="192.2969" y2="192.2969"/></g><!--MD5=[cc15daeb8b4e6bacf34831777829d2c1]
class Distance--><g id="elem_Distance"><rect codeLine="8" fill="#F1F1F1" height="48" id="Distance" rx="2.5" ry="2.5" style="stroke:#181818;stroke-width:0.5;" width="93" x="583" y="476.2969"/><ellipse cx="598" cy="492.2969" fill="#ADD1B2" rx="11" ry="11" style="stroke:#181818;stroke-width:1.0;"/><path d="M600.9688,497.9375 Q600.3906,498.2344 599.75,498.375 Q599.1094,498.5313 598.4063,498.5313 Q595.9063,498.5313 594.5781,496.8906 Q593.2656,495.2344 593.2656,492.1094 Q593.2656,488.9844 594.5781,487.3281 Q595.9063,485.6719 598.4063,485.6719 Q599.1094,485.6719 599.75,485.8281 Q600.4063,485.9844 600.9688,486.2813 L600.9688,489 Q600.3438,488.4219 599.75,488.1563 Q599.1563,487.875 598.5313,487.875 Q597.1875,487.875 596.5,488.9531 Q595.8125,490.0156 595.8125,492.1094 Q595.8125,494.2031 596.5,495.2813 Q597.1875,496.3438 598.5313,496.3438 Q599.1563,496.3438 599.75,496.0781 Q600.3438,495.7969 600.9688,495.2188 L600.9688,497.9375 Z " fill="#000000"/><text fill="#000000" font-family="sans-serif" font-size="14" lengthAdjust="spacing" textLength="61" x="612" y="497.1436">Distance</text><line style="stroke:#181818;stroke-width:0.5;" x1="584" x2="675" y1="508.2969" y2="508.2969"/><line style="stroke:#181818;stroke-width:0.5;" x1="584" x2="675" y1="516.2969" y2="516.2969"/></g><!--MD5=[7829b64950ce38e0487c4015ea331f97]
class Date--><g id="elem_Date"><rect codeLine="9" fill="#F1F1F1" height="48" id="Date" rx="2.5" ry="2.5" style="stroke:#181818;stroke-width:0.5;" width="65" x="711" y="476.2969"/><ellipse cx="726" cy="492.2969" fill="#ADD1B2" rx="11" ry="11" style="stroke:#181818;stroke-width:1.0;"/><path d="M728.9688,497.9375 Q728.3906,498.2344 727.75,498.375 Q727.1094,498.5313 726.4063,498.5313 Q723.9063,498.5313 722.5781,496.8906 Q721.2656,495.2344 721.2656,492.1094 Q721.2656,488.9844 722.5781,487.3281 Q723.9063,485.6719 726.4063,485.6719 Q727.1094,485.6719 727.75,485.8281 Q728.4063,485.9844 728.9688,486.2813 L728.9688,489 Q728.3438,488.4219 727.75,488.1563 Q727.1563,487.875 726.5313,487.875 Q725.1875,487.875 724.5,488.9531 Q723.8125,490.0156 723.8125,492.1094 Q723.8125,494.2031 724.5,495.2813 Q725.1875,496.3438 726.5313,496.3438 Q727.1563,496.3438 727.75,496.0781 Q728.3438,495.7969 728.9688,495.2188 L728.9688,497.9375 Z " fill="#000000"/><text fill="#000000" font-family="sans-serif" font-size="14" lengthAdjust="spacing" textLength="33" x="740" y="497.1436">Date</text><line style="stroke:#181818;stroke-width:0.5;" x1="712" x2="775" y1="508.2969" y2="508.2969"/><line style="stroke:#181818;stroke-width:0.5;" x1="712" x2="775" y1="516.2969" y2="516.2969"/></g><!--MD5=[4f1f3706c1a355a8488e154afcaed5df]
class Location--><g id="elem_Location"><rect codeLine="10" fill="#F1F1F1" height="48" id="Location" rx="2.5" ry="2.5" style="stroke:#181818;stroke-width:0.5;" width="90" x="811.5" y="476.2969"/><ellipse cx="826.5" cy="492.2969" fill="#ADD1B2" rx="11" ry="11" style="stroke:#181818;stroke-width:1.0;"/><path d="M829.4688,497.9375 Q828.8906,498.2344 828.25,498.375 Q827.6094,498.5313 826.9063,498.5313 Q824.4063,498.5313 823.0781,496.8906 Q821.7656,495.2344 821.7656,492.1094 Q821.7656,488.9844 823.0781,487.3281 Q824.4063,485.6719 826.9063,485.6719 Q827.6094,485.6719 828.25,485.8281 Q828.9063,485.9844 829.4688,486.2813 L829.4688,489 Q828.8438,488.4219 828.25,488.1563 Q827.6563,487.875 827.0313,487.875 Q825.6875,487.875 825,488.9531 Q824.3125,490.0156 824.3125,492.1094 Q824.3125,494.2031 825,495.2813 Q825.6875,496.3438 827.0313,496.3438 Q827.6563,496.3438 828.25,496.0781 Q828.8438,495.7969 829.4688,495.2188 L829.4688,497.9375 Z " fill="#000000"/><text fill="#000000" font-family="sans-serif" font-size="14" lengthAdjust="spacing" textLength="58" x="840.5" y="497.1436">Location</text><line style="stroke:#181818;stroke-width:0.5;" x1="812.5" x2="900.5" y1="508.2969" y2="508.2969"/><line style="stroke:#181818;stroke-width:0.5;" x1="812.5" x2="900.5" y1="516.2969" y2="516.2969"/></g><!--MD5=[1582a1ceb3054ea3298fac38767ea8e7]
class Consult--><g id="elem_Consult"><rect codeLine="11" fill="#F1F1F1" height="48" id="Consult" rx="2.5" ry="2.5" style="stroke:#181818;stroke-width:0.5;" width="85" x="1018" y="260.2969"/><ellipse cx="1033" cy="276.2969" fill="#ADD1B2" rx="11" ry="11" style="stroke:#181818;stroke-width:1.0;"/><path d="M1035.9688,281.9375 Q1035.3906,282.2344 1034.75,282.375 Q1034.1094,282.5313 1033.4063,282.5313 Q1030.9063,282.5313 1029.5781,280.8906 Q1028.2656,279.2344 1028.2656,276.1094 Q1028.2656,272.9844 1029.5781,271.3281 Q1030.9063,269.6719 1033.4063,269.6719 Q1034.1094,269.6719 1034.75,269.8281 Q1035.4063,269.9844 1035.9688,270.2813 L1035.9688,273 Q1035.3438,272.4219 1034.75,272.1563 Q1034.1563,271.875 1033.5313,271.875 Q1032.1875,271.875 1031.5,272.9531 Q1030.8125,274.0156 1030.8125,276.1094 Q1030.8125,278.2031 1031.5,279.2813 Q1032.1875,280.3438 1033.5313,280.3438 Q1034.1563,280.3438 1034.75,280.0781 Q1035.3438,279.7969 1035.9688,279.2188 L1035.9688,281.9375 Z " fill="#000000"/><text fill="#000000" font-family="sans-serif" font-size="14" lengthAdjust="spacing" textLength="53" x="1047" y="281.1436">Consult</text><line style="stroke:#181818;stroke-width:0.5;" x1="1019" x2="1102" y1="292.2969" y2="292.2969"/><line style="stroke:#181818;stroke-width:0.5;" x1="1019" x2="1102" y1="300.2969" y2="300.2969"/></g><!--MD5=[ae82a2da8b56c6226c99c86cebc2591c]
class Manage--><g id="elem_Manage"><rect codeLine="12" fill="#F1F1F1" height="48" id="Manage" rx="2.5" ry="2.5" style="stroke:#181818;stroke-width:0.5;" width="87" x="220" y="260.2969"/><ellipse cx="235" cy="276.2969" fill="#ADD1B2" rx="11" ry="11" style="stroke:#181818;stroke-width:1.0;"/><path d="M237.9688,281.9375 Q237.3906,282.2344 236.75,282.375 Q236.1094,282.5313 235.4063,282.5313 Q232.9063,282.5313 231.5781,280.8906 Q230.2656,279.2344 230.2656,276.1094 Q230.2656,272.9844 231.5781,271.3281 Q232.9063,269.6719 235.4063,269.6719 Q236.1094,269.6719 236.75,269.8281 Q237.4063,269.9844 237.9688,270.2813 L237.9688,273 Q237.3438,272.4219 236.75,272.1563 Q236.1563,271.875 235.5313,271.875 Q234.1875,271.875 233.5,272.9531 Q232.8125,274.0156 232.8125,276.1094 Q232.8125,278.2031 233.5,279.2813 Q234.1875,280.3438 235.5313,280.3438 Q236.1563,280.3438 236.75,280.0781 Q237.3438,279.7969 237.9688,279.2188 L237.9688,281.9375 Z " fill="#000000"/><text fill="#000000" font-family="sans-serif" font-size="14" lengthAdjust="spacing" textLength="55" x="249" y="281.1436">Manage</text><line style="stroke:#181818;stroke-width:0.5;" x1="221" x2="306" y1="292.2969" y2="292.2969"/><line style="stroke:#181818;stroke-width:0.5;" x1="221" x2="306" y1="300.2969" y2="300.2969"/></g><!--MD5=[6584eb4189611289abbb06941f844685]
class Apply--><g id="elem_Apply"><rect codeLine="13" fill="#F1F1F1" height="48" id="Apply" rx="2.5" ry="2.5" style="stroke:#181818;stroke-width:0.5;" width="69" x="1294" y="260.2969"/><ellipse cx="1309" cy="276.2969" fill="#ADD1B2" rx="11" ry="11" style="stroke:#181818;stroke-width:1.0;"/><path d="M1311.9688,281.9375 Q1311.3906,282.2344 1310.75,282.375 Q1310.1094,282.5313 1309.4063,282.5313 Q1306.9063,282.5313 1305.5781,280.8906 Q1304.2656,279.2344 1304.2656,276.1094 Q1304.2656,272.9844 1305.5781,271.3281 Q1306.9063,269.6719 1309.4063,269.6719 Q1310.1094,269.6719 1310.75,269.8281 Q1311.4063,269.9844 1311.9688,270.2813 L1311.9688,273 Q1311.3438,272.4219 1310.75,272.1563 Q1310.1563,271.875 1309.5313,271.875 Q1308.1875,271.875 1307.5,272.9531 Q1306.8125,274.0156 1306.8125,276.1094 Q1306.8125,278.2031 1307.5,279.2813 Q1308.1875,280.3438 1309.5313,280.3438 Q1310.1563,280.3438 1310.75,280.0781 Q1311.3438,279.7969 1311.9688,279.2188 L1311.9688,281.9375 Z " fill="#000000"/><text fill="#000000" font-family="sans-serif" font-size="14" lengthAdjust="spacing" textLength="37" x="1323" y="281.1436">Apply</text><line style="stroke:#181818;stroke-width:0.5;" x1="1295" x2="1362" y1="292.2969" y2="292.2969"/><line style="stroke:#181818;stroke-width:0.5;" x1="1295" x2="1362" y1="300.2969" y2="300.2969"/></g><!--MD5=[107af66394bf1ebaa045812c9c475148]
class Score--><g id="elem_Score"><rect codeLine="14" fill="#F1F1F1" height="48" id="Score" rx="2.5" ry="2.5" style="stroke:#181818;stroke-width:0.5;" width="72" x="342.5" y="260.2969"/><ellipse cx="357.5" cy="276.2969" fill="#ADD1B2" rx="11" ry="11" style="stroke:#181818;stroke-width:1.0;"/><path d="M360.4688,281.9375 Q359.8906,282.2344 359.25,282.375 Q358.6094,282.5313 357.9063,282.5313 Q355.4063,282.5313 354.0781,280.8906 Q352.7656,279.2344 352.7656,276.1094 Q352.7656,272.9844 354.0781,271.3281 Q355.4063,269.6719 357.9063,269.6719 Q358.6094,269.6719 359.25,269.8281 Q359.9063,269.9844 360.4688,270.2813 L360.4688,273 Q359.8438,272.4219 359.25,272.1563 Q358.6563,271.875 358.0313,271.875 Q356.6875,271.875 356,272.9531 Q355.3125,274.0156 355.3125,276.1094 Q355.3125,278.2031 356,279.2813 Q356.6875,280.3438 358.0313,280.3438 Q358.6563,280.3438 359.25,280.0781 Q359.8438,279.7969 360.4688,279.2188 L360.4688,281.9375 Z " fill="#000000"/><text fill="#000000" font-family="sans-serif" font-size="14" lengthAdjust="spacing" textLength="40" x="371.5" y="281.1436">Score</text><line style="stroke:#181818;stroke-width:0.5;" x1="343.5" x2="413.5" y1="292.2969" y2="292.2969"/><line style="stroke:#181818;stroke-width:0.5;" x1="343.5" x2="413.5" y1="300.2969" y2="300.2969"/></g><!--MD5=[75608257a5c34eea21c80da2dd697475]
class PaymentInfo--><g id="elem_PaymentInfo"><rect codeLine="15" fill="#F1F1F1" height="48" id="PaymentInfo" rx="2.5" ry="2.5" style="stroke:#181818;stroke-width:0.5;" width="117" x="450" y="260.2969"/><ellipse cx="465" cy="276.2969" fill="#ADD1B2" rx="11" ry="11" style="stroke:#181818;stroke-width:1.0;"/><path d="M467.9688,281.9375 Q467.3906,282.2344 466.75,282.375 Q466.1094,282.5313 465.4063,282.5313 Q462.9063,282.5313 461.5781,280.8906 Q460.2656,279.2344 460.2656,276.1094 Q460.2656,272.9844 461.5781,271.3281 Q462.9063,269.6719 465.4063,269.6719 Q466.1094,269.6719 466.75,269.8281 Q467.4063,269.9844 467.9688,270.2813 L467.9688,273 Q467.3438,272.4219 466.75,272.1563 Q466.1563,271.875 465.5313,271.875 Q464.1875,271.875 463.5,272.9531 Q462.8125,274.0156 462.8125,276.1094 Q462.8125,278.2031 463.5,279.2813 Q464.1875,280.3438 465.5313,280.3438 Q466.1563,280.3438 466.75,280.0781 Q467.3438,279.7969 467.9688,279.2188 L467.9688,281.9375 Z " fill="#000000"/><text fill="#000000" font-family="sans-serif" font-size="14" lengthAdjust="spacing" textLength="85" x="479" y="281.1436">PaymentInfo</text><line style="stroke:#181818;stroke-width:0.5;" x1="451" x2="566" y1="292.2969" y2="292.2969"/><line style="stroke:#181818;stroke-width:0.5;" x1="451" x2="566" y1="300.2969" y2="300.2969"/></g><!--MD5=[7181b6cfacae2bce8e581b6d37db2178]
class Dorsal--><g id="elem_Dorsal"><rect codeLine="16" fill="#F1F1F1" height="48" id="Dorsal" rx="2.5" ry="2.5" style="stroke:#181818;stroke-width:0.5;" width="76" x="602.5" y="260.2969"/><ellipse cx="617.5" cy="276.2969" fill="#ADD1B2" rx="11" ry="11" style="stroke:#181818;stroke-width:1.0;"/><path d="M620.4688,281.9375 Q619.8906,282.2344 619.25,282.375 Q618.6094,282.5313 617.9063,282.5313 Q615.4063,282.5313 614.0781,280.8906 Q612.7656,279.2344 612.7656,276.1094 Q612.7656,272.9844 614.0781,271.3281 Q615.4063,269.6719 617.9063,269.6719 Q618.6094,269.6719 619.25,269.8281 Q619.9063,269.9844 620.4688,270.2813 L620.4688,273 Q619.8438,272.4219 619.25,272.1563 Q618.6563,271.875 618.0313,271.875 Q616.6875,271.875 616,272.9531 Q615.3125,274.0156 615.3125,276.1094 Q615.3125,278.2031 616,279.2813 Q616.6875,280.3438 618.0313,280.3438 Q618.6563,280.3438 619.25,280.0781 Q619.8438,279.7969 620.4688,279.2188 L620.4688,281.9375 Z " fill="#000000"/><text fill="#000000" font-family="sans-serif" font-size="14" lengthAdjust="spacing" textLength="44" x="631.5" y="281.1436">Dorsal</text><line style="stroke:#181818;stroke-width:0.5;" x1="603.5" x2="677.5" y1="292.2969" y2="292.2969"/><line style="stroke:#181818;stroke-width:0.5;" x1="603.5" x2="677.5" y1="300.2969" y2="300.2969"/></g><!--MD5=[4879bc36ecaf6732470680c23d16b6d6]
class ApplicationPeriod--><g id="elem_ApplicationPeriod"><rect codeLine="17" fill="#F1F1F1" height="48" id="ApplicationPeriod" rx="2.5" ry="2.5" style="stroke:#181818;stroke-width:0.5;" width="151" x="937" y="476.2969"/><ellipse cx="952" cy="492.2969" fill="#ADD1B2" rx="11" ry="11" style="stroke:#181818;stroke-width:1.0;"/><path d="M954.9688,497.9375 Q954.3906,498.2344 953.75,498.375 Q953.1094,498.5313 952.4063,498.5313 Q949.9063,498.5313 948.5781,496.8906 Q947.2656,495.2344 947.2656,492.1094 Q947.2656,488.9844 948.5781,487.3281 Q949.9063,485.6719 952.4063,485.6719 Q953.1094,485.6719 953.75,485.8281 Q954.4063,485.9844 954.9688,486.2813 L954.9688,489 Q954.3438,488.4219 953.75,488.1563 Q953.1563,487.875 952.5313,487.875 Q951.1875,487.875 950.5,488.9531 Q949.8125,490.0156 949.8125,492.1094 Q949.8125,494.2031 950.5,495.2813 Q951.1875,496.3438 952.5313,496.3438 Q953.1563,496.3438 953.75,496.0781 Q954.3438,495.7969 954.9688,495.2188 L954.9688,497.9375 Z " fill="#000000"/><text fill="#000000" font-family="sans-serif" font-size="14" lengthAdjust="spacing" textLength="119" x="966" y="497.1436">ApplicationPeriod</text><line style="stroke:#181818;stroke-width:0.5;" x1="938" x2="1087" y1="508.2969" y2="508.2969"/><line style="stroke:#181818;stroke-width:0.5;" x1="938" x2="1087" y1="516.2969" y2="516.2969"/></g><!--MD5=[fa2f63ccaf221ae7736318ef25f3047e]
class TrackRecord--><g id="elem_TrackRecord"><rect codeLine="18" fill="#F1F1F1" height="48" id="TrackRecord" rx="2.5" ry="2.5" style="stroke:#181818;stroke-width:0.5;" width="120" x="1138.5" y="260.2969"/><ellipse cx="1153.5" cy="276.2969" fill="#ADD1B2" rx="11" ry="11" style="stroke:#181818;stroke-width:1.0;"/><path d="M1156.4688,281.9375 Q1155.8906,282.2344 1155.25,282.375 Q1154.6094,282.5313 1153.9063,282.5313 Q1151.4063,282.5313 1150.0781,280.8906 Q1148.7656,279.2344 1148.7656,276.1094 Q1148.7656,272.9844 1150.0781,271.3281 Q1151.4063,269.6719 1153.9063,269.6719 Q1154.6094,269.6719 1155.25,269.8281 Q1155.9063,269.9844 1156.4688,270.2813 L1156.4688,273 Q1155.8438,272.4219 1155.25,272.1563 Q1154.6563,271.875 1154.0313,271.875 Q1152.6875,271.875 1152,272.9531 Q1151.3125,274.0156 1151.3125,276.1094 Q1151.3125,278.2031 1152,279.2813 Q1152.6875,280.3438 1154.0313,280.3438 Q1154.6563,280.3438 1155.25,280.0781 Q1155.8438,279.7969 1156.4688,279.2188 L1156.4688,281.9375 Z " fill="#000000"/><text fill="#000000" font-family="sans-serif" font-size="14" lengthAdjust="spacing" textLength="88" x="1167.5" y="281.1436">TrackRecord</text><line style="stroke:#181818;stroke-width:0.5;" x1="1139.5" x2="1257.5" y1="292.2969" y2="292.2969"/><line style="stroke:#181818;stroke-width:0.5;" x1="1139.5" x2="1257.5" y1="300.2969" y2="300.2969"/></g><!--MD5=[daaf474a872145e7245538cddd912e0c]
class Suscription--><g id="elem_Suscription"><rect codeLine="19" fill="#F1F1F1" height="48" id="Suscription" rx="2.5" ry="2.5" style="stroke:#181818;stroke-width:0.5;" width="109" x="76" y="260.2969"/><ellipse cx="91" cy="276.2969" fill="#ADD1B2" rx="11" ry="11" style="stroke:#181818;stroke-width:1.0;"/><path d="M93.9688,281.9375 Q93.3906,282.2344 92.75,282.375 Q92.1094,282.5313 91.4063,282.5313 Q88.9063,282.5313 87.5781,280.8906 Q86.2656,279.2344 86.2656,276.1094 Q86.2656,272.9844 87.5781,271.3281 Q88.9063,269.6719 91.4063,269.6719 Q92.1094,269.6719 92.75,269.8281 Q93.4063,269.9844 93.9688,270.2813 L93.9688,273 Q93.3438,272.4219 92.75,272.1563 Q92.1563,271.875 91.5313,271.875 Q90.1875,271.875 89.5,272.9531 Q88.8125,274.0156 88.8125,276.1094 Q88.8125,278.2031 89.5,279.2813 Q90.1875,280.3438 91.5313,280.3438 Q92.1563,280.3438 92.75,280.0781 Q93.3438,279.7969 93.9688,279.2188 L93.9688,281.9375 Z " fill="#000000"/><text fill="#000000" font-family="sans-serif" font-size="14" lengthAdjust="spacing" textLength="77" x="105" y="281.1436">Suscription</text><line style="stroke:#181818;stroke-width:0.5;" x1="77" x2="184" y1="292.2969" y2="292.2969"/><line style="stroke:#181818;stroke-width:0.5;" x1="77" x2="184" y1="300.2969" y2="300.2969"/></g><!--MD5=[1537e7b3e760210491ed7d5f83b83174]
class Registration--><g id="elem_Registration"><rect codeLine="20" fill="#F1F1F1" height="48" id="Registration" rx="2.5" ry="2.5" style="stroke:#181818;stroke-width:0.5;" width="115" x="1123" y="476.2969"/><ellipse cx="1138" cy="492.2969" fill="#ADD1B2" rx="11" ry="11" style="stroke:#181818;stroke-width:1.0;"/><path d="M1140.9688,497.9375 Q1140.3906,498.2344 1139.75,498.375 Q1139.1094,498.5313 1138.4063,498.5313 Q1135.9063,498.5313 1134.5781,496.8906 Q1133.2656,495.2344 1133.2656,492.1094 Q1133.2656,488.9844 1134.5781,487.3281 Q1135.9063,485.6719 1138.4063,485.6719 Q1139.1094,485.6719 1139.75,485.8281 Q1140.4063,485.9844 1140.9688,486.2813 L1140.9688,489 Q1140.3438,488.4219 1139.75,488.1563 Q1139.1563,487.875 1138.5313,487.875 Q1137.1875,487.875 1136.5,488.9531 Q1135.8125,490.0156 1135.8125,492.1094 Q1135.8125,494.2031 1136.5,495.2813 Q1137.1875,496.3438 1138.5313,496.3438 Q1139.1563,496.3438 1139.75,496.0781 Q1140.3438,495.7969 1140.9688,495.2188 L1140.9688,497.9375 Z " fill="#000000"/><text fill="#000000" font-family="sans-serif" font-size="14" lengthAdjust="spacing" textLength="83" x="1152" y="497.1436">Registration</text><line style="stroke:#181818;stroke-width:0.5;" x1="1124" x2="1237" y1="508.2969" y2="508.2969"/><line style="stroke:#181818;stroke-width:0.5;" x1="1124" x2="1237" y1="516.2969" y2="516.2969"/></g><!--MD5=[1eb16f587f0be04f87e5494aaa8d5362]
class ApplicationCode--><g id="elem_ApplicationCode"><rect fill="#F1F1F1" height="48" id="ApplicationCode" rx="2.5" ry="2.5" style="stroke:#181818;stroke-width:0.5;" width="144" x="1256.5" y="368.2969"/><ellipse cx="1271.5" cy="384.2969" fill="#ADD1B2" rx="11" ry="11" style="stroke:#181818;stroke-width:1.0;"/><path d="M1274.4688,389.9375 Q1273.8906,390.2344 1273.25,390.375 Q1272.6094,390.5313 1271.9063,390.5313 Q1269.4063,390.5313 1268.0781,388.8906 Q1266.7656,387.2344 1266.7656,384.1094 Q1266.7656,380.9844 1268.0781,379.3281 Q1269.4063,377.6719 1271.9063,377.6719 Q1272.6094,377.6719 1273.25,377.8281 Q1273.9063,377.9844 1274.4688,378.2813 L1274.4688,381 Q1273.8438,380.4219 1273.25,380.1563 Q1272.6563,379.875 1272.0313,379.875 Q1270.6875,379.875 1270,380.9531 Q1269.3125,382.0156 1269.3125,384.1094 Q1269.3125,386.2031 1270,387.2813 Q1270.6875,388.3438 1272.0313,388.3438 Q1272.6563,388.3438 1273.25,388.0781 Q1273.8438,387.7969 1274.4688,387.2188 L1274.4688,389.9375 Z " fill="#000000"/><text fill="#000000" font-family="sans-serif" font-size="14" lengthAdjust="spacing" textLength="112" x="1285.5" y="389.1436">ApplicationCode</text><line style="stroke:#181818;stroke-width:0.5;" x1="1257.5" x2="1399.5" y1="400.2969" y2="400.2969"/><line style="stroke:#181818;stroke-width:0.5;" x1="1257.5" x2="1399.5" y1="408.2969" y2="408.2969"/></g><!--MD5=[7fa87c15454b6b26abd290c64b708ccb]
class AthleteCapacity--><g id="elem_AthleteCapacity"><rect fill="#F1F1F1" height="48" id="AthleteCapacity" rx="2.5" ry="2.5" style="stroke:#181818;stroke-width:0.5;" width="139" x="1273" y="476.2969"/><ellipse cx="1288" cy="492.2969" fill="#ADD1B2" rx="11" ry="11" style="stroke:#181818;stroke-width:1.0;"/><path d="M1290.9688,497.9375 Q1290.3906,498.2344 1289.75,498.375 Q1289.1094,498.5313 1288.4063,498.5313 Q1285.9063,498.5313 1284.5781,496.8906 Q1283.2656,495.2344 1283.2656,492.1094 Q1283.2656,488.9844 1284.5781,487.3281 Q1285.9063,485.6719 1288.4063,485.6719 Q1289.1094,485.6719 1289.75,485.8281 Q1290.4063,485.9844 1290.9688,486.2813 L1290.9688,489 Q1290.3438,488.4219 1289.75,488.1563 Q1289.1563,487.875 1288.5313,487.875 Q1287.1875,487.875 1286.5,488.9531 Q1285.8125,490.0156 1285.8125,492.1094 Q1285.8125,494.2031 1286.5,495.2813 Q1287.1875,496.3438 1288.5313,496.3438 Q1289.1563,496.3438 1289.75,496.0781 Q1290.3438,495.7969 1290.9688,495.2188 L1290.9688,497.9375 Z " fill="#000000"/><text fill="#000000" font-family="sans-serif" font-size="14" lengthAdjust="spacing" textLength="107" x="1302" y="497.1436">AthleteCapacity</text><line style="stroke:#181818;stroke-width:0.5;" x1="1274" x2="1411" y1="508.2969" y2="508.2969"/><line style="stroke:#181818;stroke-width:0.5;" x1="1274" x2="1411" y1="516.2969" y2="516.2969"/></g><!--MD5=[4296a1ab0576a383a1a509d52c22ebf0]
class Type--><g id="elem_Type"><rect fill="#F1F1F1" height="48" id="Type" rx="2.5" ry="2.5" style="stroke:#181818;stroke-width:0.5;" width="66" x="1447.5" y="476.2969"/><ellipse cx="1462.5" cy="492.2969" fill="#ADD1B2" rx="11" ry="11" style="stroke:#181818;stroke-width:1.0;"/><path d="M1465.4688,497.9375 Q1464.8906,498.2344 1464.25,498.375 Q1463.6094,498.5313 1462.9063,498.5313 Q1460.4063,498.5313 1459.0781,496.8906 Q1457.7656,495.2344 1457.7656,492.1094 Q1457.7656,488.9844 1459.0781,487.3281 Q1460.4063,485.6719 1462.9063,485.6719 Q1463.6094,485.6719 1464.25,485.8281 Q1464.9063,485.9844 1465.4688,486.2813 L1465.4688,489 Q1464.8438,488.4219 1464.25,488.1563 Q1463.6563,487.875 1463.0313,487.875 Q1461.6875,487.875 1461,488.9531 Q1460.3125,490.0156 1460.3125,492.1094 Q1460.3125,494.2031 1461,495.2813 Q1461.6875,496.3438 1463.0313,496.3438 Q1463.6563,496.3438 1464.25,496.0781 Q1464.8438,495.7969 1465.4688,495.2188 L1465.4688,497.9375 Z " fill="#000000"/><text fill="#000000" font-family="sans-serif" font-size="14" lengthAdjust="spacing" textLength="34" x="1476.5" y="497.1436">Type</text><line style="stroke:#181818;stroke-width:0.5;" x1="1448.5" x2="1512.5" y1="508.2969" y2="508.2969"/><line style="stroke:#181818;stroke-width:0.5;" x1="1448.5" x2="1512.5" y1="516.2969" y2="516.2969"/></g><!--MD5=[ff1ec4984a10357ff87efd790c997cab]
class AthleteRegistrationDate--><g id="elem_AthleteRegistrationDate"><rect fill="#F1F1F1" height="48" id="AthleteRegistrationDate" rx="2.5" ry="2.5" style="stroke:#181818;stroke-width:0.5;" width="197" x="714" y="260.2969"/><ellipse cx="729" cy="276.2969" fill="#ADD1B2" rx="11" ry="11" style="stroke:#181818;stroke-width:1.0;"/><path d="M731.9688,281.9375 Q731.3906,282.2344 730.75,282.375 Q730.1094,282.5313 729.4063,282.5313 Q726.9063,282.5313 725.5781,280.8906 Q724.2656,279.2344 724.2656,276.1094 Q724.2656,272.9844 725.5781,271.3281 Q726.9063,269.6719 729.4063,269.6719 Q730.1094,269.6719 730.75,269.8281 Q731.4063,269.9844 731.9688,270.2813 L731.9688,273 Q731.3438,272.4219 730.75,272.1563 Q730.1563,271.875 729.5313,271.875 Q728.1875,271.875 727.5,272.9531 Q726.8125,274.0156 726.8125,276.1094 Q726.8125,278.2031 727.5,279.2813 Q728.1875,280.3438 729.5313,280.3438 Q730.1563,280.3438 730.75,280.0781 Q731.3438,279.7969 731.9688,279.2188 L731.9688,281.9375 Z " fill="#000000"/><text fill="#000000" font-family="sans-serif" font-size="14" lengthAdjust="spacing" textLength="165" x="743" y="281.1436">AthleteRegistrationDate</text><line style="stroke:#181818;stroke-width:0.5;" x1="715" x2="910" y1="292.2969" y2="292.2969"/><line style="stroke:#181818;stroke-width:0.5;" x1="715" x2="910" y1="300.2969" y2="300.2969"/></g><!--MD5=[d40c1293bf545fb669cd4f076a63ddfc]
class RegistrationType--><g id="elem_RegistrationType"><rect fill="#F1F1F1" height="48" id="RegistrationType" rx="2.5" ry="2.5" style="stroke:#181818;stroke-width:0.5;" width="149" x="922" y="584.2969"/><ellipse cx="937" cy="600.2969" fill="#ADD1B2" rx="11" ry="11" style="stroke:#181818;stroke-width:1.0;"/><path d="M939.9688,605.9375 Q939.3906,606.2344 938.75,606.375 Q938.1094,606.5313 937.4063,606.5313 Q934.9063,606.5313 933.5781,604.8906 Q932.2656,603.2344 932.2656,600.1094 Q932.2656,596.9844 933.5781,595.3281 Q934.9063,593.6719 937.4063,593.6719 Q938.1094,593.6719 938.75,593.8281 Q939.4063,593.9844 939.9688,594.2813 L939.9688,597 Q939.3438,596.4219 938.75,596.1563 Q938.1563,595.875 937.5313,595.875 Q936.1875,595.875 935.5,596.9531 Q934.8125,598.0156 934.8125,600.1094 Q934.8125,602.2031 935.5,603.2813 Q936.1875,604.3438 937.5313,604.3438 Q938.1563,604.3438 938.75,604.0781 Q939.3438,603.7969 939.9688,603.2188 L939.9688,605.9375 Z " fill="#000000"/><text fill="#000000" font-family="sans-serif" font-size="14" lengthAdjust="spacing" textLength="117" x="951" y="605.1436">RegistrationType</text><line style="stroke:#181818;stroke-width:0.5;" x1="923" x2="1070" y1="616.2969" y2="616.2969"/><line style="stroke:#181818;stroke-width:0.5;" x1="923" x2="1070" y1="624.2969" y2="624.2969"/></g><!--MD5=[b12e0ef570f00e2cf0640b1aecbc69b7]
class RegistrationDate--><g id="elem_RegistrationDate"><rect fill="#F1F1F1" height="48" id="RegistrationDate" rx="2.5" ry="2.5" style="stroke:#181818;stroke-width:0.5;" width="148" x="1106.5" y="584.2969"/><ellipse cx="1121.5" cy="600.2969" fill="#ADD1B2" rx="11" ry="11" style="stroke:#181818;stroke-width:1.0;"/><path d="M1124.4688,605.9375 Q1123.8906,606.2344 1123.25,606.375 Q1122.6094,606.5313 1121.9063,606.5313 Q1119.4063,606.5313 1118.0781,604.8906 Q1116.7656,603.2344 1116.7656,600.1094 Q1116.7656,596.9844 1118.0781,595.3281 Q1119.4063,593.6719 1121.9063,593.6719 Q1122.6094,593.6719 1123.25,593.8281 Q1123.9063,593.9844 1124.4688,594.2813 L1124.4688,597 Q1123.8438,596.4219 1123.25,596.1563 Q1122.6563,595.875 1122.0313,595.875 Q1120.6875,595.875 1120,596.9531 Q1119.3125,598.0156 1119.3125,600.1094 Q1119.3125,602.2031 1120,603.2813 Q1120.6875,604.3438 1122.0313,604.3438 Q1122.6563,604.3438 1123.25,604.0781 Q1123.8438,603.7969 1124.4688,603.2188 L1124.4688,605.9375 Z " fill="#000000"/><text fill="#000000" font-family="sans-serif" font-size="14" lengthAdjust="spacing" textLength="116" x="1135.5" y="605.1436">RegistrationDate</text><line style="stroke:#181818;stroke-width:0.5;" x1="1107.5" x2="1253.5" y1="616.2969" y2="616.2969"/><line style="stroke:#181818;stroke-width:0.5;" x1="1107.5" x2="1253.5" y1="624.2969" y2="624.2969"/></g><!--MD5=[a071edbadeaaf875ef26ba4cdee01b34]
class RegistrationCost--><g id="elem_RegistrationCost"><rect fill="#F1F1F1" height="48" id="RegistrationCost" rx="2.5" ry="2.5" style="stroke:#181818;stroke-width:0.5;" width="147" x="1290" y="584.2969"/><ellipse cx="1305" cy="600.2969" fill="#ADD1B2" rx="11" ry="11" style="stroke:#181818;stroke-width:1.0;"/><path d="M1307.9688,605.9375 Q1307.3906,606.2344 1306.75,606.375 Q1306.1094,606.5313 1305.4063,606.5313 Q1302.9063,606.5313 1301.5781,604.8906 Q1300.2656,603.2344 1300.2656,600.1094 Q1300.2656,596.9844 1301.5781,595.3281 Q1302.9063,593.6719 1305.4063,593.6719 Q1306.1094,593.6719 1306.75,593.8281 Q1307.4063,593.9844 1307.9688,594.2813 L1307.9688,597 Q1307.3438,596.4219 1306.75,596.1563 Q1306.1563,595.875 1305.5313,595.875 Q1304.1875,595.875 1303.5,596.9531 Q1302.8125,598.0156 1302.8125,600.1094 Q1302.8125,602.2031 1303.5,603.2813 Q1304.1875,604.3438 1305.5313,604.3438 Q1306.1563,604.3438 1306.75,604.0781 Q1307.3438,603.7969 1307.9688,603.2188 L1307.9688,605.9375 Z " fill="#000000"/><text fill="#000000" font-family="sans-serif" font-size="14" lengthAdjust="spacing" textLength="115" x="1319" y="605.1436">RegistrationCost</text><line style="stroke:#181818;stroke-width:0.5;" x1="1291" x2="1436" y1="616.2969" y2="616.2969"/><line style="stroke:#181818;stroke-width:0.5;" x1="1291" x2="1436" y1="624.2969" y2="624.2969"/></g><!--MD5=[1dc911963f0116eb7551a64657943f11]
class ByDrawing--><g id="elem_ByDrawing"><rect fill="#F1F1F1" height="48" id="ByDrawing" rx="2.5" ry="2.5" style="stroke:#181818;stroke-width:0.5;" width="105" x="878" y="692.2969"/><ellipse cx="893" cy="708.2969" fill="#ADD1B2" rx="11" ry="11" style="stroke:#181818;stroke-width:1.0;"/><path d="M895.9688,713.9375 Q895.3906,714.2344 894.75,714.375 Q894.1094,714.5313 893.4063,714.5313 Q890.9063,714.5313 889.5781,712.8906 Q888.2656,711.2344 888.2656,708.1094 Q888.2656,704.9844 889.5781,703.3281 Q890.9063,701.6719 893.4063,701.6719 Q894.1094,701.6719 894.75,701.8281 Q895.4063,701.9844 895.9688,702.2813 L895.9688,705 Q895.3438,704.4219 894.75,704.1563 Q894.1563,703.875 893.5313,703.875 Q892.1875,703.875 891.5,704.9531 Q890.8125,706.0156 890.8125,708.1094 Q890.8125,710.2031 891.5,711.2813 Q892.1875,712.3438 893.5313,712.3438 Q894.1563,712.3438 894.75,712.0781 Q895.3438,711.7969 895.9688,711.2188 L895.9688,713.9375 Z " fill="#000000"/><text fill="#000000" font-family="sans-serif" font-size="14" lengthAdjust="spacing" textLength="73" x="907" y="713.1436">ByDrawing</text><line style="stroke:#181818;stroke-width:0.5;" x1="879" x2="982" y1="724.2969" y2="724.2969"/><line style="stroke:#181818;stroke-width:0.5;" x1="879" x2="982" y1="732.2969" y2="732.2969"/></g><!--MD5=[626ee839297ae6d74adcb816213ff129]
class ByOrder--><g id="elem_ByOrder"><rect fill="#F1F1F1" height="48" id="ByOrder" rx="2.5" ry="2.5" style="stroke:#181818;stroke-width:0.5;" width="88" x="1018.5" y="692.2969"/><ellipse cx="1033.5" cy="708.2969" fill="#ADD1B2" rx="11" ry="11" style="stroke:#181818;stroke-width:1.0;"/><path d="M1036.4688,713.9375 Q1035.8906,714.2344 1035.25,714.375 Q1034.6094,714.5313 1033.9063,714.5313 Q1031.4063,714.5313 1030.0781,712.8906 Q1028.7656,711.2344 1028.7656,708.1094 Q1028.7656,704.9844 1030.0781,703.3281 Q1031.4063,701.6719 1033.9063,701.6719 Q1034.6094,701.6719 1035.25,701.8281 Q1035.9063,701.9844 1036.4688,702.2813 L1036.4688,705 Q1035.8438,704.4219 1035.25,704.1563 Q1034.6563,703.875 1034.0313,703.875 Q1032.6875,703.875 1032,704.9531 Q1031.3125,706.0156 1031.3125,708.1094 Q1031.3125,710.2031 1032,711.2813 Q1032.6875,712.3438 1034.0313,712.3438 Q1034.6563,712.3438 1035.25,712.0781 Q1035.8438,711.7969 1036.4688,711.2188 L1036.4688,713.9375 Z " fill="#000000"/><text fill="#000000" font-family="sans-serif" font-size="14" lengthAdjust="spacing" textLength="56" x="1047.5" y="713.1436">ByOrder</text><line style="stroke:#181818;stroke-width:0.5;" x1="1019.5" x2="1105.5" y1="724.2969" y2="724.2969"/><line style="stroke:#181818;stroke-width:0.5;" x1="1019.5" x2="1105.5" y1="732.2969" y2="732.2969"/></g><!--MD5=[a1cd2e7923397715a6a791c22d3e9256]
class ConcurrentRequestsThreshold--><g id="elem_ConcurrentRequestsThreshold"><rect fill="#F1F1F1" height="48" id="ConcurrentRequestsThreshold" rx="2.5" ry="2.5" style="stroke:#181818;stroke-width:0.5;" width="247" x="7" y="368.2969"/><ellipse cx="22" cy="384.2969" fill="#ADD1B2" rx="11" ry="11" style="stroke:#181818;stroke-width:1.0;"/><path d="M24.9688,389.9375 Q24.3906,390.2344 23.75,390.375 Q23.1094,390.5313 22.4063,390.5313 Q19.9063,390.5313 18.5781,388.8906 Q17.2656,387.2344 17.2656,384.1094 Q17.2656,380.9844 18.5781,379.3281 Q19.9063,377.6719 22.4063,377.6719 Q23.1094,377.6719 23.75,377.8281 Q24.4063,377.9844 24.9688,378.2813 L24.9688,381 Q24.3438,380.4219 23.75,380.1563 Q23.1563,379.875 22.5313,379.875 Q21.1875,379.875 20.5,380.9531 Q19.8125,382.0156 19.8125,384.1094 Q19.8125,386.2031 20.5,387.2813 Q21.1875,388.3438 22.5313,388.3438 Q23.1563,388.3438 23.75,388.0781 Q24.3438,387.7969 24.9688,387.2188 L24.9688,389.9375 Z " fill="#000000"/><text fill="#000000" font-family="sans-serif" font-size="14" lengthAdjust="spacing" textLength="215" x="36" y="389.1436">ConcurrentRequestsThreshold</text><line style="stroke:#181818;stroke-width:0.5;" x1="8" x2="253" y1="400.2969" y2="400.2969"/><line style="stroke:#181818;stroke-width:0.5;" x1="8" x2="253" y1="408.2969" y2="408.2969"/></g><!--MD5=[23e1070f3df272e91d97f134644eec19]
link YourRace to Athlete--><g id="link_YourRace_Athlete"><path codeLine="22" d="M722.827,85.5906 C722.827,85.5906 933.33,141.5069 1006.8,161.0269 " fill="none" id="YourRace-Athlete" style="stroke:#181818;stroke-width:1.0;"/><polygon fill="#181818" points="1019.82,164.4869,1012.1519,158.3062,1014.9883,163.2006,1010.0939,166.037,1019.82,164.4869" style="stroke:#181818;stroke-width:1.0;"/><line style="stroke:#181818;stroke-width:1.0;" x1="1014.9883" x2="1007.25" y1="163.2006" y2="161.1519"/><polygon fill="#181818" points="711.23,82.5069,716.0006,87.9144,722.827,85.5906,718.0564,80.1831,711.23,82.5069" style="stroke:#181818;stroke-width:1.0;"/></g><!--MD5=[5359aeb4b27adfe89cdf839703c53325]
link YourRace to Organizer--><g id="link_YourRace_Organizer"><path codeLine="23" d="M600.3072,85.6062 C600.3072,85.6062 400.62,138.7769 325.99,158.6569 " fill="none" id="YourRace-Organizer" style="stroke:#181818;stroke-width:1.0;"/><polygon fill="#181818" points="313.1,162.0869,322.8261,163.637,317.9317,160.8006,320.7681,155.9062,313.1,162.0869" style="stroke:#181818;stroke-width:1.0;"/><line style="stroke:#181818;stroke-width:1.0;" x1="317.9317" x2="325.66" y1="160.8006" y2="158.7419"/><polygon fill="#181818" points="611.9,82.5069,605.0705,80.1923,600.3072,85.6062,607.1367,87.9208,611.9,82.5069" style="stroke:#181818;stroke-width:1.0;"/></g><!--MD5=[7151f2d60812e04faec703a7b590ae07]
link Organizer to Manage--><g id="link_Organizer_Manage"><path codeLine="25" d="M263.5,200.2969 C263.5,216.2969 263.5,237.7469 263.5,254.8269 " fill="none" id="Organizer-to-Manage" style="stroke:#181818;stroke-width:1.0;"/><polygon fill="#181818" points="263.5,259.9769,267.5,250.9769,263.5,254.9769,259.5,250.9769,263.5,259.9769" style="stroke:#181818;stroke-width:1.0;"/></g><!--MD5=[37d723eb891adce7d8e365d1b147a08a]
link Athlete to Apply--><g id="link_Athlete_Apply"><path codeLine="27" d="M1101.34,192.3069 C1144.96,208.4869 1215.98,235.2969 1276.5,260.2969 C1280.65,262.0169 1284.98,263.8469 1289.27,265.6969 " fill="none" id="Athlete-to-Apply" style="stroke:#181818;stroke-width:1.0;stroke-dasharray:7.0,7.0;"/><polygon fill="#181818" points="1293.92,267.7169,1287.2505,260.4699,1289.3317,265.73,1284.0716,267.8112,1293.92,267.7169" style="stroke:#181818;stroke-width:1.0;"/></g><!--MD5=[f05b3ee42e886bc038042c952099922c]
link Athlete to Consult--><g id="link_Athlete_Consult"><path codeLine="28" d="M1060.5,200.2969 C1060.5,216.2969 1060.5,237.7469 1060.5,254.8269 " fill="none" id="Athlete-to-Consult" style="stroke:#181818;stroke-width:1.0;"/><polygon fill="#181818" points="1060.5,259.9769,1064.5,250.9769,1060.5,254.9769,1056.5,250.9769,1060.5,259.9769" style="stroke:#181818;stroke-width:1.0;"/></g><!--MD5=[1af141ae5437315f4ccd964254671e2b]
link Athlete to TrackRecord--><g id="link_Athlete_TrackRecord"><path codeLine="29" d="M1099.9539,207.6102 C1099.9539,207.6102 1139.78,238.1969 1157.71,251.9669 " fill="none" id="Athlete-TrackRecord" style="stroke:#181818;stroke-width:1.0;"/><polygon fill="#181818" points="1168.14,259.9769,1163.4348,251.3247,1164.1732,256.9331,1158.5648,257.6715,1168.14,259.9769" style="stroke:#181818;stroke-width:1.0;"/><line style="stroke:#181818;stroke-width:1.0;" x1="1164.1732" x2="1157.83" y1="256.9331" y2="252.0569"/><polygon fill="#181818" points="1090.44,200.2969,1092.7592,207.1249,1099.9539,207.6102,1097.6347,200.7822,1090.44,200.2969" style="stroke:#181818;stroke-width:1.0;"/></g><!--MD5=[dcfb4e855971f3c033a0c29c0562827a]
link Apply to ApplicationCode--><g id="link_Apply_ApplicationCode"><path codeLine="31" d="M1328.5,320.2969 C1328.5,320.2969 1328.5,343.9769 1328.5,354.6569 " fill="none" id="Apply-ApplicationCode" style="stroke:#181818;stroke-width:1.0;"/><polygon fill="#181818" points="1328.5,367.9769,1332.5,358.9769,1328.5,362.9769,1324.5,358.9769,1328.5,367.9769" style="stroke:#181818;stroke-width:1.0;"/><line style="stroke:#181818;stroke-width:1.0;" x1="1328.5" x2="1328.5" y1="362.9769" y2="354.9769"/><polygon fill="#181818" points="1328.5,308.2969,1324.5,314.2969,1328.5,320.2969,1332.5,314.2969,1328.5,308.2969" style="stroke:#181818;stroke-width:1.0;"/></g><!--MD5=[53d46adbeb03dd17ed534e5ba23ccd4d]
link Apply to Race--><g id="link_Apply_Race"><path codeLine="33" d="M1293.76,301.3069 C1288.04,303.7569 1282.13,306.1769 1276.5,308.2969 C1197.67,338.0169 1102.98,365.9569 1051.13,380.6169 " fill="none" id="Apply-to-Race" style="stroke:#181818;stroke-width:1.0;stroke-dasharray:7.0,7.0;"/><polygon fill="#181818" points="1046.25,381.9969,1055.9977,383.4049,1051.0624,380.6403,1053.8271,375.705,1046.25,381.9969" style="stroke:#181818;stroke-width:1.0;"/></g><!--MD5=[766de44c127d67c269e0e5bad3e2e7ae]
link Consult to Race--><g id="link_Consult_Race"><path codeLine="35" d="M1050.08,308.2969 C1042.78,324.4369 1032.96,346.1169 1025.19,363.2669 " fill="none" id="Consult-to-Race" style="stroke:#181818;stroke-width:1.0;"/><polygon fill="#181818" points="1023.06,367.9769,1030.4257,361.4388,1025.129,363.425,1023.1428,358.1284,1023.06,367.9769" style="stroke:#181818;stroke-width:1.0;"/></g><!--MD5=[e411b63e9fce17c83545870915635e7f]
link Manage to Race--><g id="link_Manage_Race"><path codeLine="37" d="M307.13,302.9269 C313.23,304.9669 319.47,306.8369 325.5,308.2969 C567.48,366.9369 867.93,385.0269 973.58,389.7969 " fill="none" id="Manage-to-Race" style="stroke:#181818;stroke-width:1.0;"/><polygon fill="#181818" points="978.76,390.0269,969.9401,385.6441,973.7646,389.8122,969.5965,393.6367,978.76,390.0269" style="stroke:#181818;stroke-width:1.0;"/></g><!--MD5=[8d22a264b1d458f793ad84cf56e8b974]
link Race to Distance--><g id="link_Race_Distance"><path codeLine="40" d="M967.004,403.754 C967.004,403.754 789.26,446.6969 693.5,476.2969 C691.91,476.7869 690.31,477.2969 688.69,477.8069 " fill="none" id="Race-Distance" style="stroke:#181818;stroke-width:1.0;"/><polygon fill="#181818" points="676.17,481.9769,685.9724,482.9324,680.9145,480.399,683.4479,475.3412,676.17,481.9769" style="stroke:#181818;stroke-width:1.0;"/><line style="stroke:#181818;stroke-width:1.0;" x1="680.9145" x2="688.505" y1="480.399" y2="477.8719"/><polygon fill="#181818" points="978.69,401.0269,971.9379,398.4951,967.004,403.754,973.7561,406.2858,978.69,401.0269" style="stroke:#181818;stroke-width:1.0;"/></g><!--MD5=[8593d6a5c3560d11be4b908e63e5dfbe]
link Race to AthleteCapacity--><g id="link_Race_AthleteCapacity"><path codeLine="41" d="M1057.6857,407.8147 C1057.6857,407.8147 1196.91,452.5269 1260.49,472.9569 " fill="none" id="Race-AthleteCapacity" style="stroke:#181818;stroke-width:1.0;"/><polygon fill="#181818" points="1272.89,476.9369,1265.548,470.3722,1268.1304,475.4052,1263.0974,477.9876,1272.89,476.9369" style="stroke:#181818;stroke-width:1.0;"/><line style="stroke:#181818;stroke-width:1.0;" x1="1268.1304" x2="1260.515" y1="475.4052" y2="472.9619"/><polygon fill="#181818" points="1046.26,404.1469,1050.7502,409.7894,1057.6857,407.8147,1053.1955,402.1722,1046.26,404.1469" style="stroke:#181818;stroke-width:1.0;"/></g><!--MD5=[edbfbe743c7fc77980287e7924ad1dd2]
link Race to Date--><g id="link_Race_Date"><path codeLine="42" d="M967.3687,409.5947 C967.3687,409.5947 853.22,451.9069 794.5,476.2969 C792.43,477.1569 790.33,478.0469 788.2,478.9569 " fill="none" id="Race-Date" style="stroke:#181818;stroke-width:1.0;"/><polygon fill="#181818" points="776.02,484.2769,785.8687,484.3286,780.5997,482.2702,782.658,477.0011,776.02,484.2769" style="stroke:#181818;stroke-width:1.0;"/><line style="stroke:#181818;stroke-width:1.0;" x1="780.5997" x2="787.935" y1="482.2702" y2="479.0719"/><polygon fill="#181818" points="978.64,405.4769,971.6317,403.7787,967.3687,409.5947,974.377,411.2929,978.64,405.4769" style="stroke:#181818;stroke-width:1.0;"/></g><!--MD5=[12d87157ab46e978eba99b31a6236695]
link Race to Location--><g id="link_Race_Location"><path codeLine="43" d="M968.7205,423.0352 C968.7205,423.0352 922.23,454.6369 901.37,468.8069 " fill="none" id="Race-Location" style="stroke:#181818;stroke-width:1.0;"/><polygon fill="#181818" points="890.55,476.1569,900.2432,474.413,894.6873,473.3492,895.751,467.7933,890.55,476.1569" style="stroke:#181818;stroke-width:1.0;"/><line style="stroke:#181818;stroke-width:1.0;" x1="894.6873" x2="901.305" y1="473.3492" y2="468.8519"/><polygon fill="#181818" points="978.65,416.2969,971.4391,416.3562,968.7205,423.0352,975.9314,422.9759,978.65,416.2969" style="stroke:#181818;stroke-width:1.0;"/></g><!--MD5=[705270ac592e1243045b327c48162558]
link Race to Type--><g id="link_Race_Type"><path codeLine="44" d="M1058.0169,398.9164 C1058.0169,398.9164 1298.53,434.3369 1429.5,476.2969 C1431.35,476.8869 1433.22,477.5269 1435.1,478.2069 " fill="none" id="Race-Type" style="stroke:#181818;stroke-width:1.0;"/><polygon fill="#181818" points="1447.46,483.0869,1440.5548,476.0642,1442.8086,481.2527,1437.6201,483.5064,1447.46,483.0869" style="stroke:#181818;stroke-width:1.0;"/><line style="stroke:#181818;stroke-width:1.0;" x1="1442.8086" x2="1435.37" y1="481.2527" y2="478.3119"/><polygon fill="#181818" points="1046.12,397.3469,1051.5453,402.0973,1058.0169,398.9164,1052.5916,394.166,1046.12,397.3469" style="stroke:#181818;stroke-width:1.0;"/></g><!--MD5=[f74ac41f8e65a460acd910897c37c7bb]
link Race to ApplicationPeriod--><g id="link_Race_ApplicationPeriod"><path codeLine="45" d="M1012.5,428.2969 C1012.5,428.2969 1012.5,451.9769 1012.5,462.6569 " fill="none" id="Race-ApplicationPeriod" style="stroke:#181818;stroke-width:1.0;"/><polygon fill="#181818" points="1012.5,475.9769,1016.5,466.9769,1012.5,470.9769,1008.5,466.9769,1012.5,475.9769" style="stroke:#181818;stroke-width:1.0;"/><line style="stroke:#181818;stroke-width:1.0;" x1="1012.5" x2="1012.5" y1="470.9769" y2="462.9769"/><polygon fill="#181818" points="1012.5,416.2969,1008.5,422.2969,1012.5,428.2969,1016.5,422.2969,1012.5,416.2969" style="stroke:#181818;stroke-width:1.0;"/></g><!--MD5=[e921ad57443782d0d4c22e7ab8201ebc]
link Race to Registration--><g id="link_Race_Registration"><path codeLine="46" d="M1056.2377,420.9018 C1056.2377,420.9018 1108.86,454.0969 1132.55,469.0469 " fill="none" id="Race-Registration" style="stroke:#181818;stroke-width:1.0;"/><polygon fill="#181818" points="1143.76,476.1169,1138.2842,467.9306,1139.5318,473.4481,1134.0142,474.6958,1143.76,476.1169" style="stroke:#181818;stroke-width:1.0;"/><line style="stroke:#181818;stroke-width:1.0;" x1="1139.5318" x2="1132.76" y1="473.4481" y2="469.1769"/><polygon fill="#181818" points="1046.09,414.4969,1049.0289,421.0819,1056.2377,420.9018,1053.2989,414.3168,1046.09,414.4969" style="stroke:#181818;stroke-width:1.0;"/></g><!--MD5=[b087527d04b27fae334fe5e89ff2b67a]
link Track to Race--><g id="link_Track_Race"><path codeLine="50" d="M761.68,184.8469 C804.88,195.5469 878.57,218.6469 928.5,260.2969 C962.37,288.5569 987.21,334.0469 1000.75,363.3069 " fill="none" id="Track-to-Race" style="stroke:#181818;stroke-width:1.0;"/><polygon fill="#181818" points="1002.83,367.8569,1002.71,358.0087,1000.7438,363.3129,995.4396,361.3467,1002.83,367.8569" style="stroke:#181818;stroke-width:1.0;"/></g><!--MD5=[723125675b31b30bd32f774e808b7585]
link Track to Athlete--><g id="link_Track_Athlete"><path codeLine="51" d="M761.73,176.2969 C846.12,176.2969 930.51,176.2969 1014.9,176.2969 " fill="none" id="Track-to-Athlete" style="stroke:#181818;stroke-width:1.0;"/><polygon fill="#181818" points="1019.94,176.2969,1010.94,172.2969,1014.94,176.2969,1010.94,180.2969,1019.94,176.2969" style="stroke:#181818;stroke-width:1.0;"/></g><!--MD5=[851c2e7e5fa863029b4e9568e74bd420]
link Track to AthleteRegistrationDate--><g id="link_Track_AthleteRegistrationDate"><path codeLine="52" d="M752.7221,209.6143 C752.7221,209.6143 775.11,237.2169 785.16,249.5969 " fill="none" id="Track-AthleteRegistrationDate" style="stroke:#181818;stroke-width:1.0;"/><polygon fill="#181818" points="793.58,259.9769,791.0208,250.4663,790.4318,256.0924,784.8057,255.5035,793.58,259.9769" style="stroke:#181818;stroke-width:1.0;"/><line style="stroke:#181818;stroke-width:1.0;" x1="790.4318" x2="785.385" y1="256.0924" y2="249.8819"/><polygon fill="#181818" points="745.16,200.2969,745.8353,207.4763,752.7221,209.6143,752.0469,202.4349,745.16,200.2969" style="stroke:#181818;stroke-width:1.0;"/></g><!--MD5=[860877463f0bc93f1df9bb1b1cf8e811]
link Track to Dorsal--><g id="link_Track_Dorsal"><path codeLine="53" d="M700.2779,209.6143 C700.2779,209.6143 677.89,237.2169 667.84,249.5969 " fill="none" id="Track-Dorsal" style="stroke:#181818;stroke-width:1.0;"/><polygon fill="#181818" points="659.42,259.9769,668.1943,255.5035,662.5682,256.0924,661.9792,250.4663,659.42,259.9769" style="stroke:#181818;stroke-width:1.0;"/><line style="stroke:#181818;stroke-width:1.0;" x1="662.5682" x2="667.615" y1="256.0924" y2="249.8819"/><polygon fill="#181818" points="707.84,200.2969,700.9531,202.4349,700.2779,209.6143,707.1647,207.4763,707.84,200.2969" style="stroke:#181818;stroke-width:1.0;"/></g><!--MD5=[8f38138bc2fa095b4f74145647d2aa62]
link Track to PaymentInfo--><g id="link_Track_PaymentInfo"><path codeLine="54" d="M680.6769,199.5719 C680.6769,199.5719 603.2,237.2469 568.07,254.3269 " fill="none" id="Track-PaymentInfo" style="stroke:#181818;stroke-width:1.0;"/><polygon fill="#181818" points="556.04,260.1769,565.883,259.8361,560.5361,257.9893,562.3829,252.6424,556.04,260.1769" style="stroke:#181818;stroke-width:1.0;"/><line style="stroke:#181818;stroke-width:1.0;" x1="560.5361" x2="567.73" y1="257.9893" y2="254.4969"/><polygon fill="#181818" points="691.47,194.3269,684.3251,193.3517,680.6769,199.5719,687.8218,200.5471,691.47,194.3269" style="stroke:#181818;stroke-width:1.0;"/></g><!--MD5=[fb53a1de847ab9694106a812d68be1ce]
link Track to Score--><g id="link_Track_Score"><path codeLine="55" d="M679.5498,188.5931 C679.5498,188.5931 517.65,230.2769 432.5,260.2969 C430.58,260.9769 428.62,261.6869 426.66,262.4269 " fill="none" id="Track-Score" style="stroke:#181818;stroke-width:1.0;"/><polygon fill="#181818" points="414.56,267.1869,424.3997,267.6125,419.2126,265.3556,421.4695,260.1684,414.56,267.1869" style="stroke:#181818;stroke-width:1.0;"/><line style="stroke:#181818;stroke-width:1.0;" x1="419.2126" x2="426.655" y1="265.3556" y2="262.4269"/><polygon fill="#181818" points="691.2,185.7169,684.4161,183.2716,679.5498,188.5931,686.3337,191.0384,691.2,185.7169" style="stroke:#181818;stroke-width:1.0;"/></g><!--MD5=[c0294b685351dc9ae42d4cf001b7cc06]
link Registration to RegistrationType--><g id="link_Registration_RegistrationType"><path codeLine="57" d="M1130.1723,530.2875 C1130.1723,530.2875 1073.46,562.9569 1048.23,577.4969 " fill="none" id="Registration-RegistrationType" style="stroke:#181818;stroke-width:1.0;"/><polygon fill="#181818" points="1036.66,584.1569,1046.4552,583.1299,1040.9924,581.6608,1042.4614,576.198,1036.66,584.1569" style="stroke:#181818;stroke-width:1.0;"/><line style="stroke:#181818;stroke-width:1.0;" x1="1040.9924" x2="1047.93" y1="581.6608" y2="577.6669"/><polygon fill="#181818" points="1140.57,524.2969,1133.3743,523.8262,1130.1723,530.2875,1137.368,530.7581,1140.57,524.2969" style="stroke:#181818;stroke-width:1.0;"/></g><!--MD5=[99fb3c277457517443938aee0727aee3]
link Registration to RegistrationDate--><g id="link_Registration_RegistrationDate"><path codeLine="58" d="M1180.5,536.2969 C1180.5,536.2969 1180.5,559.9769 1180.5,570.6569 " fill="none" id="Registration-RegistrationDate" style="stroke:#181818;stroke-width:1.0;"/><polygon fill="#181818" points="1180.5,583.9769,1184.5,574.9769,1180.5,578.9769,1176.5,574.9769,1180.5,583.9769" style="stroke:#181818;stroke-width:1.0;"/><line style="stroke:#181818;stroke-width:1.0;" x1="1180.5" x2="1180.5" y1="578.9769" y2="570.9769"/><polygon fill="#181818" points="1180.5,524.2969,1176.5,530.2969,1180.5,536.2969,1184.5,530.2969,1180.5,524.2969" style="stroke:#181818;stroke-width:1.0;"/></g><!--MD5=[87910c30f36841c7ddeb6ecc215d01aa]
link Registration to RegistrationCost--><g id="link_Registration_RegistrationCost"><path codeLine="59" d="M1230.593,530.313 C1230.593,530.313 1286.96,562.9569 1312.05,577.4969 " fill="none" id="Registration-RegistrationCost" style="stroke:#181818;stroke-width:1.0;"/><polygon fill="#181818" points="1323.55,584.1569,1317.7757,576.1783,1319.2261,581.6461,1313.7584,583.0965,1323.55,584.1569" style="stroke:#181818;stroke-width:1.0;"/><line style="stroke:#181818;stroke-width:1.0;" x1="1319.2261" x2="1312.305" y1="581.6461" y2="577.6419"/><polygon fill="#181818" points="1220.21,524.2969,1223.3961,530.7659,1230.593,530.313,1227.4069,523.8439,1220.21,524.2969" style="stroke:#181818;stroke-width:1.0;"/></g><!--MD5=[f7e2771519c667b35b8ad02ef916a1c2]
reverse link RegistrationType to ByDrawing--><g id="link_RegistrationType_ByDrawing"><path codeLine="61" d="M971.51,649.4269 C962.57,663.7969 952.79,679.5069 945.02,691.9769 " fill="none" id="RegistrationType-backto-ByDrawing" style="stroke:#181818;stroke-width:1.0;"/><polygon fill="none" points="965.67,645.5769,982.18,632.2969,977.55,652.9769,965.67,645.5769" style="stroke:#181818;stroke-width:1.0;"/></g><!--MD5=[56cec7f2b86664aedea991e86d33f179]
reverse link RegistrationType to ByOrder--><g id="link_RegistrationType_ByOrder"><path codeLine="62" d="M1021.49,649.4269 C1030.43,663.7969 1040.21,679.5069 1047.98,691.9769 " fill="none" id="RegistrationType-backto-ByOrder" style="stroke:#181818;stroke-width:1.0;"/><polygon fill="none" points="1015.45,652.9769,1010.82,632.2969,1027.33,645.5769,1015.45,652.9769" style="stroke:#181818;stroke-width:1.0;"/></g><!--MD5=[23dcb61a6fdfba41b802371b814cd918]
link Organizer to Suscription--><g id="link_Organizer_Suscription"><path codeLine="65" d="M234.64,200.2969 C213.78,216.9169 185.56,239.4169 163.76,256.7969 " fill="none" id="Organizer-to-Suscription" style="stroke:#181818;stroke-width:1.0;"/><polygon fill="#181818" points="159.76,259.9769,169.2933,257.5036,163.6727,256.8639,164.3124,251.2433,159.76,259.9769" style="stroke:#181818;stroke-width:1.0;"/></g><!--MD5=[ff78ebb6534bc6ad3ae500b763f73a29]
link Suscription to ConcurrentRequestsThreshold--><g id="link_Suscription_ConcurrentRequestsThreshold"><path codeLine="66" d="M130.5,320.2969 C130.5,320.2969 130.5,343.9769 130.5,354.6569 " fill="none" id="Suscription-ConcurrentRequestsThreshold" style="stroke:#181818;stroke-width:1.0;"/><polygon fill="#181818" points="130.5,367.9769,134.5,358.9769,130.5,362.9769,126.5,358.9769,130.5,367.9769" style="stroke:#181818;stroke-width:1.0;"/><line style="stroke:#181818;stroke-width:1.0;" x1="130.5" x2="130.5" y1="362.9769" y2="354.9769"/><polygon fill="#181818" points="130.5,308.2969,126.5,314.2969,130.5,320.2969,134.5,314.2969,130.5,308.2969" style="stroke:#181818;stroke-width:1.0;"/></g><!--MD5=[7e2cfce8528c568e57830ba3aed57667]
@startuml
title Your Race - Domain Model

class YourRace
class Athlete
class Organizer
class Race
class Track
class Distance
class Date
class Location
class Consult
class Manage
class Apply
class Score
class PaymentInfo
class Dorsal
class ApplicationPeriod
class TrackRecord
class Suscription
class Registration

YourRace *- -> Athlete
YourRace *- -> Organizer

Organizer - -> Manage

Athlete ..> Apply
Athlete - -> Consult
Athlete *- -> TrackRecord

Apply *- -> ApplicationCode

Apply ..> Race

Consult - -> Race

Manage - -> Race


Race *- -> Distance
Race *- -> AthleteCapacity
Race *- -> Date
Race *- -> Location
Race *- -> Type
Race *- -> ApplicationPeriod
Race *- -> Registration



Track -right-> Race 
Track -right-> Athlete 
Track *- -> AthleteRegistrationDate
Track *- -> Dorsal
Track *- -> PaymentInfo
Track *- -> Score

Registration *- -> RegistrationType
Registration *- -> RegistrationDate
Registration *- -> RegistrationCost

RegistrationType <|- - ByDrawing
RegistrationType <|- - ByOrder


Organizer - -> Suscription
Suscription *- -> ConcurrentRequestsThreshold


@enduml

PlantUML version 1.2022.7(Mon Aug 22 19:01:30 CEST 2022)
(GPL source distribution)
Java Runtime: Java(TM) SE Runtime Environment
JVM: Java HotSpot(TM) 64-Bit Server VM
Default Encoding: UTF-8
Language: en
Country: US
--></g></svg>