<?xml version="1.0" encoding="UTF-8" standalone="no"?><svg xmlns="http://www.w3.org/2000/svg" xmlns:xlink="http://www.w3.org/1999/xlink" contentStyleType="text/css" height="639px" preserveAspectRatio="none" style="width:1403px;height:639px;background:#FFFFFF;" version="1.1" viewBox="0 0 1403 639" width="1403px" zoomAndPan="magnify"><defs/><g><rect height="26.2969" id="_title" style="stroke:#00000000;stroke-width:1.0;fill:none;" width="221" x="584.25" y="5"/><text fill="#000000" font-family="sans-serif" font-size="14" font-weight="bold" lengthAdjust="spacing" textLength="211" x="589.25" y="22.9951">Your Race - Domain Model</text><!--MD5=[27e1e7f9c4820a0277e6c5de2c4c6668]
class YourRace--><g id="elem_YourRace"><rect codeLine="3" fill="#F1F1F1" height="48" id="YourRace" rx="2.5" ry="2.5" style="stroke:#181818;stroke-width:0.5;" width="99" x="654" y="44.2969"/><ellipse cx="669" cy="60.2969" fill="#ADD1B2" rx="11" ry="11" style="stroke:#181818;stroke-width:1.0;"/><path d="M671.3438,55.9688 C670.4063,55.5313 669.8125,55.3906 668.9375,55.3906 C666.3125,55.3906 664.3125,57.4688 664.3125,60.1875 L664.3125,61.3125 C664.3125,63.8906 666.4219,65.7813 669.3125,65.7813 C670.5313,65.7813 671.6875,65.4844 672.4375,64.9375 C673.0156,64.5313 673.3438,64.0781 673.3438,63.6875 C673.3438,63.2344 672.9531,62.8438 672.4844,62.8438 C672.2656,62.8438 672.0625,62.9219 671.875,63.1094 C671.4219,63.5938 671.4219,63.5938 671.2344,63.6875 C670.8125,63.9531 670.125,64.0781 669.3594,64.0781 C667.3125,64.0781 666.0156,62.9844 666.0156,61.2813 L666.0156,60.1875 C666.0156,58.4063 667.2656,57.0938 669,57.0938 C669.5781,57.0938 670.1875,57.25 670.6563,57.5 C671.1406,57.7813 671.3125,58 671.4063,58.4063 C671.4688,58.8125 671.5,58.9375 671.6406,59.0625 C671.7813,59.2031 672.0156,59.3125 672.2344,59.3125 C672.5,59.3125 672.7656,59.1719 672.9375,58.9531 C673.0469,58.7969 673.0781,58.6094 673.0781,58.1875 L673.0781,56.7656 C673.0781,56.3281 673.0625,56.2031 672.9688,56.0469 C672.8125,55.7813 672.5313,55.6406 672.2344,55.6406 C671.9375,55.6406 671.7344,55.7344 671.5156,56.0469 L671.3438,55.9688 Z " fill="#000000"/><text fill="#000000" font-family="sans-serif" font-size="14" lengthAdjust="spacing" textLength="67" x="683" y="65.1436">YourRace</text><line style="stroke:#181818;stroke-width:0.5;" x1="655" x2="752" y1="76.2969" y2="76.2969"/><line style="stroke:#181818;stroke-width:0.5;" x1="655" x2="752" y1="84.2969" y2="84.2969"/></g><!--MD5=[069cecb0f107147f35d50ee2cc41a241]
class Athlete--><g id="elem_Athlete"><rect codeLine="4" fill="#F1F1F1" height="48" id="Athlete" rx="2.5" ry="2.5" style="stroke:#181818;stroke-width:0.5;" width="87" x="496" y="152.2969"/><ellipse cx="511" cy="168.2969" fill="#ADD1B2" rx="11" ry="11" style="stroke:#181818;stroke-width:1.0;"/><path d="M513.3438,163.9688 C512.4063,163.5313 511.8125,163.3906 510.9375,163.3906 C508.3125,163.3906 506.3125,165.4688 506.3125,168.1875 L506.3125,169.3125 C506.3125,171.8906 508.4219,173.7813 511.3125,173.7813 C512.5313,173.7813 513.6875,173.4844 514.4375,172.9375 C515.0156,172.5313 515.3438,172.0781 515.3438,171.6875 C515.3438,171.2344 514.9531,170.8438 514.4844,170.8438 C514.2656,170.8438 514.0625,170.9219 513.875,171.1094 C513.4219,171.5938 513.4219,171.5938 513.2344,171.6875 C512.8125,171.9531 512.125,172.0781 511.3594,172.0781 C509.3125,172.0781 508.0156,170.9844 508.0156,169.2813 L508.0156,168.1875 C508.0156,166.4063 509.2656,165.0938 511,165.0938 C511.5781,165.0938 512.1875,165.25 512.6563,165.5 C513.1406,165.7813 513.3125,166 513.4063,166.4063 C513.4688,166.8125 513.5,166.9375 513.6406,167.0625 C513.7813,167.2031 514.0156,167.3125 514.2344,167.3125 C514.5,167.3125 514.7656,167.1719 514.9375,166.9531 C515.0469,166.7969 515.0781,166.6094 515.0781,166.1875 L515.0781,164.7656 C515.0781,164.3281 515.0625,164.2031 514.9688,164.0469 C514.8125,163.7813 514.5313,163.6406 514.2344,163.6406 C513.9375,163.6406 513.7344,163.7344 513.5156,164.0469 L513.3438,163.9688 Z " fill="#000000"/><text fill="#000000" font-family="sans-serif" font-size="14" lengthAdjust="spacing" textLength="55" x="525" y="173.1436">Athlete</text><line style="stroke:#181818;stroke-width:0.5;" x1="497" x2="582" y1="184.2969" y2="184.2969"/><line style="stroke:#181818;stroke-width:0.5;" x1="497" x2="582" y1="192.2969" y2="192.2969"/></g><!--MD5=[c943b7297f25d0ee4f831707c42d3ae4]
class Organizer--><g id="elem_Organizer"><rect codeLine="5" fill="#F1F1F1" height="48" id="Organizer" rx="2.5" ry="2.5" style="stroke:#181818;stroke-width:0.5;" width="102" x="816.5" y="152.2969"/><ellipse cx="831.5" cy="168.2969" fill="#ADD1B2" rx="11" ry="11" style="stroke:#181818;stroke-width:1.0;"/><path d="M833.8438,163.9688 C832.9063,163.5313 832.3125,163.3906 831.4375,163.3906 C828.8125,163.3906 826.8125,165.4688 826.8125,168.1875 L826.8125,169.3125 C826.8125,171.8906 828.9219,173.7813 831.8125,173.7813 C833.0313,173.7813 834.1875,173.4844 834.9375,172.9375 C835.5156,172.5313 835.8438,172.0781 835.8438,171.6875 C835.8438,171.2344 835.4531,170.8438 834.9844,170.8438 C834.7656,170.8438 834.5625,170.9219 834.375,171.1094 C833.9219,171.5938 833.9219,171.5938 833.7344,171.6875 C833.3125,171.9531 832.625,172.0781 831.8594,172.0781 C829.8125,172.0781 828.5156,170.9844 828.5156,169.2813 L828.5156,168.1875 C828.5156,166.4063 829.7656,165.0938 831.5,165.0938 C832.0781,165.0938 832.6875,165.25 833.1563,165.5 C833.6406,165.7813 833.8125,166 833.9063,166.4063 C833.9688,166.8125 834,166.9375 834.1406,167.0625 C834.2813,167.2031 834.5156,167.3125 834.7344,167.3125 C835,167.3125 835.2656,167.1719 835.4375,166.9531 C835.5469,166.7969 835.5781,166.6094 835.5781,166.1875 L835.5781,164.7656 C835.5781,164.3281 835.5625,164.2031 835.4688,164.0469 C835.3125,163.7813 835.0313,163.6406 834.7344,163.6406 C834.4375,163.6406 834.2344,163.7344 834.0156,164.0469 L833.8438,163.9688 Z " fill="#000000"/><text fill="#000000" font-family="sans-serif" font-size="14" lengthAdjust="spacing" textLength="70" x="845.5" y="173.1436">Organizer</text><line style="stroke:#181818;stroke-width:0.5;" x1="817.5" x2="917.5" y1="184.2969" y2="184.2969"/><line style="stroke:#181818;stroke-width:0.5;" x1="817.5" x2="917.5" y1="192.2969" y2="192.2969"/></g><!--MD5=[02529dc4f79219f8425437af1389750d]
class Race--><g id="elem_Race"><rect codeLine="6" fill="#F1F1F1" height="48" id="Race" rx="2.5" ry="2.5" style="stroke:#181818;stroke-width:0.5;" width="67" x="372" y="368.2969"/><ellipse cx="387" cy="384.2969" fill="#ADD1B2" rx="11" ry="11" style="stroke:#181818;stroke-width:1.0;"/><path d="M389.3438,379.9688 C388.4063,379.5313 387.8125,379.3906 386.9375,379.3906 C384.3125,379.3906 382.3125,381.4688 382.3125,384.1875 L382.3125,385.3125 C382.3125,387.8906 384.4219,389.7813 387.3125,389.7813 C388.5313,389.7813 389.6875,389.4844 390.4375,388.9375 C391.0156,388.5313 391.3438,388.0781 391.3438,387.6875 C391.3438,387.2344 390.9531,386.8438 390.4844,386.8438 C390.2656,386.8438 390.0625,386.9219 389.875,387.1094 C389.4219,387.5938 389.4219,387.5938 389.2344,387.6875 C388.8125,387.9531 388.125,388.0781 387.3594,388.0781 C385.3125,388.0781 384.0156,386.9844 384.0156,385.2813 L384.0156,384.1875 C384.0156,382.4063 385.2656,381.0938 387,381.0938 C387.5781,381.0938 388.1875,381.25 388.6563,381.5 C389.1406,381.7813 389.3125,382 389.4063,382.4063 C389.4688,382.8125 389.5,382.9375 389.6406,383.0625 C389.7813,383.2031 390.0156,383.3125 390.2344,383.3125 C390.5,383.3125 390.7656,383.1719 390.9375,382.9531 C391.0469,382.7969 391.0781,382.6094 391.0781,382.1875 L391.0781,380.7656 C391.0781,380.3281 391.0625,380.2031 390.9688,380.0469 C390.8125,379.7813 390.5313,379.6406 390.2344,379.6406 C389.9375,379.6406 389.7344,379.7344 389.5156,380.0469 L389.3438,379.9688 Z " fill="#000000"/><text fill="#000000" font-family="sans-serif" font-size="14" lengthAdjust="spacing" textLength="35" x="401" y="389.1436">Race</text><line style="stroke:#181818;stroke-width:0.5;" x1="373" x2="438" y1="400.2969" y2="400.2969"/><line style="stroke:#181818;stroke-width:0.5;" x1="373" x2="438" y1="408.2969" y2="408.2969"/></g><!--MD5=[1537e7b3e760210491ed7d5f83b83174]
class Registration--><g id="elem_Registration"><rect codeLine="7" fill="#F1F1F1" height="48" id="Registration" rx="2.5" ry="2.5" style="stroke:#181818;stroke-width:0.5;" width="121" x="914" y="368.2969"/><ellipse cx="929" cy="384.2969" fill="#ADD1B2" rx="11" ry="11" style="stroke:#181818;stroke-width:1.0;"/><path d="M931.3438,379.9688 C930.4063,379.5313 929.8125,379.3906 928.9375,379.3906 C926.3125,379.3906 924.3125,381.4688 924.3125,384.1875 L924.3125,385.3125 C924.3125,387.8906 926.4219,389.7813 929.3125,389.7813 C930.5313,389.7813 931.6875,389.4844 932.4375,388.9375 C933.0156,388.5313 933.3438,388.0781 933.3438,387.6875 C933.3438,387.2344 932.9531,386.8438 932.4844,386.8438 C932.2656,386.8438 932.0625,386.9219 931.875,387.1094 C931.4219,387.5938 931.4219,387.5938 931.2344,387.6875 C930.8125,387.9531 930.125,388.0781 929.3594,388.0781 C927.3125,388.0781 926.0156,386.9844 926.0156,385.2813 L926.0156,384.1875 C926.0156,382.4063 927.2656,381.0938 929,381.0938 C929.5781,381.0938 930.1875,381.25 930.6563,381.5 C931.1406,381.7813 931.3125,382 931.4063,382.4063 C931.4688,382.8125 931.5,382.9375 931.6406,383.0625 C931.7813,383.2031 932.0156,383.3125 932.2344,383.3125 C932.5,383.3125 932.7656,383.1719 932.9375,382.9531 C933.0469,382.7969 933.0781,382.6094 933.0781,382.1875 L933.0781,380.7656 C933.0781,380.3281 933.0625,380.2031 932.9688,380.0469 C932.8125,379.7813 932.5313,379.6406 932.2344,379.6406 C931.9375,379.6406 931.7344,379.7344 931.5156,380.0469 L931.3438,379.9688 Z " fill="#000000"/><text fill="#000000" font-family="sans-serif" font-size="14" lengthAdjust="spacing" textLength="89" x="943" y="389.1436">Registration</text><line style="stroke:#181818;stroke-width:0.5;" x1="915" x2="1034" y1="400.2969" y2="400.2969"/><line style="stroke:#181818;stroke-width:0.5;" x1="915" x2="1034" y1="408.2969" y2="408.2969"/></g><!--MD5=[cc15daeb8b4e6bacf34831777829d2c1]
class Distance--><g id="elem_Distance"><rect codeLine="8" fill="#F1F1F1" height="48" id="Distance" rx="2.5" ry="2.5" style="stroke:#181818;stroke-width:0.5;" width="95" x="7" y="476.2969"/><ellipse cx="22" cy="492.2969" fill="#ADD1B2" rx="11" ry="11" style="stroke:#181818;stroke-width:1.0;"/><path d="M24.3438,487.9688 C23.4063,487.5313 22.8125,487.3906 21.9375,487.3906 C19.3125,487.3906 17.3125,489.4688 17.3125,492.1875 L17.3125,493.3125 C17.3125,495.8906 19.4219,497.7813 22.3125,497.7813 C23.5313,497.7813 24.6875,497.4844 25.4375,496.9375 C26.0156,496.5313 26.3438,496.0781 26.3438,495.6875 C26.3438,495.2344 25.9531,494.8438 25.4844,494.8438 C25.2656,494.8438 25.0625,494.9219 24.875,495.1094 C24.4219,495.5938 24.4219,495.5938 24.2344,495.6875 C23.8125,495.9531 23.125,496.0781 22.3594,496.0781 C20.3125,496.0781 19.0156,494.9844 19.0156,493.2813 L19.0156,492.1875 C19.0156,490.4063 20.2656,489.0938 22,489.0938 C22.5781,489.0938 23.1875,489.25 23.6563,489.5 C24.1406,489.7813 24.3125,490 24.4063,490.4063 C24.4688,490.8125 24.5,490.9375 24.6406,491.0625 C24.7813,491.2031 25.0156,491.3125 25.2344,491.3125 C25.5,491.3125 25.7656,491.1719 25.9375,490.9531 C26.0469,490.7969 26.0781,490.6094 26.0781,490.1875 L26.0781,488.7656 C26.0781,488.3281 26.0625,488.2031 25.9688,488.0469 C25.8125,487.7813 25.5313,487.6406 25.2344,487.6406 C24.9375,487.6406 24.7344,487.7344 24.5156,488.0469 L24.3438,487.9688 Z " fill="#000000"/><text fill="#000000" font-family="sans-serif" font-size="14" lengthAdjust="spacing" textLength="63" x="36" y="497.1436">Distance</text><line style="stroke:#181818;stroke-width:0.5;" x1="8" x2="101" y1="508.2969" y2="508.2969"/><line style="stroke:#181818;stroke-width:0.5;" x1="8" x2="101" y1="516.2969" y2="516.2969"/></g><!--MD5=[7829b64950ce38e0487c4015ea331f97]
class Date--><g id="elem_Date"><rect codeLine="9" fill="#F1F1F1" height="48" id="Date" rx="2.5" ry="2.5" style="stroke:#181818;stroke-width:0.5;" width="67" x="137" y="476.2969"/><ellipse cx="152" cy="492.2969" fill="#ADD1B2" rx="11" ry="11" style="stroke:#181818;stroke-width:1.0;"/><path d="M154.3438,487.9688 C153.4063,487.5313 152.8125,487.3906 151.9375,487.3906 C149.3125,487.3906 147.3125,489.4688 147.3125,492.1875 L147.3125,493.3125 C147.3125,495.8906 149.4219,497.7813 152.3125,497.7813 C153.5313,497.7813 154.6875,497.4844 155.4375,496.9375 C156.0156,496.5313 156.3438,496.0781 156.3438,495.6875 C156.3438,495.2344 155.9531,494.8438 155.4844,494.8438 C155.2656,494.8438 155.0625,494.9219 154.875,495.1094 C154.4219,495.5938 154.4219,495.5938 154.2344,495.6875 C153.8125,495.9531 153.125,496.0781 152.3594,496.0781 C150.3125,496.0781 149.0156,494.9844 149.0156,493.2813 L149.0156,492.1875 C149.0156,490.4063 150.2656,489.0938 152,489.0938 C152.5781,489.0938 153.1875,489.25 153.6563,489.5 C154.1406,489.7813 154.3125,490 154.4063,490.4063 C154.4688,490.8125 154.5,490.9375 154.6406,491.0625 C154.7813,491.2031 155.0156,491.3125 155.2344,491.3125 C155.5,491.3125 155.7656,491.1719 155.9375,490.9531 C156.0469,490.7969 156.0781,490.6094 156.0781,490.1875 L156.0781,488.7656 C156.0781,488.3281 156.0625,488.2031 155.9688,488.0469 C155.8125,487.7813 155.5313,487.6406 155.2344,487.6406 C154.9375,487.6406 154.7344,487.7344 154.5156,488.0469 L154.3438,487.9688 Z " fill="#000000"/><text fill="#000000" font-family="sans-serif" font-size="14" lengthAdjust="spacing" textLength="35" x="166" y="497.1436">Date</text><line style="stroke:#181818;stroke-width:0.5;" x1="138" x2="203" y1="508.2969" y2="508.2969"/><line style="stroke:#181818;stroke-width:0.5;" x1="138" x2="203" y1="516.2969" y2="516.2969"/></g><!--MD5=[4f1f3706c1a355a8488e154afcaed5df]
class Location--><g id="elem_Location"><rect codeLine="10" fill="#F1F1F1" height="48" id="Location" rx="2.5" ry="2.5" style="stroke:#181818;stroke-width:0.5;" width="94" x="239.5" y="476.2969"/><ellipse cx="254.5" cy="492.2969" fill="#ADD1B2" rx="11" ry="11" style="stroke:#181818;stroke-width:1.0;"/><path d="M256.8438,487.9688 C255.9063,487.5313 255.3125,487.3906 254.4375,487.3906 C251.8125,487.3906 249.8125,489.4688 249.8125,492.1875 L249.8125,493.3125 C249.8125,495.8906 251.9219,497.7813 254.8125,497.7813 C256.0313,497.7813 257.1875,497.4844 257.9375,496.9375 C258.5156,496.5313 258.8438,496.0781 258.8438,495.6875 C258.8438,495.2344 258.4531,494.8438 257.9844,494.8438 C257.7656,494.8438 257.5625,494.9219 257.375,495.1094 C256.9219,495.5938 256.9219,495.5938 256.7344,495.6875 C256.3125,495.9531 255.625,496.0781 254.8594,496.0781 C252.8125,496.0781 251.5156,494.9844 251.5156,493.2813 L251.5156,492.1875 C251.5156,490.4063 252.7656,489.0938 254.5,489.0938 C255.0781,489.0938 255.6875,489.25 256.1563,489.5 C256.6406,489.7813 256.8125,490 256.9063,490.4063 C256.9688,490.8125 257,490.9375 257.1406,491.0625 C257.2813,491.2031 257.5156,491.3125 257.7344,491.3125 C258,491.3125 258.2656,491.1719 258.4375,490.9531 C258.5469,490.7969 258.5781,490.6094 258.5781,490.1875 L258.5781,488.7656 C258.5781,488.3281 258.5625,488.2031 258.4688,488.0469 C258.3125,487.7813 258.0313,487.6406 257.7344,487.6406 C257.4375,487.6406 257.2344,487.7344 257.0156,488.0469 L256.8438,487.9688 Z " fill="#000000"/><text fill="#000000" font-family="sans-serif" font-size="14" lengthAdjust="spacing" textLength="62" x="268.5" y="497.1436">Location</text><line style="stroke:#181818;stroke-width:0.5;" x1="240.5" x2="332.5" y1="508.2969" y2="508.2969"/><line style="stroke:#181818;stroke-width:0.5;" x1="240.5" x2="332.5" y1="516.2969" y2="516.2969"/></g><!--MD5=[1582a1ceb3054ea3298fac38767ea8e7]
class Consult--><g id="elem_Consult"><rect codeLine="11" fill="#F1F1F1" height="48" id="Consult" rx="2.5" ry="2.5" style="stroke:#181818;stroke-width:0.5;" width="86" x="247.5" y="260.2969"/><ellipse cx="262.5" cy="276.2969" fill="#ADD1B2" rx="11" ry="11" style="stroke:#181818;stroke-width:1.0;"/><path d="M264.8438,271.9688 C263.9063,271.5313 263.3125,271.3906 262.4375,271.3906 C259.8125,271.3906 257.8125,273.4688 257.8125,276.1875 L257.8125,277.3125 C257.8125,279.8906 259.9219,281.7813 262.8125,281.7813 C264.0313,281.7813 265.1875,281.4844 265.9375,280.9375 C266.5156,280.5313 266.8438,280.0781 266.8438,279.6875 C266.8438,279.2344 266.4531,278.8438 265.9844,278.8438 C265.7656,278.8438 265.5625,278.9219 265.375,279.1094 C264.9219,279.5938 264.9219,279.5938 264.7344,279.6875 C264.3125,279.9531 263.625,280.0781 262.8594,280.0781 C260.8125,280.0781 259.5156,278.9844 259.5156,277.2813 L259.5156,276.1875 C259.5156,274.4063 260.7656,273.0938 262.5,273.0938 C263.0781,273.0938 263.6875,273.25 264.1563,273.5 C264.6406,273.7813 264.8125,274 264.9063,274.4063 C264.9688,274.8125 265,274.9375 265.1406,275.0625 C265.2813,275.2031 265.5156,275.3125 265.7344,275.3125 C266,275.3125 266.2656,275.1719 266.4375,274.9531 C266.5469,274.7969 266.5781,274.6094 266.5781,274.1875 L266.5781,272.7656 C266.5781,272.3281 266.5625,272.2031 266.4688,272.0469 C266.3125,271.7813 266.0313,271.6406 265.7344,271.6406 C265.4375,271.6406 265.2344,271.7344 265.0156,272.0469 L264.8438,271.9688 Z " fill="#000000"/><text fill="#000000" font-family="sans-serif" font-size="14" lengthAdjust="spacing" textLength="54" x="276.5" y="281.1436">Consult</text><line style="stroke:#181818;stroke-width:0.5;" x1="248.5" x2="332.5" y1="292.2969" y2="292.2969"/><line style="stroke:#181818;stroke-width:0.5;" x1="248.5" x2="332.5" y1="300.2969" y2="300.2969"/></g><!--MD5=[ae82a2da8b56c6226c99c86cebc2591c]
class Manage--><g id="elem_Manage"><rect codeLine="12" fill="#F1F1F1" height="48" id="Manage" rx="2.5" ry="2.5" style="stroke:#181818;stroke-width:0.5;" width="87" x="824" y="260.2969"/><ellipse cx="839" cy="276.2969" fill="#ADD1B2" rx="11" ry="11" style="stroke:#181818;stroke-width:1.0;"/><path d="M841.3438,271.9688 C840.4063,271.5313 839.8125,271.3906 838.9375,271.3906 C836.3125,271.3906 834.3125,273.4688 834.3125,276.1875 L834.3125,277.3125 C834.3125,279.8906 836.4219,281.7813 839.3125,281.7813 C840.5313,281.7813 841.6875,281.4844 842.4375,280.9375 C843.0156,280.5313 843.3438,280.0781 843.3438,279.6875 C843.3438,279.2344 842.9531,278.8438 842.4844,278.8438 C842.2656,278.8438 842.0625,278.9219 841.875,279.1094 C841.4219,279.5938 841.4219,279.5938 841.2344,279.6875 C840.8125,279.9531 840.125,280.0781 839.3594,280.0781 C837.3125,280.0781 836.0156,278.9844 836.0156,277.2813 L836.0156,276.1875 C836.0156,274.4063 837.2656,273.0938 839,273.0938 C839.5781,273.0938 840.1875,273.25 840.6563,273.5 C841.1406,273.7813 841.3125,274 841.4063,274.4063 C841.4688,274.8125 841.5,274.9375 841.6406,275.0625 C841.7813,275.2031 842.0156,275.3125 842.2344,275.3125 C842.5,275.3125 842.7656,275.1719 842.9375,274.9531 C843.0469,274.7969 843.0781,274.6094 843.0781,274.1875 L843.0781,272.7656 C843.0781,272.3281 843.0625,272.2031 842.9688,272.0469 C842.8125,271.7813 842.5313,271.6406 842.2344,271.6406 C841.9375,271.6406 841.7344,271.7344 841.5156,272.0469 L841.3438,271.9688 Z " fill="#000000"/><text fill="#000000" font-family="sans-serif" font-size="14" lengthAdjust="spacing" textLength="55" x="853" y="281.1436">Manage</text><line style="stroke:#181818;stroke-width:0.5;" x1="825" x2="910" y1="292.2969" y2="292.2969"/><line style="stroke:#181818;stroke-width:0.5;" x1="825" x2="910" y1="300.2969" y2="300.2969"/></g><!--MD5=[6584eb4189611289abbb06941f844685]
class Apply--><g id="elem_Apply"><rect codeLine="13" fill="#F1F1F1" height="48" id="Apply" rx="2.5" ry="2.5" style="stroke:#181818;stroke-width:0.5;" width="74" x="368.5" y="260.2969"/><ellipse cx="383.5" cy="276.2969" fill="#ADD1B2" rx="11" ry="11" style="stroke:#181818;stroke-width:1.0;"/><path d="M385.8438,271.9688 C384.9063,271.5313 384.3125,271.3906 383.4375,271.3906 C380.8125,271.3906 378.8125,273.4688 378.8125,276.1875 L378.8125,277.3125 C378.8125,279.8906 380.9219,281.7813 383.8125,281.7813 C385.0313,281.7813 386.1875,281.4844 386.9375,280.9375 C387.5156,280.5313 387.8438,280.0781 387.8438,279.6875 C387.8438,279.2344 387.4531,278.8438 386.9844,278.8438 C386.7656,278.8438 386.5625,278.9219 386.375,279.1094 C385.9219,279.5938 385.9219,279.5938 385.7344,279.6875 C385.3125,279.9531 384.625,280.0781 383.8594,280.0781 C381.8125,280.0781 380.5156,278.9844 380.5156,277.2813 L380.5156,276.1875 C380.5156,274.4063 381.7656,273.0938 383.5,273.0938 C384.0781,273.0938 384.6875,273.25 385.1563,273.5 C385.6406,273.7813 385.8125,274 385.9063,274.4063 C385.9688,274.8125 386,274.9375 386.1406,275.0625 C386.2813,275.2031 386.5156,275.3125 386.7344,275.3125 C387,275.3125 387.2656,275.1719 387.4375,274.9531 C387.5469,274.7969 387.5781,274.6094 387.5781,274.1875 L387.5781,272.7656 C387.5781,272.3281 387.5625,272.2031 387.4688,272.0469 C387.3125,271.7813 387.0313,271.6406 386.7344,271.6406 C386.4375,271.6406 386.2344,271.7344 386.0156,272.0469 L385.8438,271.9688 Z " fill="#000000"/><text fill="#000000" font-family="sans-serif" font-size="14" lengthAdjust="spacing" textLength="42" x="397.5" y="281.1436">Apply</text><line style="stroke:#181818;stroke-width:0.5;" x1="369.5" x2="441.5" y1="292.2969" y2="292.2969"/><line style="stroke:#181818;stroke-width:0.5;" x1="369.5" x2="441.5" y1="300.2969" y2="300.2969"/></g><!--MD5=[107af66394bf1ebaa045812c9c475148]
class Score--><g id="elem_Score"><rect codeLine="14" fill="#F1F1F1" height="48" id="Score" rx="2.5" ry="2.5" style="stroke:#181818;stroke-width:0.5;" width="73" x="369" y="476.2969"/><ellipse cx="384" cy="492.2969" fill="#ADD1B2" rx="11" ry="11" style="stroke:#181818;stroke-width:1.0;"/><path d="M386.3438,487.9688 C385.4063,487.5313 384.8125,487.3906 383.9375,487.3906 C381.3125,487.3906 379.3125,489.4688 379.3125,492.1875 L379.3125,493.3125 C379.3125,495.8906 381.4219,497.7813 384.3125,497.7813 C385.5313,497.7813 386.6875,497.4844 387.4375,496.9375 C388.0156,496.5313 388.3438,496.0781 388.3438,495.6875 C388.3438,495.2344 387.9531,494.8438 387.4844,494.8438 C387.2656,494.8438 387.0625,494.9219 386.875,495.1094 C386.4219,495.5938 386.4219,495.5938 386.2344,495.6875 C385.8125,495.9531 385.125,496.0781 384.3594,496.0781 C382.3125,496.0781 381.0156,494.9844 381.0156,493.2813 L381.0156,492.1875 C381.0156,490.4063 382.2656,489.0938 384,489.0938 C384.5781,489.0938 385.1875,489.25 385.6563,489.5 C386.1406,489.7813 386.3125,490 386.4063,490.4063 C386.4688,490.8125 386.5,490.9375 386.6406,491.0625 C386.7813,491.2031 387.0156,491.3125 387.2344,491.3125 C387.5,491.3125 387.7656,491.1719 387.9375,490.9531 C388.0469,490.7969 388.0781,490.6094 388.0781,490.1875 L388.0781,488.7656 C388.0781,488.3281 388.0625,488.2031 387.9688,488.0469 C387.8125,487.7813 387.5313,487.6406 387.2344,487.6406 C386.9375,487.6406 386.7344,487.7344 386.5156,488.0469 L386.3438,487.9688 Z " fill="#000000"/><text fill="#000000" font-family="sans-serif" font-size="14" lengthAdjust="spacing" textLength="41" x="398" y="497.1436">Score</text><line style="stroke:#181818;stroke-width:0.5;" x1="370" x2="441" y1="508.2969" y2="508.2969"/><line style="stroke:#181818;stroke-width:0.5;" x1="370" x2="441" y1="516.2969" y2="516.2969"/></g><!--MD5=[75608257a5c34eea21c80da2dd697475]
class PaymentInfo--><g id="elem_PaymentInfo"><rect codeLine="15" fill="#F1F1F1" height="48" id="PaymentInfo" rx="2.5" ry="2.5" style="stroke:#181818;stroke-width:0.5;" width="124" x="776.5" y="476.2969"/><ellipse cx="791.5" cy="492.2969" fill="#ADD1B2" rx="11" ry="11" style="stroke:#181818;stroke-width:1.0;"/><path d="M793.8438,487.9688 C792.9063,487.5313 792.3125,487.3906 791.4375,487.3906 C788.8125,487.3906 786.8125,489.4688 786.8125,492.1875 L786.8125,493.3125 C786.8125,495.8906 788.9219,497.7813 791.8125,497.7813 C793.0313,497.7813 794.1875,497.4844 794.9375,496.9375 C795.5156,496.5313 795.8438,496.0781 795.8438,495.6875 C795.8438,495.2344 795.4531,494.8438 794.9844,494.8438 C794.7656,494.8438 794.5625,494.9219 794.375,495.1094 C793.9219,495.5938 793.9219,495.5938 793.7344,495.6875 C793.3125,495.9531 792.625,496.0781 791.8594,496.0781 C789.8125,496.0781 788.5156,494.9844 788.5156,493.2813 L788.5156,492.1875 C788.5156,490.4063 789.7656,489.0938 791.5,489.0938 C792.0781,489.0938 792.6875,489.25 793.1563,489.5 C793.6406,489.7813 793.8125,490 793.9063,490.4063 C793.9688,490.8125 794,490.9375 794.1406,491.0625 C794.2813,491.2031 794.5156,491.3125 794.7344,491.3125 C795,491.3125 795.2656,491.1719 795.4375,490.9531 C795.5469,490.7969 795.5781,490.6094 795.5781,490.1875 L795.5781,488.7656 C795.5781,488.3281 795.5625,488.2031 795.4688,488.0469 C795.3125,487.7813 795.0313,487.6406 794.7344,487.6406 C794.4375,487.6406 794.2344,487.7344 794.0156,488.0469 L793.8438,487.9688 Z " fill="#000000"/><text fill="#000000" font-family="sans-serif" font-size="14" lengthAdjust="spacing" textLength="92" x="805.5" y="497.1436">PaymentInfo</text><line style="stroke:#181818;stroke-width:0.5;" x1="777.5" x2="899.5" y1="508.2969" y2="508.2969"/><line style="stroke:#181818;stroke-width:0.5;" x1="777.5" x2="899.5" y1="516.2969" y2="516.2969"/></g><!--MD5=[7181b6cfacae2bce8e581b6d37db2178]
class Dorsal--><g id="elem_Dorsal"><rect codeLine="16" fill="#F1F1F1" height="48" id="Dorsal" rx="2.5" ry="2.5" style="stroke:#181818;stroke-width:0.5;" width="77" x="936" y="476.2969"/><ellipse cx="951" cy="492.2969" fill="#ADD1B2" rx="11" ry="11" style="stroke:#181818;stroke-width:1.0;"/><path d="M953.3438,487.9688 C952.4063,487.5313 951.8125,487.3906 950.9375,487.3906 C948.3125,487.3906 946.3125,489.4688 946.3125,492.1875 L946.3125,493.3125 C946.3125,495.8906 948.4219,497.7813 951.3125,497.7813 C952.5313,497.7813 953.6875,497.4844 954.4375,496.9375 C955.0156,496.5313 955.3438,496.0781 955.3438,495.6875 C955.3438,495.2344 954.9531,494.8438 954.4844,494.8438 C954.2656,494.8438 954.0625,494.9219 953.875,495.1094 C953.4219,495.5938 953.4219,495.5938 953.2344,495.6875 C952.8125,495.9531 952.125,496.0781 951.3594,496.0781 C949.3125,496.0781 948.0156,494.9844 948.0156,493.2813 L948.0156,492.1875 C948.0156,490.4063 949.2656,489.0938 951,489.0938 C951.5781,489.0938 952.1875,489.25 952.6563,489.5 C953.1406,489.7813 953.3125,490 953.4063,490.4063 C953.4688,490.8125 953.5,490.9375 953.6406,491.0625 C953.7813,491.2031 954.0156,491.3125 954.2344,491.3125 C954.5,491.3125 954.7656,491.1719 954.9375,490.9531 C955.0469,490.7969 955.0781,490.6094 955.0781,490.1875 L955.0781,488.7656 C955.0781,488.3281 955.0625,488.2031 954.9688,488.0469 C954.8125,487.7813 954.5313,487.6406 954.2344,487.6406 C953.9375,487.6406 953.7344,487.7344 953.5156,488.0469 L953.3438,487.9688 Z " fill="#000000"/><text fill="#000000" font-family="sans-serif" font-size="14" lengthAdjust="spacing" textLength="45" x="965" y="497.1436">Dorsal</text><line style="stroke:#181818;stroke-width:0.5;" x1="937" x2="1012" y1="508.2969" y2="508.2969"/><line style="stroke:#181818;stroke-width:0.5;" x1="937" x2="1012" y1="516.2969" y2="516.2969"/></g><!--MD5=[4879bc36ecaf6732470680c23d16b6d6]
class ApplicationPeriod--><g id="elem_ApplicationPeriod"><rect codeLine="17" fill="#F1F1F1" height="48" id="ApplicationPeriod" rx="2.5" ry="2.5" style="stroke:#181818;stroke-width:0.5;" width="161" x="477" y="476.2969"/><ellipse cx="492" cy="492.2969" fill="#ADD1B2" rx="11" ry="11" style="stroke:#181818;stroke-width:1.0;"/><path d="M494.3438,487.9688 C493.4063,487.5313 492.8125,487.3906 491.9375,487.3906 C489.3125,487.3906 487.3125,489.4688 487.3125,492.1875 L487.3125,493.3125 C487.3125,495.8906 489.4219,497.7813 492.3125,497.7813 C493.5313,497.7813 494.6875,497.4844 495.4375,496.9375 C496.0156,496.5313 496.3438,496.0781 496.3438,495.6875 C496.3438,495.2344 495.9531,494.8438 495.4844,494.8438 C495.2656,494.8438 495.0625,494.9219 494.875,495.1094 C494.4219,495.5938 494.4219,495.5938 494.2344,495.6875 C493.8125,495.9531 493.125,496.0781 492.3594,496.0781 C490.3125,496.0781 489.0156,494.9844 489.0156,493.2813 L489.0156,492.1875 C489.0156,490.4063 490.2656,489.0938 492,489.0938 C492.5781,489.0938 493.1875,489.25 493.6563,489.5 C494.1406,489.7813 494.3125,490 494.4063,490.4063 C494.4688,490.8125 494.5,490.9375 494.6406,491.0625 C494.7813,491.2031 495.0156,491.3125 495.2344,491.3125 C495.5,491.3125 495.7656,491.1719 495.9375,490.9531 C496.0469,490.7969 496.0781,490.6094 496.0781,490.1875 L496.0781,488.7656 C496.0781,488.3281 496.0625,488.2031 495.9688,488.0469 C495.8125,487.7813 495.5313,487.6406 495.2344,487.6406 C494.9375,487.6406 494.7344,487.7344 494.5156,488.0469 L494.3438,487.9688 Z " fill="#000000"/><text fill="#000000" font-family="sans-serif" font-size="14" lengthAdjust="spacing" textLength="129" x="506" y="497.1436">ApplicationPeriod</text><line style="stroke:#181818;stroke-width:0.5;" x1="478" x2="637" y1="508.2969" y2="508.2969"/><line style="stroke:#181818;stroke-width:0.5;" x1="478" x2="637" y1="516.2969" y2="516.2969"/></g><!--MD5=[fa2f63ccaf221ae7736318ef25f3047e]
class TrackRecord--><g id="elem_TrackRecord"><rect codeLine="18" fill="#F1F1F1" height="48" id="TrackRecord" rx="2.5" ry="2.5" style="stroke:#181818;stroke-width:0.5;" width="123" x="478" y="260.2969"/><ellipse cx="493" cy="276.2969" fill="#ADD1B2" rx="11" ry="11" style="stroke:#181818;stroke-width:1.0;"/><path d="M495.3438,271.9688 C494.4063,271.5313 493.8125,271.3906 492.9375,271.3906 C490.3125,271.3906 488.3125,273.4688 488.3125,276.1875 L488.3125,277.3125 C488.3125,279.8906 490.4219,281.7813 493.3125,281.7813 C494.5313,281.7813 495.6875,281.4844 496.4375,280.9375 C497.0156,280.5313 497.3438,280.0781 497.3438,279.6875 C497.3438,279.2344 496.9531,278.8438 496.4844,278.8438 C496.2656,278.8438 496.0625,278.9219 495.875,279.1094 C495.4219,279.5938 495.4219,279.5938 495.2344,279.6875 C494.8125,279.9531 494.125,280.0781 493.3594,280.0781 C491.3125,280.0781 490.0156,278.9844 490.0156,277.2813 L490.0156,276.1875 C490.0156,274.4063 491.2656,273.0938 493,273.0938 C493.5781,273.0938 494.1875,273.25 494.6563,273.5 C495.1406,273.7813 495.3125,274 495.4063,274.4063 C495.4688,274.8125 495.5,274.9375 495.6406,275.0625 C495.7813,275.2031 496.0156,275.3125 496.2344,275.3125 C496.5,275.3125 496.7656,275.1719 496.9375,274.9531 C497.0469,274.7969 497.0781,274.6094 497.0781,274.1875 L497.0781,272.7656 C497.0781,272.3281 497.0625,272.2031 496.9688,272.0469 C496.8125,271.7813 496.5313,271.6406 496.2344,271.6406 C495.9375,271.6406 495.7344,271.7344 495.5156,272.0469 L495.3438,271.9688 Z " fill="#000000"/><text fill="#000000" font-family="sans-serif" font-size="14" lengthAdjust="spacing" textLength="91" x="507" y="281.1436">TrackRecord</text><line style="stroke:#181818;stroke-width:0.5;" x1="479" x2="600" y1="292.2969" y2="292.2969"/><line style="stroke:#181818;stroke-width:0.5;" x1="479" x2="600" y1="300.2969" y2="300.2969"/></g><!--MD5=[daaf474a872145e7245538cddd912e0c]
class Suscription--><g id="elem_Suscription"><rect codeLine="19" fill="#F1F1F1" height="48" id="Suscription" rx="2.5" ry="2.5" style="stroke:#181818;stroke-width:0.5;" width="113" x="946" y="260.2969"/><ellipse cx="961" cy="276.2969" fill="#ADD1B2" rx="11" ry="11" style="stroke:#181818;stroke-width:1.0;"/><path d="M963.3438,271.9688 C962.4063,271.5313 961.8125,271.3906 960.9375,271.3906 C958.3125,271.3906 956.3125,273.4688 956.3125,276.1875 L956.3125,277.3125 C956.3125,279.8906 958.4219,281.7813 961.3125,281.7813 C962.5313,281.7813 963.6875,281.4844 964.4375,280.9375 C965.0156,280.5313 965.3438,280.0781 965.3438,279.6875 C965.3438,279.2344 964.9531,278.8438 964.4844,278.8438 C964.2656,278.8438 964.0625,278.9219 963.875,279.1094 C963.4219,279.5938 963.4219,279.5938 963.2344,279.6875 C962.8125,279.9531 962.125,280.0781 961.3594,280.0781 C959.3125,280.0781 958.0156,278.9844 958.0156,277.2813 L958.0156,276.1875 C958.0156,274.4063 959.2656,273.0938 961,273.0938 C961.5781,273.0938 962.1875,273.25 962.6563,273.5 C963.1406,273.7813 963.3125,274 963.4063,274.4063 C963.4688,274.8125 963.5,274.9375 963.6406,275.0625 C963.7813,275.2031 964.0156,275.3125 964.2344,275.3125 C964.5,275.3125 964.7656,275.1719 964.9375,274.9531 C965.0469,274.7969 965.0781,274.6094 965.0781,274.1875 L965.0781,272.7656 C965.0781,272.3281 965.0625,272.2031 964.9688,272.0469 C964.8125,271.7813 964.5313,271.6406 964.2344,271.6406 C963.9375,271.6406 963.7344,271.7344 963.5156,272.0469 L963.3438,271.9688 Z " fill="#000000"/><text fill="#000000" font-family="sans-serif" font-size="14" lengthAdjust="spacing" textLength="81" x="975" y="281.1436">Suscription</text><line style="stroke:#181818;stroke-width:0.5;" x1="947" x2="1058" y1="292.2969" y2="292.2969"/><line style="stroke:#181818;stroke-width:0.5;" x1="947" x2="1058" y1="300.2969" y2="300.2969"/></g><!--MD5=[1eb16f587f0be04f87e5494aaa8d5362]
class ApplicationCode--><g id="elem_ApplicationCode"><rect fill="#F1F1F1" height="48" id="ApplicationCode" rx="2.5" ry="2.5" style="stroke:#181818;stroke-width:0.5;" width="152" x="636.5" y="260.2969"/><ellipse cx="651.5" cy="276.2969" fill="#ADD1B2" rx="11" ry="11" style="stroke:#181818;stroke-width:1.0;"/><path d="M653.8438,271.9688 C652.9063,271.5313 652.3125,271.3906 651.4375,271.3906 C648.8125,271.3906 646.8125,273.4688 646.8125,276.1875 L646.8125,277.3125 C646.8125,279.8906 648.9219,281.7813 651.8125,281.7813 C653.0313,281.7813 654.1875,281.4844 654.9375,280.9375 C655.5156,280.5313 655.8438,280.0781 655.8438,279.6875 C655.8438,279.2344 655.4531,278.8438 654.9844,278.8438 C654.7656,278.8438 654.5625,278.9219 654.375,279.1094 C653.9219,279.5938 653.9219,279.5938 653.7344,279.6875 C653.3125,279.9531 652.625,280.0781 651.8594,280.0781 C649.8125,280.0781 648.5156,278.9844 648.5156,277.2813 L648.5156,276.1875 C648.5156,274.4063 649.7656,273.0938 651.5,273.0938 C652.0781,273.0938 652.6875,273.25 653.1563,273.5 C653.6406,273.7813 653.8125,274 653.9063,274.4063 C653.9688,274.8125 654,274.9375 654.1406,275.0625 C654.2813,275.2031 654.5156,275.3125 654.7344,275.3125 C655,275.3125 655.2656,275.1719 655.4375,274.9531 C655.5469,274.7969 655.5781,274.6094 655.5781,274.1875 L655.5781,272.7656 C655.5781,272.3281 655.5625,272.2031 655.4688,272.0469 C655.3125,271.7813 655.0313,271.6406 654.7344,271.6406 C654.4375,271.6406 654.2344,271.7344 654.0156,272.0469 L653.8438,271.9688 Z " fill="#000000"/><text fill="#000000" font-family="sans-serif" font-size="14" lengthAdjust="spacing" textLength="120" x="665.5" y="281.1436">ApplicationCode</text><line style="stroke:#181818;stroke-width:0.5;" x1="637.5" x2="787.5" y1="292.2969" y2="292.2969"/><line style="stroke:#181818;stroke-width:0.5;" x1="637.5" x2="787.5" y1="300.2969" y2="300.2969"/></g><!--MD5=[4296a1ab0576a383a1a509d52c22ebf0]
class Type--><g id="elem_Type"><rect fill="#F1F1F1" height="48" id="Type" rx="2.5" ry="2.5" style="stroke:#181818;stroke-width:0.5;" width="68" x="673.5" y="476.2969"/><ellipse cx="688.5" cy="492.2969" fill="#ADD1B2" rx="11" ry="11" style="stroke:#181818;stroke-width:1.0;"/><path d="M690.8438,487.9688 C689.9063,487.5313 689.3125,487.3906 688.4375,487.3906 C685.8125,487.3906 683.8125,489.4688 683.8125,492.1875 L683.8125,493.3125 C683.8125,495.8906 685.9219,497.7813 688.8125,497.7813 C690.0313,497.7813 691.1875,497.4844 691.9375,496.9375 C692.5156,496.5313 692.8438,496.0781 692.8438,495.6875 C692.8438,495.2344 692.4531,494.8438 691.9844,494.8438 C691.7656,494.8438 691.5625,494.9219 691.375,495.1094 C690.9219,495.5938 690.9219,495.5938 690.7344,495.6875 C690.3125,495.9531 689.625,496.0781 688.8594,496.0781 C686.8125,496.0781 685.5156,494.9844 685.5156,493.2813 L685.5156,492.1875 C685.5156,490.4063 686.7656,489.0938 688.5,489.0938 C689.0781,489.0938 689.6875,489.25 690.1563,489.5 C690.6406,489.7813 690.8125,490 690.9063,490.4063 C690.9688,490.8125 691,490.9375 691.1406,491.0625 C691.2813,491.2031 691.5156,491.3125 691.7344,491.3125 C692,491.3125 692.2656,491.1719 692.4375,490.9531 C692.5469,490.7969 692.5781,490.6094 692.5781,490.1875 L692.5781,488.7656 C692.5781,488.3281 692.5625,488.2031 692.4688,488.0469 C692.3125,487.7813 692.0313,487.6406 691.7344,487.6406 C691.4375,487.6406 691.2344,487.7344 691.0156,488.0469 L690.8438,487.9688 Z " fill="#000000"/><text fill="#000000" font-family="sans-serif" font-size="14" lengthAdjust="spacing" textLength="36" x="702.5" y="497.1436">Type</text><line style="stroke:#181818;stroke-width:0.5;" x1="674.5" x2="740.5" y1="508.2969" y2="508.2969"/><line style="stroke:#181818;stroke-width:0.5;" x1="674.5" x2="740.5" y1="516.2969" y2="516.2969"/></g><!--MD5=[d40c1293bf545fb669cd4f076a63ddfc]
class RegistrationType--><g id="elem_RegistrationType"><rect fill="#F1F1F1" height="48" id="RegistrationType" rx="2.5" ry="2.5" style="stroke:#181818;stroke-width:0.5;" width="157" x="1048" y="476.2969"/><ellipse cx="1063" cy="492.2969" fill="#ADD1B2" rx="11" ry="11" style="stroke:#181818;stroke-width:1.0;"/><path d="M1065.3438,487.9688 C1064.4063,487.5313 1063.8125,487.3906 1062.9375,487.3906 C1060.3125,487.3906 1058.3125,489.4688 1058.3125,492.1875 L1058.3125,493.3125 C1058.3125,495.8906 1060.4219,497.7813 1063.3125,497.7813 C1064.5313,497.7813 1065.6875,497.4844 1066.4375,496.9375 C1067.0156,496.5313 1067.3438,496.0781 1067.3438,495.6875 C1067.3438,495.2344 1066.9531,494.8438 1066.4844,494.8438 C1066.2656,494.8438 1066.0625,494.9219 1065.875,495.1094 C1065.4219,495.5938 1065.4219,495.5938 1065.2344,495.6875 C1064.8125,495.9531 1064.125,496.0781 1063.3594,496.0781 C1061.3125,496.0781 1060.0156,494.9844 1060.0156,493.2813 L1060.0156,492.1875 C1060.0156,490.4063 1061.2656,489.0938 1063,489.0938 C1063.5781,489.0938 1064.1875,489.25 1064.6563,489.5 C1065.1406,489.7813 1065.3125,490 1065.4063,490.4063 C1065.4688,490.8125 1065.5,490.9375 1065.6406,491.0625 C1065.7813,491.2031 1066.0156,491.3125 1066.2344,491.3125 C1066.5,491.3125 1066.7656,491.1719 1066.9375,490.9531 C1067.0469,490.7969 1067.0781,490.6094 1067.0781,490.1875 L1067.0781,488.7656 C1067.0781,488.3281 1067.0625,488.2031 1066.9688,488.0469 C1066.8125,487.7813 1066.5313,487.6406 1066.2344,487.6406 C1065.9375,487.6406 1065.7344,487.7344 1065.5156,488.0469 L1065.3438,487.9688 Z " fill="#000000"/><text fill="#000000" font-family="sans-serif" font-size="14" lengthAdjust="spacing" textLength="125" x="1077" y="497.1436">RegistrationType</text><line style="stroke:#181818;stroke-width:0.5;" x1="1049" x2="1204" y1="508.2969" y2="508.2969"/><line style="stroke:#181818;stroke-width:0.5;" x1="1049" x2="1204" y1="516.2969" y2="516.2969"/></g><!--MD5=[b12e0ef570f00e2cf0640b1aecbc69b7]
class RegistrationDate--><g id="elem_RegistrationDate"><rect fill="#F1F1F1" height="48" id="RegistrationDate" rx="2.5" ry="2.5" style="stroke:#181818;stroke-width:0.5;" width="156" x="1240.5" y="476.2969"/><ellipse cx="1255.5" cy="492.2969" fill="#ADD1B2" rx="11" ry="11" style="stroke:#181818;stroke-width:1.0;"/><path d="M1257.8438,487.9688 C1256.9063,487.5313 1256.3125,487.3906 1255.4375,487.3906 C1252.8125,487.3906 1250.8125,489.4688 1250.8125,492.1875 L1250.8125,493.3125 C1250.8125,495.8906 1252.9219,497.7813 1255.8125,497.7813 C1257.0313,497.7813 1258.1875,497.4844 1258.9375,496.9375 C1259.5156,496.5313 1259.8438,496.0781 1259.8438,495.6875 C1259.8438,495.2344 1259.4531,494.8438 1258.9844,494.8438 C1258.7656,494.8438 1258.5625,494.9219 1258.375,495.1094 C1257.9219,495.5938 1257.9219,495.5938 1257.7344,495.6875 C1257.3125,495.9531 1256.625,496.0781 1255.8594,496.0781 C1253.8125,496.0781 1252.5156,494.9844 1252.5156,493.2813 L1252.5156,492.1875 C1252.5156,490.4063 1253.7656,489.0938 1255.5,489.0938 C1256.0781,489.0938 1256.6875,489.25 1257.1563,489.5 C1257.6406,489.7813 1257.8125,490 1257.9063,490.4063 C1257.9688,490.8125 1258,490.9375 1258.1406,491.0625 C1258.2813,491.2031 1258.5156,491.3125 1258.7344,491.3125 C1259,491.3125 1259.2656,491.1719 1259.4375,490.9531 C1259.5469,490.7969 1259.5781,490.6094 1259.5781,490.1875 L1259.5781,488.7656 C1259.5781,488.3281 1259.5625,488.2031 1259.4688,488.0469 C1259.3125,487.7813 1259.0313,487.6406 1258.7344,487.6406 C1258.4375,487.6406 1258.2344,487.7344 1258.0156,488.0469 L1257.8438,487.9688 Z " fill="#000000"/><text fill="#000000" font-family="sans-serif" font-size="14" lengthAdjust="spacing" textLength="124" x="1269.5" y="497.1436">RegistrationDate</text><line style="stroke:#181818;stroke-width:0.5;" x1="1241.5" x2="1395.5" y1="508.2969" y2="508.2969"/><line style="stroke:#181818;stroke-width:0.5;" x1="1241.5" x2="1395.5" y1="516.2969" y2="516.2969"/></g><!--MD5=[1dc911963f0116eb7551a64657943f11]
class ByDrawing--><g id="elem_ByDrawing"><rect fill="#F1F1F1" height="48" id="ByDrawing" rx="2.5" ry="2.5" style="stroke:#181818;stroke-width:0.5;" width="108" x="1004.5" y="584.2969"/><ellipse cx="1019.5" cy="600.2969" fill="#ADD1B2" rx="11" ry="11" style="stroke:#181818;stroke-width:1.0;"/><path d="M1021.8438,595.9688 C1020.9063,595.5313 1020.3125,595.3906 1019.4375,595.3906 C1016.8125,595.3906 1014.8125,597.4688 1014.8125,600.1875 L1014.8125,601.3125 C1014.8125,603.8906 1016.9219,605.7813 1019.8125,605.7813 C1021.0313,605.7813 1022.1875,605.4844 1022.9375,604.9375 C1023.5156,604.5313 1023.8438,604.0781 1023.8438,603.6875 C1023.8438,603.2344 1023.4531,602.8438 1022.9844,602.8438 C1022.7656,602.8438 1022.5625,602.9219 1022.375,603.1094 C1021.9219,603.5938 1021.9219,603.5938 1021.7344,603.6875 C1021.3125,603.9531 1020.625,604.0781 1019.8594,604.0781 C1017.8125,604.0781 1016.5156,602.9844 1016.5156,601.2813 L1016.5156,600.1875 C1016.5156,598.4063 1017.7656,597.0938 1019.5,597.0938 C1020.0781,597.0938 1020.6875,597.25 1021.1563,597.5 C1021.6406,597.7813 1021.8125,598 1021.9063,598.4063 C1021.9688,598.8125 1022,598.9375 1022.1406,599.0625 C1022.2813,599.2031 1022.5156,599.3125 1022.7344,599.3125 C1023,599.3125 1023.2656,599.1719 1023.4375,598.9531 C1023.5469,598.7969 1023.5781,598.6094 1023.5781,598.1875 L1023.5781,596.7656 C1023.5781,596.3281 1023.5625,596.2031 1023.4688,596.0469 C1023.3125,595.7813 1023.0313,595.6406 1022.7344,595.6406 C1022.4375,595.6406 1022.2344,595.7344 1022.0156,596.0469 L1021.8438,595.9688 Z " fill="#000000"/><text fill="#000000" font-family="sans-serif" font-size="14" lengthAdjust="spacing" textLength="76" x="1033.5" y="605.1436">ByDrawing</text><line style="stroke:#181818;stroke-width:0.5;" x1="1005.5" x2="1111.5" y1="616.2969" y2="616.2969"/><line style="stroke:#181818;stroke-width:0.5;" x1="1005.5" x2="1111.5" y1="624.2969" y2="624.2969"/></g><!--MD5=[626ee839297ae6d74adcb816213ff129]
class ByOrder--><g id="elem_ByOrder"><rect fill="#F1F1F1" height="48" id="ByOrder" rx="2.5" ry="2.5" style="stroke:#181818;stroke-width:0.5;" width="91" x="1148" y="584.2969"/><ellipse cx="1163" cy="600.2969" fill="#ADD1B2" rx="11" ry="11" style="stroke:#181818;stroke-width:1.0;"/><path d="M1165.3438,595.9688 C1164.4063,595.5313 1163.8125,595.3906 1162.9375,595.3906 C1160.3125,595.3906 1158.3125,597.4688 1158.3125,600.1875 L1158.3125,601.3125 C1158.3125,603.8906 1160.4219,605.7813 1163.3125,605.7813 C1164.5313,605.7813 1165.6875,605.4844 1166.4375,604.9375 C1167.0156,604.5313 1167.3438,604.0781 1167.3438,603.6875 C1167.3438,603.2344 1166.9531,602.8438 1166.4844,602.8438 C1166.2656,602.8438 1166.0625,602.9219 1165.875,603.1094 C1165.4219,603.5938 1165.4219,603.5938 1165.2344,603.6875 C1164.8125,603.9531 1164.125,604.0781 1163.3594,604.0781 C1161.3125,604.0781 1160.0156,602.9844 1160.0156,601.2813 L1160.0156,600.1875 C1160.0156,598.4063 1161.2656,597.0938 1163,597.0938 C1163.5781,597.0938 1164.1875,597.25 1164.6563,597.5 C1165.1406,597.7813 1165.3125,598 1165.4063,598.4063 C1165.4688,598.8125 1165.5,598.9375 1165.6406,599.0625 C1165.7813,599.2031 1166.0156,599.3125 1166.2344,599.3125 C1166.5,599.3125 1166.7656,599.1719 1166.9375,598.9531 C1167.0469,598.7969 1167.0781,598.6094 1167.0781,598.1875 L1167.0781,596.7656 C1167.0781,596.3281 1167.0625,596.2031 1166.9688,596.0469 C1166.8125,595.7813 1166.5313,595.6406 1166.2344,595.6406 C1165.9375,595.6406 1165.7344,595.7344 1165.5156,596.0469 L1165.3438,595.9688 Z " fill="#000000"/><text fill="#000000" font-family="sans-serif" font-size="14" lengthAdjust="spacing" textLength="59" x="1177" y="605.1436">ByOrder</text><line style="stroke:#181818;stroke-width:0.5;" x1="1149" x2="1238" y1="616.2969" y2="616.2969"/><line style="stroke:#181818;stroke-width:0.5;" x1="1149" x2="1238" y1="624.2969" y2="624.2969"/></g><!--MD5=[23e1070f3df272e91d97f134644eec19]
link YourRace to Athlete--><g id="link_YourRace_Athlete"><path codeLine="21" d="M657.8353,98.8099 C657.8353,98.8099 608.513,130.6909 586.424,144.9679 " fill="none" id="YourRace-Athlete" style="stroke:#181818;stroke-width:1.0;"/><polygon fill="#181818" points="575.299,152.1589,585.0288,150.6322,579.4981,149.4445,580.6858,143.9137,575.299,152.1589" style="stroke:#181818;stroke-width:1.0;"/><line style="stroke:#181818;stroke-width:1.0;" x1="579.4981" x2="586.217" y1="149.4445" y2="145.1019"/><polygon fill="#181818" points="667.914,92.2969,660.7036,92.1938,657.8353,98.8099,665.0456,98.913,667.914,92.2969" style="stroke:#181818;stroke-width:1.0;"/></g><!--MD5=[5359aeb4b27adfe89cdf839703c53325]
link YourRace to Organizer--><g id="link_YourRace_Organizer"><path codeLine="22" d="M749.1647,98.8099 C749.1647,98.8099 798.487,130.6909 820.576,144.9679 " fill="none" id="YourRace-Organizer" style="stroke:#181818;stroke-width:1.0;"/><polygon fill="#181818" points="831.701,152.1589,826.3142,143.9137,827.5019,149.4445,821.9712,150.6322,831.701,152.1589" style="stroke:#181818;stroke-width:1.0;"/><line style="stroke:#181818;stroke-width:1.0;" x1="827.5019" x2="820.783" y1="149.4445" y2="145.1019"/><polygon fill="#181818" points="739.086,92.2969,741.9544,98.913,749.1647,98.8099,746.2964,92.1938,739.086,92.2969" style="stroke:#181818;stroke-width:1.0;"/></g><!--MD5=[7151f2d60812e04faec703a7b590ae07]
link Organizer to Manage--><g id="link_Organizer_Manage"><path codeLine="24" d="M867.5,200.2969 C867.5,216.2999 867.5,237.7429 867.5,254.8249 " fill="none" id="Organizer-to-Manage" style="stroke:#181818;stroke-width:1.0;"/><polygon fill="#181818" points="867.5,259.9749,871.5,250.9749,867.5,254.9749,863.5,250.9749,867.5,259.9749" style="stroke:#181818;stroke-width:1.0;"/></g><!--MD5=[37d723eb891adce7d8e365d1b147a08a]
link Athlete to Apply--><g id="link_Athlete_Apply"><path codeLine="26" d="M510.424,200.2969 C489.41,216.9209 460.974,239.4149 439.005,256.7929 " fill="none" id="Athlete-to-Apply" style="stroke:#181818;stroke-width:1.0;stroke-dasharray:7.0,7.0;"/><polygon fill="#181818" points="434.982,259.9749,444.5224,257.5293,438.9037,256.8732,439.5598,251.2545,434.982,259.9749" style="stroke:#181818;stroke-width:1.0;"/></g><!--MD5=[f05b3ee42e886bc038042c952099922c]
link Athlete to Consult--><g id="link_Athlete_Consult"><path codeLine="27" d="M495.843,195.8819 C451.748,214.6529 383.817,243.5709 338.298,262.9489 " fill="none" id="Athlete-to-Consult" style="stroke:#181818;stroke-width:1.0;"/><polygon fill="#181818" points="333.69,264.9109,343.5376,265.0666,338.2906,262.9527,340.4045,257.7056,333.69,264.9109" style="stroke:#181818;stroke-width:1.0;"/></g><!--MD5=[1af141ae5437315f4ccd964254671e2b]
link Athlete to TrackRecord--><g id="link_Athlete_TrackRecord"><path codeLine="28" d="M539.5,212.2969 C539.5,212.2969 539.5,235.9739 539.5,246.6609 " fill="none" id="Athlete-TrackRecord" style="stroke:#181818;stroke-width:1.0;"/><polygon fill="#181818" points="539.5,259.9749,543.5,250.9749,539.5,254.9749,535.5,250.9749,539.5,259.9749" style="stroke:#181818;stroke-width:1.0;"/><line style="stroke:#181818;stroke-width:1.0;" x1="539.5" x2="539.5" y1="254.9749" y2="246.9749"/><polygon fill="#181818" points="539.5,200.2969,535.5,206.2969,539.5,212.2969,543.5,206.2969,539.5,200.2969" style="stroke:#181818;stroke-width:1.0;"/></g><!--MD5=[6e62c634485765faa18efa69be7c7675]
link Athlete to ApplicationCode--><g id="link_Athlete_ApplicationCode"><path codeLine="30" d="M587.2701,206.5662 C587.2701,206.5662 640.045,238.9019 663.589,253.3289 " fill="none" id="Athlete-ApplicationCode" style="stroke:#181818;stroke-width:1.0;"/><polygon fill="#181818" points="674.737,260.1589,669.1527,252.0462,670.4736,257.5467,664.9732,258.8676,674.737,260.1589" style="stroke:#181818;stroke-width:1.0;"/><line style="stroke:#181818;stroke-width:1.0;" x1="670.4736" x2="663.652" y1="257.5467" y2="253.3664"/><polygon fill="#181818" points="577.038,200.2969,580.0643,206.8422,587.2701,206.5662,584.2438,200.0208,577.038,200.2969" style="stroke:#181818;stroke-width:1.0;"/></g><!--MD5=[53d46adbeb03dd17ed534e5ba23ccd4d]
link Apply to Race--><g id="link_Apply_Race"><path codeLine="32" d="M405.5,308.2969 C405.5,324.2999 405.5,345.7429 405.5,362.8249 " fill="none" id="Apply-to-Race" style="stroke:#181818;stroke-width:1.0;stroke-dasharray:7.0,7.0;"/><polygon fill="#181818" points="405.5,367.9749,409.5,358.9749,405.5,362.9749,401.5,358.9749,405.5,367.9749" style="stroke:#181818;stroke-width:1.0;"/></g><!--MD5=[766de44c127d67c269e0e5bad3e2e7ae]
link Consult to Race--><g id="link_Consult_Race"><path codeLine="34" d="M315.453,308.2969 C333.413,324.8519 357.69,347.2279 376.51,364.5759 " fill="none" id="Consult-to-Race" style="stroke:#181818;stroke-width:1.0;"/><polygon fill="#181818" points="380.198,367.9749,376.292,358.9337,376.5218,364.5858,370.8696,364.8156,380.198,367.9749" style="stroke:#181818;stroke-width:1.0;"/></g><!--MD5=[e411b63e9fce17c83545870915635e7f]
link Manage to Race--><g id="link_Manage_Race"><path codeLine="36" d="M823.796,302.7119 C818.025,304.7349 812.152,306.6569 806.5,308.2969 C675.81,346.2079 516.379,373.8269 444.245,385.3519 " fill="none" id="Manage-to-Race" style="stroke:#181818;stroke-width:1.0;"/><polygon fill="#181818" points="439.203,386.1539,448.7198,388.6897,444.1409,385.368,447.4625,380.7891,439.203,386.1539" style="stroke:#181818;stroke-width:1.0;"/></g><!--MD5=[8d22a264b1d458f793ad84cf56e8b974]
link Race to Distance--><g id="link_Race_Distance"><path codeLine="39" d="M360.2723,405.5559 C360.2723,405.5559 203.338,449.3239 119.5,476.2969 C117.93,476.8019 116.34,477.3199 114.738,477.8469 " fill="none" id="Race-Distance" style="stroke:#181818;stroke-width:1.0;"/><polygon fill="#181818" points="102.3154,482.0259,112.1211,482.947,107.0543,480.4314,109.5699,475.3646,102.3154,482.0259" style="stroke:#181818;stroke-width:1.0;"/><line style="stroke:#181818;stroke-width:1.0;" x1="107.0543" x2="114.637" y1="480.4314" y2="477.8804"/><polygon fill="#181818" points="371.846,402.3859,365.0025,400.113,360.2723,405.5559,367.1158,407.8288,371.846,402.3859" style="stroke:#181818;stroke-width:1.0;"/></g><!--MD5=[edbfbe743c7fc77980287e7924ad1dd2]
link Race to Date--><g id="link_Race_Date"><path codeLine="40" d="M360.8915,413.4184 C360.8915,413.4184 257.511,460.0499 216.045,478.7529 " fill="none" id="Race-Date" style="stroke:#181818;stroke-width:1.0;"/><polygon fill="#181818" points="204.107,484.1379,213.9557,484.0841,208.6649,482.0823,210.6668,476.7915,204.107,484.1379" style="stroke:#181818;stroke-width:1.0;"/><line style="stroke:#181818;stroke-width:1.0;" x1="208.6649" x2="215.9575" y1="482.0823" y2="478.7924"/><polygon fill="#181818" points="371.83,408.4839,364.7159,407.305,360.8915,413.4184,368.0056,414.5973,371.83,408.4839" style="stroke:#181818;stroke-width:1.0;"/></g><!--MD5=[12d87157ab46e978eba99b31a6236695]
link Race to Location--><g id="link_Race_Location"><path codeLine="41" d="M370.7186,424.2788 C370.7186,424.2788 337.617,453.7639 322.626,467.1179 " fill="none" id="Race-Location" style="stroke:#181818;stroke-width:1.0;"/><polygon fill="#181818" points="312.682,475.9749,322.0629,472.9752,316.4155,472.6491,316.7416,467.0016,312.682,475.9749" style="stroke:#181818;stroke-width:1.0;"/><line style="stroke:#181818;stroke-width:1.0;" x1="316.4155" x2="322.3895" y1="472.6491" y2="467.3284"/><polygon fill="#181818" points="379.679,416.2969,372.5382,417.301,370.7186,424.2788,377.8594,423.2746,379.679,416.2969" style="stroke:#181818;stroke-width:1.0;"/></g><!--MD5=[e63702b17efa877e97c567e3b8727b12]
link Race to Score--><g id="link_Race_Score"><path codeLine="42" d="M405.5,428.2969 C405.5,428.2969 405.5,451.9739 405.5,462.6609 " fill="none" id="Race-Score" style="stroke:#181818;stroke-width:1.0;"/><polygon fill="#181818" points="405.5,475.9749,409.5,466.9749,405.5,470.9749,401.5,466.9749,405.5,475.9749" style="stroke:#181818;stroke-width:1.0;"/><line style="stroke:#181818;stroke-width:1.0;" x1="405.5" x2="405.5" y1="470.9749" y2="462.9749"/><polygon fill="#181818" points="405.5,416.2969,401.5,422.2969,405.5,428.2969,409.5,422.2969,405.5,416.2969" style="stroke:#181818;stroke-width:1.0;"/></g><!--MD5=[705270ac592e1243045b327c48162558]
link Race to Type--><g id="link_Race_Type"><path codeLine="43" d="M450.4967,406.809 C450.4967,406.809 585.399,449.2289 655.5,476.2969 C657.404,477.0319 659.339,477.7979 661.288,478.5859 " fill="none" id="Race-Type" style="stroke:#181818;stroke-width:1.0;"/><polygon fill="#181818" points="673.29,483.6099,666.5328,476.4447,668.6778,481.6791,663.4435,483.8242,673.29,483.6099" style="stroke:#181818;stroke-width:1.0;"/><line style="stroke:#181818;stroke-width:1.0;" x1="668.6778" x2="661.298" y1="481.6791" y2="478.5899"/><polygon fill="#181818" points="439.02,403.3039,443.59,408.882,450.4967,406.809,445.9267,401.2309,439.02,403.3039" style="stroke:#181818;stroke-width:1.0;"/></g><!--MD5=[f74ac41f8e65a460acd910897c37c7bb]
link Race to ApplicationPeriod--><g id="link_Race_ApplicationPeriod"><path codeLine="44" d="M448.3244,423.1618 C448.3244,423.1618 493.386,454.5859 513.546,468.6449 " fill="none" id="Race-ApplicationPeriod" style="stroke:#181818;stroke-width:1.0;"/><polygon fill="#181818" points="524.321,476.1589,519.2262,467.7302,520.2196,473.2991,514.6506,474.2925,524.321,476.1589" style="stroke:#181818;stroke-width:1.0;"/><line style="stroke:#181818;stroke-width:1.0;" x1="520.2196" x2="513.6575" y1="473.2991" y2="468.7224"/><polygon fill="#181818" points="438.482,416.2969,441.1149,423.0101,448.3244,423.1618,445.6915,416.4485,438.482,416.2969" style="stroke:#181818;stroke-width:1.0;"/></g><!--MD5=[e921ad57443782d0d4c22e7ab8201ebc]
link Race to Registration--><g id="link_Race_Registration"><path codeLine="47" d="M439.118,392.2969 C595.662,392.2969 752.207,392.2969 908.752,392.2969 " fill="none" id="Race-to-Registration" style="stroke:#181818;stroke-width:1.0;"/><polygon fill="#181818" points="913.851,392.2969,904.851,388.2969,908.851,392.2969,904.851,396.2969,913.851,392.2969" style="stroke:#181818;stroke-width:1.0;"/></g><!--MD5=[d31965e18df51f5e3a97e3dfa86742cf]
link Registration to PaymentInfo--><g id="link_Registration_PaymentInfo"><path codeLine="48" d="M935.5255,423.6741 C935.5255,423.6741 896.564,454.0409 878.951,467.7689 " fill="none" id="Registration-PaymentInfo" style="stroke:#181818;stroke-width:1.0;"/><polygon fill="#181818" points="868.422,475.9749,877.9793,473.5961,872.3653,472.9008,873.0607,467.2868,868.422,475.9749" style="stroke:#181818;stroke-width:1.0;"/><line style="stroke:#181818;stroke-width:1.0;" x1="872.3653" x2="878.6755" y1="472.9008" y2="467.9834"/><polygon fill="#181818" points="944.99,416.2969,937.7987,416.8307,935.5255,423.6741,942.7168,423.1403,944.99,416.2969" style="stroke:#181818;stroke-width:1.0;"/></g><!--MD5=[310f65f6359d39df4a29005d7b1868af]
link Registration to Dorsal--><g id="link_Registration_Dorsal"><path codeLine="49" d="M974.5,428.2969 C974.5,428.2969 974.5,451.9739 974.5,462.6609 " fill="none" id="Registration-Dorsal" style="stroke:#181818;stroke-width:1.0;"/><polygon fill="#181818" points="974.5,475.9749,978.5,466.9749,974.5,470.9749,970.5,466.9749,974.5,475.9749" style="stroke:#181818;stroke-width:1.0;"/><line style="stroke:#181818;stroke-width:1.0;" x1="974.5" x2="974.5" y1="470.9749" y2="462.9749"/><polygon fill="#181818" points="974.5,416.2969,970.5,422.2969,974.5,428.2969,978.5,422.2969,974.5,416.2969" style="stroke:#181818;stroke-width:1.0;"/></g><!--MD5=[c0294b685351dc9ae42d4cf001b7cc06]
link Registration to RegistrationType--><g id="link_Registration_RegistrationType"><path codeLine="50" d="M1017.3199,423.1653 C1017.3199,423.1653 1062.39,454.5859 1082.55,468.6449 " fill="none" id="Registration-RegistrationType" style="stroke:#181818;stroke-width:1.0;"/><polygon fill="#181818" points="1093.32,476.1589,1088.229,467.7279,1089.2198,473.2973,1083.6504,474.2881,1093.32,476.1589" style="stroke:#181818;stroke-width:1.0;"/><line style="stroke:#181818;stroke-width:1.0;" x1="1089.2198" x2="1082.655" y1="473.2973" y2="468.7224"/><polygon fill="#181818" points="1007.48,416.2969,1010.1105,423.0111,1017.3199,423.1653,1014.6895,416.4511,1007.48,416.2969" style="stroke:#181818;stroke-width:1.0;"/></g><!--MD5=[99fb3c277457517443938aee0727aee3]
link Registration to RegistrationDate--><g id="link_Registration_RegistrationDate"><path codeLine="51" d="M1046.6778,415.5381 C1046.6778,415.5381 1174.51,454.9269 1231.15,472.3819 " fill="none" id="Registration-RegistrationDate" style="stroke:#181818;stroke-width:1.0;"/><polygon fill="#181818" points="1243.71,476.2509,1236.2871,469.7779,1238.9317,474.7784,1233.9312,477.4231,1243.71,476.2509" style="stroke:#181818;stroke-width:1.0;"/><line style="stroke:#181818;stroke-width:1.0;" x1="1238.9317" x2="1231.29" y1="474.7784" y2="472.4224"/><polygon fill="#181818" points="1035.21,412.0039,1039.7658,417.5936,1046.6778,415.5381,1042.1219,409.9484,1035.21,412.0039" style="stroke:#181818;stroke-width:1.0;"/></g><!--MD5=[f7e2771519c667b35b8ad02ef916a1c2]
reverse link RegistrationType to ByDrawing--><g id="link_RegistrationType_ByDrawing"><path codeLine="53" d="M1100.75,541.4309 C1091.54,555.7961 1081.46,571.5035 1073.46,583.9753 " fill="none" id="RegistrationType-backto-ByDrawing" style="stroke:#181818;stroke-width:1.0;"/><polygon fill="none" points="1095.05,537.3515,1111.75,524.2969,1106.84,544.9109,1095.05,537.3515" style="stroke:#181818;stroke-width:1.0;"/></g><!--MD5=[56cec7f2b86664aedea991e86d33f179]
reverse link RegistrationType to ByOrder--><g id="link_RegistrationType_ByOrder"><path codeLine="54" d="M1151.87,541.4309 C1160.95,555.7961 1170.88,571.5035 1178.76,583.9753 " fill="none" id="RegistrationType-backto-ByOrder" style="stroke:#181818;stroke-width:1.0;"/><polygon fill="none" points="1145.81,544.9434,1141.04,524.2969,1157.64,537.4633,1145.81,544.9434" style="stroke:#181818;stroke-width:1.0;"/></g><!--MD5=[23dcb61a6fdfba41b802371b814cd918]
link Organizer to Suscription--><g id="link_Organizer_Suscription"><path codeLine="57" d="M896.793,200.2969 C917.964,216.9209 946.612,239.4149 968.745,256.7929 " fill="none" id="Organizer-to-Suscription" style="stroke:#181818;stroke-width:1.0;"/><polygon fill="#181818" points="972.798,259.9749,968.1884,251.2714,968.865,256.8876,963.2487,257.5642,972.798,259.9749" style="stroke:#181818;stroke-width:1.0;"/></g><!--MD5=[2a0df5522603579075ab97551daff905]
@startuml
title Your Race - Domain Model

class YourRace
class Athlete
class Organizer
class Race
class Registration
class Distance
class Date
class Location
class Consult
class Manage
class Apply
class Score
class PaymentInfo
class Dorsal
class ApplicationPeriod
class TrackRecord
class Suscription

YourRace *- -> Athlete
YourRace *- -> Organizer

Organizer - -> Manage

Athlete ..> Apply
Athlete - -> Consult
Athlete *- -> TrackRecord

Athlete *- -> ApplicationCode

Apply ..> Race

Consult - -> Race

Manage - -> Race


Race *- -> Distance
Race *- -> Date
Race *- -> Location
Race *- -> Score
Race *- -> Type
Race *- -> ApplicationPeriod


Registration <-left- Race 
Registration *- -> PaymentInfo
Registration *- -> Dorsal
Registration *- -> RegistrationType
Registration *- -> RegistrationDate

RegistrationType <|- - ByDrawing
RegistrationType <|- - ByOrder


Organizer - -> Suscription
@enduml

PlantUML version 1.2022.7beta2(Unknown compile time)
(GPL source distribution)
Java Runtime: Java(TM) SE Runtime Environment
JVM: Java HotSpot(TM) 64-Bit Server VM
Default Encoding: UTF-8
Language: en
Country: US
--></g></svg>