<?xml version="1.0" encoding="UTF-8" standalone="no"?><svg xmlns="http://www.w3.org/2000/svg" xmlns:xlink="http://www.w3.org/1999/xlink" contentStyleType="text/css" height="747px" preserveAspectRatio="none" style="width:1515px;height:747px;background:#FFFFFF;" version="1.1" viewBox="0 0 1515 747" width="1515px" zoomAndPan="magnify"><defs/><g><rect fill="none" height="26.2969" id="_title" style="stroke:none;stroke-width:1.0;" width="216" x="642.75" y="5"/><text fill="#000000" font-family="sans-serif" font-size="14" font-weight="bold" lengthAdjust="spacing" textLength="206" x="647.75" y="22.9951">Your Race - Domain Model</text><!--MD5=[27e1e7f9c4820a0277e6c5de2c4c6668]
class YourRace--><g id="elem_YourRace"><rect codeLine="3" fill="#F1F1F1" height="48" id="YourRace" rx="2.5" ry="2.5" style="stroke:#181818;stroke-width:0.5;" width="99" x="520" y="44.2969"/><ellipse cx="535" cy="60.2969" fill="#ADD1B2" rx="11" ry="11" style="stroke:#181818;stroke-width:1.0;"/><path d="M537.9688,65.9375 Q537.3906,66.2344 536.75,66.375 Q536.1094,66.5313 535.4063,66.5313 Q532.9063,66.5313 531.5781,64.8906 Q530.2656,63.2344 530.2656,60.1094 Q530.2656,56.9844 531.5781,55.3281 Q532.9063,53.6719 535.4063,53.6719 Q536.1094,53.6719 536.75,53.8281 Q537.4063,53.9844 537.9688,54.2813 L537.9688,57 Q537.3438,56.4219 536.75,56.1563 Q536.1563,55.875 535.5313,55.875 Q534.1875,55.875 533.5,56.9531 Q532.8125,58.0156 532.8125,60.1094 Q532.8125,62.2031 533.5,63.2813 Q534.1875,64.3438 535.5313,64.3438 Q536.1563,64.3438 536.75,64.0781 Q537.3438,63.7969 537.9688,63.2188 L537.9688,65.9375 Z " fill="#000000"/><text fill="#000000" font-family="sans-serif" font-size="14" lengthAdjust="spacing" textLength="67" x="549" y="65.1436">YourRace</text><line style="stroke:#181818;stroke-width:0.5;" x1="521" x2="618" y1="76.2969" y2="76.2969"/><line style="stroke:#181818;stroke-width:0.5;" x1="521" x2="618" y1="84.2969" y2="84.2969"/></g><!--MD5=[069cecb0f107147f35d50ee2cc41a241]
class Athlete--><g id="elem_Athlete"><rect codeLine="4" fill="#F1F1F1" height="48" id="Athlete" rx="2.5" ry="2.5" style="stroke:#181818;stroke-width:0.5;" width="81" x="915" y="152.2969"/><ellipse cx="930" cy="168.2969" fill="#ADD1B2" rx="11" ry="11" style="stroke:#181818;stroke-width:1.0;"/><path d="M932.9688,173.9375 Q932.3906,174.2344 931.75,174.375 Q931.1094,174.5313 930.4063,174.5313 Q927.9063,174.5313 926.5781,172.8906 Q925.2656,171.2344 925.2656,168.1094 Q925.2656,164.9844 926.5781,163.3281 Q927.9063,161.6719 930.4063,161.6719 Q931.1094,161.6719 931.75,161.8281 Q932.4063,161.9844 932.9688,162.2813 L932.9688,165 Q932.3438,164.4219 931.75,164.1563 Q931.1563,163.875 930.5313,163.875 Q929.1875,163.875 928.5,164.9531 Q927.8125,166.0156 927.8125,168.1094 Q927.8125,170.2031 928.5,171.2813 Q929.1875,172.3438 930.5313,172.3438 Q931.1563,172.3438 931.75,172.0781 Q932.3438,171.7969 932.9688,171.2188 L932.9688,173.9375 Z " fill="#000000"/><text fill="#000000" font-family="sans-serif" font-size="14" lengthAdjust="spacing" textLength="49" x="944" y="173.1436">Athlete</text><line style="stroke:#181818;stroke-width:0.5;" x1="916" x2="995" y1="184.2969" y2="184.2969"/><line style="stroke:#181818;stroke-width:0.5;" x1="916" x2="995" y1="192.2969" y2="192.2969"/></g><!--MD5=[c943b7297f25d0ee4f831707c42d3ae4]
class Organizer--><g id="elem_Organizer"><rect codeLine="5" fill="#F1F1F1" height="48" id="Organizer" rx="2.5" ry="2.5" style="stroke:#181818;stroke-width:0.5;" width="99" x="134" y="152.2969"/><ellipse cx="149" cy="168.2969" fill="#ADD1B2" rx="11" ry="11" style="stroke:#181818;stroke-width:1.0;"/><path d="M151.9688,173.9375 Q151.3906,174.2344 150.75,174.375 Q150.1094,174.5313 149.4063,174.5313 Q146.9063,174.5313 145.5781,172.8906 Q144.2656,171.2344 144.2656,168.1094 Q144.2656,164.9844 145.5781,163.3281 Q146.9063,161.6719 149.4063,161.6719 Q150.1094,161.6719 150.75,161.8281 Q151.4063,161.9844 151.9688,162.2813 L151.9688,165 Q151.3438,164.4219 150.75,164.1563 Q150.1563,163.875 149.5313,163.875 Q148.1875,163.875 147.5,164.9531 Q146.8125,166.0156 146.8125,168.1094 Q146.8125,170.2031 147.5,171.2813 Q148.1875,172.3438 149.5313,172.3438 Q150.1563,172.3438 150.75,172.0781 Q151.3438,171.7969 151.9688,171.2188 L151.9688,173.9375 Z " fill="#000000"/><text fill="#000000" font-family="sans-serif" font-size="14" lengthAdjust="spacing" textLength="67" x="163" y="173.1436">Organizer</text><line style="stroke:#181818;stroke-width:0.5;" x1="135" x2="232" y1="184.2969" y2="184.2969"/><line style="stroke:#181818;stroke-width:0.5;" x1="135" x2="232" y1="192.2969" y2="192.2969"/></g><!--MD5=[02529dc4f79219f8425437af1389750d]
class Race--><g id="elem_Race"><rect codeLine="6" fill="#F1F1F1" height="48" id="Race" rx="2.5" ry="2.5" style="stroke:#181818;stroke-width:0.5;" width="67" x="874" y="368.2969"/><ellipse cx="889" cy="384.2969" fill="#ADD1B2" rx="11" ry="11" style="stroke:#181818;stroke-width:1.0;"/><path d="M891.9688,389.9375 Q891.3906,390.2344 890.75,390.375 Q890.1094,390.5313 889.4063,390.5313 Q886.9063,390.5313 885.5781,388.8906 Q884.2656,387.2344 884.2656,384.1094 Q884.2656,380.9844 885.5781,379.3281 Q886.9063,377.6719 889.4063,377.6719 Q890.1094,377.6719 890.75,377.8281 Q891.4063,377.9844 891.9688,378.2813 L891.9688,381 Q891.3438,380.4219 890.75,380.1563 Q890.1563,379.875 889.5313,379.875 Q888.1875,379.875 887.5,380.9531 Q886.8125,382.0156 886.8125,384.1094 Q886.8125,386.2031 887.5,387.2813 Q888.1875,388.3438 889.5313,388.3438 Q890.1563,388.3438 890.75,388.0781 Q891.3438,387.7969 891.9688,387.2188 L891.9688,389.9375 Z " fill="#000000"/><text fill="#000000" font-family="sans-serif" font-size="14" lengthAdjust="spacing" textLength="35" x="903" y="389.1436">Race</text><line style="stroke:#181818;stroke-width:0.5;" x1="875" x2="940" y1="400.2969" y2="400.2969"/><line style="stroke:#181818;stroke-width:0.5;" x1="875" x2="940" y1="408.2969" y2="408.2969"/></g><!--MD5=[3b034ebaa87c9ec5e8fb5410143f628f]
class Track--><g id="elem_Track"><rect codeLine="7" fill="#F1F1F1" height="48" id="Track" rx="2.5" ry="2.5" style="stroke:#181818;stroke-width:0.5;" width="70" x="655.5" y="152.2969"/><ellipse cx="670.5" cy="168.2969" fill="#ADD1B2" rx="11" ry="11" style="stroke:#181818;stroke-width:1.0;"/><path d="M673.4688,173.9375 Q672.8906,174.2344 672.25,174.375 Q671.6094,174.5313 670.9063,174.5313 Q668.4063,174.5313 667.0781,172.8906 Q665.7656,171.2344 665.7656,168.1094 Q665.7656,164.9844 667.0781,163.3281 Q668.4063,161.6719 670.9063,161.6719 Q671.6094,161.6719 672.25,161.8281 Q672.9063,161.9844 673.4688,162.2813 L673.4688,165 Q672.8438,164.4219 672.25,164.1563 Q671.6563,163.875 671.0313,163.875 Q669.6875,163.875 669,164.9531 Q668.3125,166.0156 668.3125,168.1094 Q668.3125,170.2031 669,171.2813 Q669.6875,172.3438 671.0313,172.3438 Q671.6563,172.3438 672.25,172.0781 Q672.8438,171.7969 673.4688,171.2188 L673.4688,173.9375 Z " fill="#000000"/><text fill="#000000" font-family="sans-serif" font-size="14" lengthAdjust="spacing" textLength="38" x="684.5" y="173.1436">Track</text><line style="stroke:#181818;stroke-width:0.5;" x1="656.5" x2="724.5" y1="184.2969" y2="184.2969"/><line style="stroke:#181818;stroke-width:0.5;" x1="656.5" x2="724.5" y1="192.2969" y2="192.2969"/></g><!--MD5=[cc15daeb8b4e6bacf34831777829d2c1]
class Distance--><g id="elem_Distance"><rect codeLine="8" fill="#F1F1F1" height="48" id="Distance" rx="2.5" ry="2.5" style="stroke:#181818;stroke-width:0.5;" width="93" x="445" y="476.2969"/><ellipse cx="460" cy="492.2969" fill="#ADD1B2" rx="11" ry="11" style="stroke:#181818;stroke-width:1.0;"/><path d="M462.9688,497.9375 Q462.3906,498.2344 461.75,498.375 Q461.1094,498.5313 460.4063,498.5313 Q457.9063,498.5313 456.5781,496.8906 Q455.2656,495.2344 455.2656,492.1094 Q455.2656,488.9844 456.5781,487.3281 Q457.9063,485.6719 460.4063,485.6719 Q461.1094,485.6719 461.75,485.8281 Q462.4063,485.9844 462.9688,486.2813 L462.9688,489 Q462.3438,488.4219 461.75,488.1563 Q461.1563,487.875 460.5313,487.875 Q459.1875,487.875 458.5,488.9531 Q457.8125,490.0156 457.8125,492.1094 Q457.8125,494.2031 458.5,495.2813 Q459.1875,496.3438 460.5313,496.3438 Q461.1563,496.3438 461.75,496.0781 Q462.3438,495.7969 462.9688,495.2188 L462.9688,497.9375 Z " fill="#000000"/><text fill="#000000" font-family="sans-serif" font-size="14" lengthAdjust="spacing" textLength="61" x="474" y="497.1436">Distance</text><line style="stroke:#181818;stroke-width:0.5;" x1="446" x2="537" y1="508.2969" y2="508.2969"/><line style="stroke:#181818;stroke-width:0.5;" x1="446" x2="537" y1="516.2969" y2="516.2969"/></g><!--MD5=[7829b64950ce38e0487c4015ea331f97]
class Date--><g id="elem_Date"><rect codeLine="9" fill="#F1F1F1" height="48" id="Date" rx="2.5" ry="2.5" style="stroke:#181818;stroke-width:0.5;" width="65" x="573" y="476.2969"/><ellipse cx="588" cy="492.2969" fill="#ADD1B2" rx="11" ry="11" style="stroke:#181818;stroke-width:1.0;"/><path d="M590.9688,497.9375 Q590.3906,498.2344 589.75,498.375 Q589.1094,498.5313 588.4063,498.5313 Q585.9063,498.5313 584.5781,496.8906 Q583.2656,495.2344 583.2656,492.1094 Q583.2656,488.9844 584.5781,487.3281 Q585.9063,485.6719 588.4063,485.6719 Q589.1094,485.6719 589.75,485.8281 Q590.4063,485.9844 590.9688,486.2813 L590.9688,489 Q590.3438,488.4219 589.75,488.1563 Q589.1563,487.875 588.5313,487.875 Q587.1875,487.875 586.5,488.9531 Q585.8125,490.0156 585.8125,492.1094 Q585.8125,494.2031 586.5,495.2813 Q587.1875,496.3438 588.5313,496.3438 Q589.1563,496.3438 589.75,496.0781 Q590.3438,495.7969 590.9688,495.2188 L590.9688,497.9375 Z " fill="#000000"/><text fill="#000000" font-family="sans-serif" font-size="14" lengthAdjust="spacing" textLength="33" x="602" y="497.1436">Date</text><line style="stroke:#181818;stroke-width:0.5;" x1="574" x2="637" y1="508.2969" y2="508.2969"/><line style="stroke:#181818;stroke-width:0.5;" x1="574" x2="637" y1="516.2969" y2="516.2969"/></g><!--MD5=[4f1f3706c1a355a8488e154afcaed5df]
class Location--><g id="elem_Location"><rect codeLine="10" fill="#F1F1F1" height="48" id="Location" rx="2.5" ry="2.5" style="stroke:#181818;stroke-width:0.5;" width="90" x="673.5" y="476.2969"/><ellipse cx="688.5" cy="492.2969" fill="#ADD1B2" rx="11" ry="11" style="stroke:#181818;stroke-width:1.0;"/><path d="M691.4688,497.9375 Q690.8906,498.2344 690.25,498.375 Q689.6094,498.5313 688.9063,498.5313 Q686.4063,498.5313 685.0781,496.8906 Q683.7656,495.2344 683.7656,492.1094 Q683.7656,488.9844 685.0781,487.3281 Q686.4063,485.6719 688.9063,485.6719 Q689.6094,485.6719 690.25,485.8281 Q690.9063,485.9844 691.4688,486.2813 L691.4688,489 Q690.8438,488.4219 690.25,488.1563 Q689.6563,487.875 689.0313,487.875 Q687.6875,487.875 687,488.9531 Q686.3125,490.0156 686.3125,492.1094 Q686.3125,494.2031 687,495.2813 Q687.6875,496.3438 689.0313,496.3438 Q689.6563,496.3438 690.25,496.0781 Q690.8438,495.7969 691.4688,495.2188 L691.4688,497.9375 Z " fill="#000000"/><text fill="#000000" font-family="sans-serif" font-size="14" lengthAdjust="spacing" textLength="58" x="702.5" y="497.1436">Location</text><line style="stroke:#181818;stroke-width:0.5;" x1="674.5" x2="762.5" y1="508.2969" y2="508.2969"/><line style="stroke:#181818;stroke-width:0.5;" x1="674.5" x2="762.5" y1="516.2969" y2="516.2969"/></g><!--MD5=[1582a1ceb3054ea3298fac38767ea8e7]
class Consult--><g id="elem_Consult"><rect codeLine="11" fill="#F1F1F1" height="48" id="Consult" rx="2.5" ry="2.5" style="stroke:#181818;stroke-width:0.5;" width="85" x="913" y="260.2969"/><ellipse cx="928" cy="276.2969" fill="#ADD1B2" rx="11" ry="11" style="stroke:#181818;stroke-width:1.0;"/><path d="M930.9688,281.9375 Q930.3906,282.2344 929.75,282.375 Q929.1094,282.5313 928.4063,282.5313 Q925.9063,282.5313 924.5781,280.8906 Q923.2656,279.2344 923.2656,276.1094 Q923.2656,272.9844 924.5781,271.3281 Q925.9063,269.6719 928.4063,269.6719 Q929.1094,269.6719 929.75,269.8281 Q930.4063,269.9844 930.9688,270.2813 L930.9688,273 Q930.3438,272.4219 929.75,272.1563 Q929.1563,271.875 928.5313,271.875 Q927.1875,271.875 926.5,272.9531 Q925.8125,274.0156 925.8125,276.1094 Q925.8125,278.2031 926.5,279.2813 Q927.1875,280.3438 928.5313,280.3438 Q929.1563,280.3438 929.75,280.0781 Q930.3438,279.7969 930.9688,279.2188 L930.9688,281.9375 Z " fill="#000000"/><text fill="#000000" font-family="sans-serif" font-size="14" lengthAdjust="spacing" textLength="53" x="942" y="281.1436">Consult</text><line style="stroke:#181818;stroke-width:0.5;" x1="914" x2="997" y1="292.2969" y2="292.2969"/><line style="stroke:#181818;stroke-width:0.5;" x1="914" x2="997" y1="300.2969" y2="300.2969"/></g><!--MD5=[ae82a2da8b56c6226c99c86cebc2591c]
class Manage--><g id="elem_Manage"><rect codeLine="12" fill="#F1F1F1" height="48" id="Manage" rx="2.5" ry="2.5" style="stroke:#181818;stroke-width:0.5;" width="87" x="7" y="260.2969"/><ellipse cx="22" cy="276.2969" fill="#ADD1B2" rx="11" ry="11" style="stroke:#181818;stroke-width:1.0;"/><path d="M24.9688,281.9375 Q24.3906,282.2344 23.75,282.375 Q23.1094,282.5313 22.4063,282.5313 Q19.9063,282.5313 18.5781,280.8906 Q17.2656,279.2344 17.2656,276.1094 Q17.2656,272.9844 18.5781,271.3281 Q19.9063,269.6719 22.4063,269.6719 Q23.1094,269.6719 23.75,269.8281 Q24.4063,269.9844 24.9688,270.2813 L24.9688,273 Q24.3438,272.4219 23.75,272.1563 Q23.1563,271.875 22.5313,271.875 Q21.1875,271.875 20.5,272.9531 Q19.8125,274.0156 19.8125,276.1094 Q19.8125,278.2031 20.5,279.2813 Q21.1875,280.3438 22.5313,280.3438 Q23.1563,280.3438 23.75,280.0781 Q24.3438,279.7969 24.9688,279.2188 L24.9688,281.9375 Z " fill="#000000"/><text fill="#000000" font-family="sans-serif" font-size="14" lengthAdjust="spacing" textLength="55" x="36" y="281.1436">Manage</text><line style="stroke:#181818;stroke-width:0.5;" x1="8" x2="93" y1="292.2969" y2="292.2969"/><line style="stroke:#181818;stroke-width:0.5;" x1="8" x2="93" y1="300.2969" y2="300.2969"/></g><!--MD5=[6584eb4189611289abbb06941f844685]
class Apply--><g id="elem_Apply"><rect codeLine="13" fill="#F1F1F1" height="48" id="Apply" rx="2.5" ry="2.5" style="stroke:#181818;stroke-width:0.5;" width="69" x="1189" y="260.2969"/><ellipse cx="1204" cy="276.2969" fill="#ADD1B2" rx="11" ry="11" style="stroke:#181818;stroke-width:1.0;"/><path d="M1206.9688,281.9375 Q1206.3906,282.2344 1205.75,282.375 Q1205.1094,282.5313 1204.4063,282.5313 Q1201.9063,282.5313 1200.5781,280.8906 Q1199.2656,279.2344 1199.2656,276.1094 Q1199.2656,272.9844 1200.5781,271.3281 Q1201.9063,269.6719 1204.4063,269.6719 Q1205.1094,269.6719 1205.75,269.8281 Q1206.4063,269.9844 1206.9688,270.2813 L1206.9688,273 Q1206.3438,272.4219 1205.75,272.1563 Q1205.1563,271.875 1204.5313,271.875 Q1203.1875,271.875 1202.5,272.9531 Q1201.8125,274.0156 1201.8125,276.1094 Q1201.8125,278.2031 1202.5,279.2813 Q1203.1875,280.3438 1204.5313,280.3438 Q1205.1563,280.3438 1205.75,280.0781 Q1206.3438,279.7969 1206.9688,279.2188 L1206.9688,281.9375 Z " fill="#000000"/><text fill="#000000" font-family="sans-serif" font-size="14" lengthAdjust="spacing" textLength="37" x="1218" y="281.1436">Apply</text><line style="stroke:#181818;stroke-width:0.5;" x1="1190" x2="1257" y1="292.2969" y2="292.2969"/><line style="stroke:#181818;stroke-width:0.5;" x1="1190" x2="1257" y1="300.2969" y2="300.2969"/></g><!--MD5=[107af66394bf1ebaa045812c9c475148]
class Score--><g id="elem_Score"><rect codeLine="14" fill="#F1F1F1" height="48" id="Score" rx="2.5" ry="2.5" style="stroke:#181818;stroke-width:0.5;" width="72" x="798.5" y="476.2969"/><ellipse cx="813.5" cy="492.2969" fill="#ADD1B2" rx="11" ry="11" style="stroke:#181818;stroke-width:1.0;"/><path d="M816.4688,497.9375 Q815.8906,498.2344 815.25,498.375 Q814.6094,498.5313 813.9063,498.5313 Q811.4063,498.5313 810.0781,496.8906 Q808.7656,495.2344 808.7656,492.1094 Q808.7656,488.9844 810.0781,487.3281 Q811.4063,485.6719 813.9063,485.6719 Q814.6094,485.6719 815.25,485.8281 Q815.9063,485.9844 816.4688,486.2813 L816.4688,489 Q815.8438,488.4219 815.25,488.1563 Q814.6563,487.875 814.0313,487.875 Q812.6875,487.875 812,488.9531 Q811.3125,490.0156 811.3125,492.1094 Q811.3125,494.2031 812,495.2813 Q812.6875,496.3438 814.0313,496.3438 Q814.6563,496.3438 815.25,496.0781 Q815.8438,495.7969 816.4688,495.2188 L816.4688,497.9375 Z " fill="#000000"/><text fill="#000000" font-family="sans-serif" font-size="14" lengthAdjust="spacing" textLength="40" x="827.5" y="497.1436">Score</text><line style="stroke:#181818;stroke-width:0.5;" x1="799.5" x2="869.5" y1="508.2969" y2="508.2969"/><line style="stroke:#181818;stroke-width:0.5;" x1="799.5" x2="869.5" y1="516.2969" y2="516.2969"/></g><!--MD5=[75608257a5c34eea21c80da2dd697475]
class PaymentInfo--><g id="elem_PaymentInfo"><rect codeLine="15" fill="#F1F1F1" height="48" id="PaymentInfo" rx="2.5" ry="2.5" style="stroke:#181818;stroke-width:0.5;" width="117" x="273" y="260.2969"/><ellipse cx="288" cy="276.2969" fill="#ADD1B2" rx="11" ry="11" style="stroke:#181818;stroke-width:1.0;"/><path d="M290.9688,281.9375 Q290.3906,282.2344 289.75,282.375 Q289.1094,282.5313 288.4063,282.5313 Q285.9063,282.5313 284.5781,280.8906 Q283.2656,279.2344 283.2656,276.1094 Q283.2656,272.9844 284.5781,271.3281 Q285.9063,269.6719 288.4063,269.6719 Q289.1094,269.6719 289.75,269.8281 Q290.4063,269.9844 290.9688,270.2813 L290.9688,273 Q290.3438,272.4219 289.75,272.1563 Q289.1563,271.875 288.5313,271.875 Q287.1875,271.875 286.5,272.9531 Q285.8125,274.0156 285.8125,276.1094 Q285.8125,278.2031 286.5,279.2813 Q287.1875,280.3438 288.5313,280.3438 Q289.1563,280.3438 289.75,280.0781 Q290.3438,279.7969 290.9688,279.2188 L290.9688,281.9375 Z " fill="#000000"/><text fill="#000000" font-family="sans-serif" font-size="14" lengthAdjust="spacing" textLength="85" x="302" y="281.1436">PaymentInfo</text><line style="stroke:#181818;stroke-width:0.5;" x1="274" x2="389" y1="292.2969" y2="292.2969"/><line style="stroke:#181818;stroke-width:0.5;" x1="274" x2="389" y1="300.2969" y2="300.2969"/></g><!--MD5=[7181b6cfacae2bce8e581b6d37db2178]
class Dorsal--><g id="elem_Dorsal"><rect codeLine="16" fill="#F1F1F1" height="48" id="Dorsal" rx="2.5" ry="2.5" style="stroke:#181818;stroke-width:0.5;" width="76" x="425.5" y="260.2969"/><ellipse cx="440.5" cy="276.2969" fill="#ADD1B2" rx="11" ry="11" style="stroke:#181818;stroke-width:1.0;"/><path d="M443.4688,281.9375 Q442.8906,282.2344 442.25,282.375 Q441.6094,282.5313 440.9063,282.5313 Q438.4063,282.5313 437.0781,280.8906 Q435.7656,279.2344 435.7656,276.1094 Q435.7656,272.9844 437.0781,271.3281 Q438.4063,269.6719 440.9063,269.6719 Q441.6094,269.6719 442.25,269.8281 Q442.9063,269.9844 443.4688,270.2813 L443.4688,273 Q442.8438,272.4219 442.25,272.1563 Q441.6563,271.875 441.0313,271.875 Q439.6875,271.875 439,272.9531 Q438.3125,274.0156 438.3125,276.1094 Q438.3125,278.2031 439,279.2813 Q439.6875,280.3438 441.0313,280.3438 Q441.6563,280.3438 442.25,280.0781 Q442.8438,279.7969 443.4688,279.2188 L443.4688,281.9375 Z " fill="#000000"/><text fill="#000000" font-family="sans-serif" font-size="14" lengthAdjust="spacing" textLength="44" x="454.5" y="281.1436">Dorsal</text><line style="stroke:#181818;stroke-width:0.5;" x1="426.5" x2="500.5" y1="292.2969" y2="292.2969"/><line style="stroke:#181818;stroke-width:0.5;" x1="426.5" x2="500.5" y1="300.2969" y2="300.2969"/></g><!--MD5=[4879bc36ecaf6732470680c23d16b6d6]
class ApplicationPeriod--><g id="elem_ApplicationPeriod"><rect codeLine="17" fill="#F1F1F1" height="48" id="ApplicationPeriod" rx="2.5" ry="2.5" style="stroke:#181818;stroke-width:0.5;" width="151" x="906" y="476.2969"/><ellipse cx="921" cy="492.2969" fill="#ADD1B2" rx="11" ry="11" style="stroke:#181818;stroke-width:1.0;"/><path d="M923.9688,497.9375 Q923.3906,498.2344 922.75,498.375 Q922.1094,498.5313 921.4063,498.5313 Q918.9063,498.5313 917.5781,496.8906 Q916.2656,495.2344 916.2656,492.1094 Q916.2656,488.9844 917.5781,487.3281 Q918.9063,485.6719 921.4063,485.6719 Q922.1094,485.6719 922.75,485.8281 Q923.4063,485.9844 923.9688,486.2813 L923.9688,489 Q923.3438,488.4219 922.75,488.1563 Q922.1563,487.875 921.5313,487.875 Q920.1875,487.875 919.5,488.9531 Q918.8125,490.0156 918.8125,492.1094 Q918.8125,494.2031 919.5,495.2813 Q920.1875,496.3438 921.5313,496.3438 Q922.1563,496.3438 922.75,496.0781 Q923.3438,495.7969 923.9688,495.2188 L923.9688,497.9375 Z " fill="#000000"/><text fill="#000000" font-family="sans-serif" font-size="14" lengthAdjust="spacing" textLength="119" x="935" y="497.1436">ApplicationPeriod</text><line style="stroke:#181818;stroke-width:0.5;" x1="907" x2="1056" y1="508.2969" y2="508.2969"/><line style="stroke:#181818;stroke-width:0.5;" x1="907" x2="1056" y1="516.2969" y2="516.2969"/></g><!--MD5=[fa2f63ccaf221ae7736318ef25f3047e]
class TrackRecord--><g id="elem_TrackRecord"><rect codeLine="18" fill="#F1F1F1" height="48" id="TrackRecord" rx="2.5" ry="2.5" style="stroke:#181818;stroke-width:0.5;" width="120" x="1033.5" y="260.2969"/><ellipse cx="1048.5" cy="276.2969" fill="#ADD1B2" rx="11" ry="11" style="stroke:#181818;stroke-width:1.0;"/><path d="M1051.4688,281.9375 Q1050.8906,282.2344 1050.25,282.375 Q1049.6094,282.5313 1048.9063,282.5313 Q1046.4063,282.5313 1045.0781,280.8906 Q1043.7656,279.2344 1043.7656,276.1094 Q1043.7656,272.9844 1045.0781,271.3281 Q1046.4063,269.6719 1048.9063,269.6719 Q1049.6094,269.6719 1050.25,269.8281 Q1050.9063,269.9844 1051.4688,270.2813 L1051.4688,273 Q1050.8438,272.4219 1050.25,272.1563 Q1049.6563,271.875 1049.0313,271.875 Q1047.6875,271.875 1047,272.9531 Q1046.3125,274.0156 1046.3125,276.1094 Q1046.3125,278.2031 1047,279.2813 Q1047.6875,280.3438 1049.0313,280.3438 Q1049.6563,280.3438 1050.25,280.0781 Q1050.8438,279.7969 1051.4688,279.2188 L1051.4688,281.9375 Z " fill="#000000"/><text fill="#000000" font-family="sans-serif" font-size="14" lengthAdjust="spacing" textLength="88" x="1062.5" y="281.1436">TrackRecord</text><line style="stroke:#181818;stroke-width:0.5;" x1="1034.5" x2="1152.5" y1="292.2969" y2="292.2969"/><line style="stroke:#181818;stroke-width:0.5;" x1="1034.5" x2="1152.5" y1="300.2969" y2="300.2969"/></g><!--MD5=[daaf474a872145e7245538cddd912e0c]
class Suscription--><g id="elem_Suscription"><rect codeLine="19" fill="#F1F1F1" height="48" id="Suscription" rx="2.5" ry="2.5" style="stroke:#181818;stroke-width:0.5;" width="109" x="129" y="260.2969"/><ellipse cx="144" cy="276.2969" fill="#ADD1B2" rx="11" ry="11" style="stroke:#181818;stroke-width:1.0;"/><path d="M146.9688,281.9375 Q146.3906,282.2344 145.75,282.375 Q145.1094,282.5313 144.4063,282.5313 Q141.9063,282.5313 140.5781,280.8906 Q139.2656,279.2344 139.2656,276.1094 Q139.2656,272.9844 140.5781,271.3281 Q141.9063,269.6719 144.4063,269.6719 Q145.1094,269.6719 145.75,269.8281 Q146.4063,269.9844 146.9688,270.2813 L146.9688,273 Q146.3438,272.4219 145.75,272.1563 Q145.1563,271.875 144.5313,271.875 Q143.1875,271.875 142.5,272.9531 Q141.8125,274.0156 141.8125,276.1094 Q141.8125,278.2031 142.5,279.2813 Q143.1875,280.3438 144.5313,280.3438 Q145.1563,280.3438 145.75,280.0781 Q146.3438,279.7969 146.9688,279.2188 L146.9688,281.9375 Z " fill="#000000"/><text fill="#000000" font-family="sans-serif" font-size="14" lengthAdjust="spacing" textLength="77" x="158" y="281.1436">Suscription</text><line style="stroke:#181818;stroke-width:0.5;" x1="130" x2="237" y1="292.2969" y2="292.2969"/><line style="stroke:#181818;stroke-width:0.5;" x1="130" x2="237" y1="300.2969" y2="300.2969"/></g><!--MD5=[8e7fff75841614e5b69b8fd2cbc40ad5]
class RegistrationInfo--><g id="elem_RegistrationInfo"><rect codeLine="20" fill="#F1F1F1" height="48" id="RegistrationInfo" rx="2.5" ry="2.5" style="stroke:#181818;stroke-width:0.5;" width="140" x="1092.5" y="476.2969"/><ellipse cx="1107.5" cy="492.2969" fill="#ADD1B2" rx="11" ry="11" style="stroke:#181818;stroke-width:1.0;"/><path d="M1110.4688,497.9375 Q1109.8906,498.2344 1109.25,498.375 Q1108.6094,498.5313 1107.9063,498.5313 Q1105.4063,498.5313 1104.0781,496.8906 Q1102.7656,495.2344 1102.7656,492.1094 Q1102.7656,488.9844 1104.0781,487.3281 Q1105.4063,485.6719 1107.9063,485.6719 Q1108.6094,485.6719 1109.25,485.8281 Q1109.9063,485.9844 1110.4688,486.2813 L1110.4688,489 Q1109.8438,488.4219 1109.25,488.1563 Q1108.6563,487.875 1108.0313,487.875 Q1106.6875,487.875 1106,488.9531 Q1105.3125,490.0156 1105.3125,492.1094 Q1105.3125,494.2031 1106,495.2813 Q1106.6875,496.3438 1108.0313,496.3438 Q1108.6563,496.3438 1109.25,496.0781 Q1109.8438,495.7969 1110.4688,495.2188 L1110.4688,497.9375 Z " fill="#000000"/><text fill="#000000" font-family="sans-serif" font-size="14" lengthAdjust="spacing" textLength="108" x="1121.5" y="497.1436">RegistrationInfo</text><line style="stroke:#181818;stroke-width:0.5;" x1="1093.5" x2="1231.5" y1="508.2969" y2="508.2969"/><line style="stroke:#181818;stroke-width:0.5;" x1="1093.5" x2="1231.5" y1="516.2969" y2="516.2969"/></g><!--MD5=[1eb16f587f0be04f87e5494aaa8d5362]
class ApplicationCode--><g id="elem_ApplicationCode"><rect fill="#F1F1F1" height="48" id="ApplicationCode" rx="2.5" ry="2.5" style="stroke:#181818;stroke-width:0.5;" width="144" x="1151.5" y="368.2969"/><ellipse cx="1166.5" cy="384.2969" fill="#ADD1B2" rx="11" ry="11" style="stroke:#181818;stroke-width:1.0;"/><path d="M1169.4688,389.9375 Q1168.8906,390.2344 1168.25,390.375 Q1167.6094,390.5313 1166.9063,390.5313 Q1164.4063,390.5313 1163.0781,388.8906 Q1161.7656,387.2344 1161.7656,384.1094 Q1161.7656,380.9844 1163.0781,379.3281 Q1164.4063,377.6719 1166.9063,377.6719 Q1167.6094,377.6719 1168.25,377.8281 Q1168.9063,377.9844 1169.4688,378.2813 L1169.4688,381 Q1168.8438,380.4219 1168.25,380.1563 Q1167.6563,379.875 1167.0313,379.875 Q1165.6875,379.875 1165,380.9531 Q1164.3125,382.0156 1164.3125,384.1094 Q1164.3125,386.2031 1165,387.2813 Q1165.6875,388.3438 1167.0313,388.3438 Q1167.6563,388.3438 1168.25,388.0781 Q1168.8438,387.7969 1169.4688,387.2188 L1169.4688,389.9375 Z " fill="#000000"/><text fill="#000000" font-family="sans-serif" font-size="14" lengthAdjust="spacing" textLength="112" x="1180.5" y="389.1436">ApplicationCode</text><line style="stroke:#181818;stroke-width:0.5;" x1="1152.5" x2="1294.5" y1="400.2969" y2="400.2969"/><line style="stroke:#181818;stroke-width:0.5;" x1="1152.5" x2="1294.5" y1="408.2969" y2="408.2969"/></g><!--MD5=[7fa87c15454b6b26abd290c64b708ccb]
class AthleteCapacity--><g id="elem_AthleteCapacity"><rect fill="#F1F1F1" height="48" id="AthleteCapacity" rx="2.5" ry="2.5" style="stroke:#181818;stroke-width:0.5;" width="139" x="1268" y="476.2969"/><ellipse cx="1283" cy="492.2969" fill="#ADD1B2" rx="11" ry="11" style="stroke:#181818;stroke-width:1.0;"/><path d="M1285.9688,497.9375 Q1285.3906,498.2344 1284.75,498.375 Q1284.1094,498.5313 1283.4063,498.5313 Q1280.9063,498.5313 1279.5781,496.8906 Q1278.2656,495.2344 1278.2656,492.1094 Q1278.2656,488.9844 1279.5781,487.3281 Q1280.9063,485.6719 1283.4063,485.6719 Q1284.1094,485.6719 1284.75,485.8281 Q1285.4063,485.9844 1285.9688,486.2813 L1285.9688,489 Q1285.3438,488.4219 1284.75,488.1563 Q1284.1563,487.875 1283.5313,487.875 Q1282.1875,487.875 1281.5,488.9531 Q1280.8125,490.0156 1280.8125,492.1094 Q1280.8125,494.2031 1281.5,495.2813 Q1282.1875,496.3438 1283.5313,496.3438 Q1284.1563,496.3438 1284.75,496.0781 Q1285.3438,495.7969 1285.9688,495.2188 L1285.9688,497.9375 Z " fill="#000000"/><text fill="#000000" font-family="sans-serif" font-size="14" lengthAdjust="spacing" textLength="107" x="1297" y="497.1436">AthleteCapacity</text><line style="stroke:#181818;stroke-width:0.5;" x1="1269" x2="1406" y1="508.2969" y2="508.2969"/><line style="stroke:#181818;stroke-width:0.5;" x1="1269" x2="1406" y1="516.2969" y2="516.2969"/></g><!--MD5=[4296a1ab0576a383a1a509d52c22ebf0]
class Type--><g id="elem_Type"><rect fill="#F1F1F1" height="48" id="Type" rx="2.5" ry="2.5" style="stroke:#181818;stroke-width:0.5;" width="66" x="1442.5" y="476.2969"/><ellipse cx="1457.5" cy="492.2969" fill="#ADD1B2" rx="11" ry="11" style="stroke:#181818;stroke-width:1.0;"/><path d="M1460.4688,497.9375 Q1459.8906,498.2344 1459.25,498.375 Q1458.6094,498.5313 1457.9063,498.5313 Q1455.4063,498.5313 1454.0781,496.8906 Q1452.7656,495.2344 1452.7656,492.1094 Q1452.7656,488.9844 1454.0781,487.3281 Q1455.4063,485.6719 1457.9063,485.6719 Q1458.6094,485.6719 1459.25,485.8281 Q1459.9063,485.9844 1460.4688,486.2813 L1460.4688,489 Q1459.8438,488.4219 1459.25,488.1563 Q1458.6563,487.875 1458.0313,487.875 Q1456.6875,487.875 1456,488.9531 Q1455.3125,490.0156 1455.3125,492.1094 Q1455.3125,494.2031 1456,495.2813 Q1456.6875,496.3438 1458.0313,496.3438 Q1458.6563,496.3438 1459.25,496.0781 Q1459.8438,495.7969 1460.4688,495.2188 L1460.4688,497.9375 Z " fill="#000000"/><text fill="#000000" font-family="sans-serif" font-size="14" lengthAdjust="spacing" textLength="34" x="1471.5" y="497.1436">Type</text><line style="stroke:#181818;stroke-width:0.5;" x1="1443.5" x2="1507.5" y1="508.2969" y2="508.2969"/><line style="stroke:#181818;stroke-width:0.5;" x1="1443.5" x2="1507.5" y1="516.2969" y2="516.2969"/></g><!--MD5=[01a180f737982e2545a2b67cac3b17ad]
class RegistrationDate_--><g id="elem_RegistrationDate_"><rect fill="#F1F1F1" height="48" id="RegistrationDate_" rx="2.5" ry="2.5" style="stroke:#181818;stroke-width:0.5;" width="155" x="537" y="260.2969"/><ellipse cx="552" cy="276.2969" fill="#ADD1B2" rx="11" ry="11" style="stroke:#181818;stroke-width:1.0;"/><path d="M554.9688,281.9375 Q554.3906,282.2344 553.75,282.375 Q553.1094,282.5313 552.4063,282.5313 Q549.9063,282.5313 548.5781,280.8906 Q547.2656,279.2344 547.2656,276.1094 Q547.2656,272.9844 548.5781,271.3281 Q549.9063,269.6719 552.4063,269.6719 Q553.1094,269.6719 553.75,269.8281 Q554.4063,269.9844 554.9688,270.2813 L554.9688,273 Q554.3438,272.4219 553.75,272.1563 Q553.1563,271.875 552.5313,271.875 Q551.1875,271.875 550.5,272.9531 Q549.8125,274.0156 549.8125,276.1094 Q549.8125,278.2031 550.5,279.2813 Q551.1875,280.3438 552.5313,280.3438 Q553.1563,280.3438 553.75,280.0781 Q554.3438,279.7969 554.9688,279.2188 L554.9688,281.9375 Z " fill="#000000"/><text fill="#000000" font-family="sans-serif" font-size="14" lengthAdjust="spacing" textLength="123" x="566" y="281.1436">RegistrationDate_</text><line style="stroke:#181818;stroke-width:0.5;" x1="538" x2="691" y1="292.2969" y2="292.2969"/><line style="stroke:#181818;stroke-width:0.5;" x1="538" x2="691" y1="300.2969" y2="300.2969"/></g><!--MD5=[b5a3bd379731b904ab19f2ebf5f5ee5c]
class Score_--><g id="elem_Score_"><rect fill="#F1F1F1" height="48" id="Score_" rx="2.5" ry="2.5" style="stroke:#181818;stroke-width:0.5;" width="79" x="727" y="260.2969"/><ellipse cx="742" cy="276.2969" fill="#ADD1B2" rx="11" ry="11" style="stroke:#181818;stroke-width:1.0;"/><path d="M744.9688,281.9375 Q744.3906,282.2344 743.75,282.375 Q743.1094,282.5313 742.4063,282.5313 Q739.9063,282.5313 738.5781,280.8906 Q737.2656,279.2344 737.2656,276.1094 Q737.2656,272.9844 738.5781,271.3281 Q739.9063,269.6719 742.4063,269.6719 Q743.1094,269.6719 743.75,269.8281 Q744.4063,269.9844 744.9688,270.2813 L744.9688,273 Q744.3438,272.4219 743.75,272.1563 Q743.1563,271.875 742.5313,271.875 Q741.1875,271.875 740.5,272.9531 Q739.8125,274.0156 739.8125,276.1094 Q739.8125,278.2031 740.5,279.2813 Q741.1875,280.3438 742.5313,280.3438 Q743.1563,280.3438 743.75,280.0781 Q744.3438,279.7969 744.9688,279.2188 L744.9688,281.9375 Z " fill="#000000"/><text fill="#000000" font-family="sans-serif" font-size="14" lengthAdjust="spacing" textLength="47" x="756" y="281.1436">Score_</text><line style="stroke:#181818;stroke-width:0.5;" x1="728" x2="805" y1="292.2969" y2="292.2969"/><line style="stroke:#181818;stroke-width:0.5;" x1="728" x2="805" y1="300.2969" y2="300.2969"/></g><!--MD5=[d40c1293bf545fb669cd4f076a63ddfc]
class RegistrationType--><g id="elem_RegistrationType"><rect fill="#F1F1F1" height="48" id="RegistrationType" rx="2.5" ry="2.5" style="stroke:#181818;stroke-width:0.5;" width="149" x="904" y="584.2969"/><ellipse cx="919" cy="600.2969" fill="#ADD1B2" rx="11" ry="11" style="stroke:#181818;stroke-width:1.0;"/><path d="M921.9688,605.9375 Q921.3906,606.2344 920.75,606.375 Q920.1094,606.5313 919.4063,606.5313 Q916.9063,606.5313 915.5781,604.8906 Q914.2656,603.2344 914.2656,600.1094 Q914.2656,596.9844 915.5781,595.3281 Q916.9063,593.6719 919.4063,593.6719 Q920.1094,593.6719 920.75,593.8281 Q921.4063,593.9844 921.9688,594.2813 L921.9688,597 Q921.3438,596.4219 920.75,596.1563 Q920.1563,595.875 919.5313,595.875 Q918.1875,595.875 917.5,596.9531 Q916.8125,598.0156 916.8125,600.1094 Q916.8125,602.2031 917.5,603.2813 Q918.1875,604.3438 919.5313,604.3438 Q920.1563,604.3438 920.75,604.0781 Q921.3438,603.7969 921.9688,603.2188 L921.9688,605.9375 Z " fill="#000000"/><text fill="#000000" font-family="sans-serif" font-size="14" lengthAdjust="spacing" textLength="117" x="933" y="605.1436">RegistrationType</text><line style="stroke:#181818;stroke-width:0.5;" x1="905" x2="1052" y1="616.2969" y2="616.2969"/><line style="stroke:#181818;stroke-width:0.5;" x1="905" x2="1052" y1="624.2969" y2="624.2969"/></g><!--MD5=[b12e0ef570f00e2cf0640b1aecbc69b7]
class RegistrationDate--><g id="elem_RegistrationDate"><rect fill="#F1F1F1" height="48" id="RegistrationDate" rx="2.5" ry="2.5" style="stroke:#181818;stroke-width:0.5;" width="148" x="1088.5" y="584.2969"/><ellipse cx="1103.5" cy="600.2969" fill="#ADD1B2" rx="11" ry="11" style="stroke:#181818;stroke-width:1.0;"/><path d="M1106.4688,605.9375 Q1105.8906,606.2344 1105.25,606.375 Q1104.6094,606.5313 1103.9063,606.5313 Q1101.4063,606.5313 1100.0781,604.8906 Q1098.7656,603.2344 1098.7656,600.1094 Q1098.7656,596.9844 1100.0781,595.3281 Q1101.4063,593.6719 1103.9063,593.6719 Q1104.6094,593.6719 1105.25,593.8281 Q1105.9063,593.9844 1106.4688,594.2813 L1106.4688,597 Q1105.8438,596.4219 1105.25,596.1563 Q1104.6563,595.875 1104.0313,595.875 Q1102.6875,595.875 1102,596.9531 Q1101.3125,598.0156 1101.3125,600.1094 Q1101.3125,602.2031 1102,603.2813 Q1102.6875,604.3438 1104.0313,604.3438 Q1104.6563,604.3438 1105.25,604.0781 Q1105.8438,603.7969 1106.4688,603.2188 L1106.4688,605.9375 Z " fill="#000000"/><text fill="#000000" font-family="sans-serif" font-size="14" lengthAdjust="spacing" textLength="116" x="1117.5" y="605.1436">RegistrationDate</text><line style="stroke:#181818;stroke-width:0.5;" x1="1089.5" x2="1235.5" y1="616.2969" y2="616.2969"/><line style="stroke:#181818;stroke-width:0.5;" x1="1089.5" x2="1235.5" y1="624.2969" y2="624.2969"/></g><!--MD5=[a071edbadeaaf875ef26ba4cdee01b34]
class RegistrationCost--><g id="elem_RegistrationCost"><rect fill="#F1F1F1" height="48" id="RegistrationCost" rx="2.5" ry="2.5" style="stroke:#181818;stroke-width:0.5;" width="147" x="1272" y="584.2969"/><ellipse cx="1287" cy="600.2969" fill="#ADD1B2" rx="11" ry="11" style="stroke:#181818;stroke-width:1.0;"/><path d="M1289.9688,605.9375 Q1289.3906,606.2344 1288.75,606.375 Q1288.1094,606.5313 1287.4063,606.5313 Q1284.9063,606.5313 1283.5781,604.8906 Q1282.2656,603.2344 1282.2656,600.1094 Q1282.2656,596.9844 1283.5781,595.3281 Q1284.9063,593.6719 1287.4063,593.6719 Q1288.1094,593.6719 1288.75,593.8281 Q1289.4063,593.9844 1289.9688,594.2813 L1289.9688,597 Q1289.3438,596.4219 1288.75,596.1563 Q1288.1563,595.875 1287.5313,595.875 Q1286.1875,595.875 1285.5,596.9531 Q1284.8125,598.0156 1284.8125,600.1094 Q1284.8125,602.2031 1285.5,603.2813 Q1286.1875,604.3438 1287.5313,604.3438 Q1288.1563,604.3438 1288.75,604.0781 Q1289.3438,603.7969 1289.9688,603.2188 L1289.9688,605.9375 Z " fill="#000000"/><text fill="#000000" font-family="sans-serif" font-size="14" lengthAdjust="spacing" textLength="115" x="1301" y="605.1436">RegistrationCost</text><line style="stroke:#181818;stroke-width:0.5;" x1="1273" x2="1418" y1="616.2969" y2="616.2969"/><line style="stroke:#181818;stroke-width:0.5;" x1="1273" x2="1418" y1="624.2969" y2="624.2969"/></g><!--MD5=[1dc911963f0116eb7551a64657943f11]
class ByDrawing--><g id="elem_ByDrawing"><rect fill="#F1F1F1" height="48" id="ByDrawing" rx="2.5" ry="2.5" style="stroke:#181818;stroke-width:0.5;" width="105" x="860" y="692.2969"/><ellipse cx="875" cy="708.2969" fill="#ADD1B2" rx="11" ry="11" style="stroke:#181818;stroke-width:1.0;"/><path d="M877.9688,713.9375 Q877.3906,714.2344 876.75,714.375 Q876.1094,714.5313 875.4063,714.5313 Q872.9063,714.5313 871.5781,712.8906 Q870.2656,711.2344 870.2656,708.1094 Q870.2656,704.9844 871.5781,703.3281 Q872.9063,701.6719 875.4063,701.6719 Q876.1094,701.6719 876.75,701.8281 Q877.4063,701.9844 877.9688,702.2813 L877.9688,705 Q877.3438,704.4219 876.75,704.1563 Q876.1563,703.875 875.5313,703.875 Q874.1875,703.875 873.5,704.9531 Q872.8125,706.0156 872.8125,708.1094 Q872.8125,710.2031 873.5,711.2813 Q874.1875,712.3438 875.5313,712.3438 Q876.1563,712.3438 876.75,712.0781 Q877.3438,711.7969 877.9688,711.2188 L877.9688,713.9375 Z " fill="#000000"/><text fill="#000000" font-family="sans-serif" font-size="14" lengthAdjust="spacing" textLength="73" x="889" y="713.1436">ByDrawing</text><line style="stroke:#181818;stroke-width:0.5;" x1="861" x2="964" y1="724.2969" y2="724.2969"/><line style="stroke:#181818;stroke-width:0.5;" x1="861" x2="964" y1="732.2969" y2="732.2969"/></g><!--MD5=[626ee839297ae6d74adcb816213ff129]
class ByOrder--><g id="elem_ByOrder"><rect fill="#F1F1F1" height="48" id="ByOrder" rx="2.5" ry="2.5" style="stroke:#181818;stroke-width:0.5;" width="88" x="1000.5" y="692.2969"/><ellipse cx="1015.5" cy="708.2969" fill="#ADD1B2" rx="11" ry="11" style="stroke:#181818;stroke-width:1.0;"/><path d="M1018.4688,713.9375 Q1017.8906,714.2344 1017.25,714.375 Q1016.6094,714.5313 1015.9063,714.5313 Q1013.4063,714.5313 1012.0781,712.8906 Q1010.7656,711.2344 1010.7656,708.1094 Q1010.7656,704.9844 1012.0781,703.3281 Q1013.4063,701.6719 1015.9063,701.6719 Q1016.6094,701.6719 1017.25,701.8281 Q1017.9063,701.9844 1018.4688,702.2813 L1018.4688,705 Q1017.8438,704.4219 1017.25,704.1563 Q1016.6563,703.875 1016.0313,703.875 Q1014.6875,703.875 1014,704.9531 Q1013.3125,706.0156 1013.3125,708.1094 Q1013.3125,710.2031 1014,711.2813 Q1014.6875,712.3438 1016.0313,712.3438 Q1016.6563,712.3438 1017.25,712.0781 Q1017.8438,711.7969 1018.4688,711.2188 L1018.4688,713.9375 Z " fill="#000000"/><text fill="#000000" font-family="sans-serif" font-size="14" lengthAdjust="spacing" textLength="56" x="1029.5" y="713.1436">ByOrder</text><line style="stroke:#181818;stroke-width:0.5;" x1="1001.5" x2="1087.5" y1="724.2969" y2="724.2969"/><line style="stroke:#181818;stroke-width:0.5;" x1="1001.5" x2="1087.5" y1="732.2969" y2="732.2969"/></g><!--MD5=[23e1070f3df272e91d97f134644eec19]
link YourRace to Athlete--><g id="link_YourRace_Athlete"><path codeLine="22" d="M630.7411,86.1166 C630.7411,86.1166 831.61,141.2769 902.28,160.6869 " fill="none" id="YourRace-Athlete" style="stroke:#181818;stroke-width:1.0;"/><polygon fill="#181818" points="914.83,164.1269,907.2098,157.8873,910.0083,162.8034,905.0922,165.6019,914.83,164.1269" style="stroke:#181818;stroke-width:1.0;"/><line style="stroke:#181818;stroke-width:1.0;" x1="910.0083" x2="902.295" y1="162.8034" y2="160.6869"/><polygon fill="#181818" points="619.17,82.9369,623.8956,88.3838,630.7411,86.1166,626.0154,80.6697,619.17,82.9369" style="stroke:#181818;stroke-width:1.0;"/></g><!--MD5=[5359aeb4b27adfe89cdf839703c53325]
link YourRace to Organizer--><g id="link_YourRace_Organizer"><path codeLine="23" d="M508.2589,86.1166 C508.2589,86.1166 318.09,138.3369 246.17,158.0869 " fill="none" id="YourRace-Organizer" style="stroke:#181818;stroke-width:1.0;"/><polygon fill="#181818" points="233.29,161.6269,243.0282,163.0991,238.1113,160.302,240.9084,155.3851,233.29,161.6269" style="stroke:#181818;stroke-width:1.0;"/><line style="stroke:#181818;stroke-width:1.0;" x1="238.1113" x2="245.825" y1="160.302" y2="158.1819"/><polygon fill="#181818" points="519.83,82.9369,512.9846,80.6697,508.2589,86.1166,515.1044,88.3838,519.83,82.9369" style="stroke:#181818;stroke-width:1.0;"/></g><!--MD5=[7151f2d60812e04faec703a7b590ae07]
link Organizer to Manage--><g id="link_Organizer_Manage"><path codeLine="25" d="M154.64,200.2969 C133.78,216.9169 105.56,239.4169 83.76,256.7969 " fill="none" id="Organizer-to-Manage" style="stroke:#181818;stroke-width:1.0;"/><polygon fill="#181818" points="79.76,259.9769,89.2933,257.5036,83.6727,256.8639,84.3124,251.2433,79.76,259.9769" style="stroke:#181818;stroke-width:1.0;"/></g><!--MD5=[37d723eb891adce7d8e365d1b147a08a]
link Athlete to Apply--><g id="link_Athlete_Apply"><path codeLine="27" d="M996.34,192.3069 C1039.96,208.4869 1110.98,235.2969 1171.5,260.2969 C1175.65,262.0169 1179.98,263.8469 1184.27,265.6969 " fill="none" id="Athlete-to-Apply" style="stroke:#181818;stroke-width:1.0;stroke-dasharray:7.0,7.0;"/><polygon fill="#181818" points="1188.92,267.7169,1182.2505,260.4699,1184.3317,265.73,1179.0716,267.8112,1188.92,267.7169" style="stroke:#181818;stroke-width:1.0;"/></g><!--MD5=[f05b3ee42e886bc038042c952099922c]
link Athlete to Consult--><g id="link_Athlete_Consult"><path codeLine="28" d="M955.5,200.2969 C955.5,216.2969 955.5,237.7469 955.5,254.8269 " fill="none" id="Athlete-to-Consult" style="stroke:#181818;stroke-width:1.0;"/><polygon fill="#181818" points="955.5,259.9769,959.5,250.9769,955.5,254.9769,951.5,250.9769,955.5,259.9769" style="stroke:#181818;stroke-width:1.0;"/></g><!--MD5=[1af141ae5437315f4ccd964254671e2b]
link Athlete to TrackRecord--><g id="link_Athlete_TrackRecord"><path codeLine="29" d="M994.9539,207.6102 C994.9539,207.6102 1034.78,238.1969 1052.71,251.9669 " fill="none" id="Athlete-TrackRecord" style="stroke:#181818;stroke-width:1.0;"/><polygon fill="#181818" points="1063.14,259.9769,1058.4348,251.3247,1059.1732,256.9331,1053.5648,257.6715,1063.14,259.9769" style="stroke:#181818;stroke-width:1.0;"/><line style="stroke:#181818;stroke-width:1.0;" x1="1059.1732" x2="1052.83" y1="256.9331" y2="252.0569"/><polygon fill="#181818" points="985.44,200.2969,987.7592,207.1249,994.9539,207.6102,992.6347,200.7822,985.44,200.2969" style="stroke:#181818;stroke-width:1.0;"/></g><!--MD5=[dcfb4e855971f3c033a0c29c0562827a]
link Apply to ApplicationCode--><g id="link_Apply_ApplicationCode"><path codeLine="31" d="M1223.5,320.2969 C1223.5,320.2969 1223.5,343.9769 1223.5,354.6569 " fill="none" id="Apply-ApplicationCode" style="stroke:#181818;stroke-width:1.0;"/><polygon fill="#181818" points="1223.5,367.9769,1227.5,358.9769,1223.5,362.9769,1219.5,358.9769,1223.5,367.9769" style="stroke:#181818;stroke-width:1.0;"/><line style="stroke:#181818;stroke-width:1.0;" x1="1223.5" x2="1223.5" y1="362.9769" y2="354.9769"/><polygon fill="#181818" points="1223.5,308.2969,1219.5,314.2969,1223.5,320.2969,1227.5,314.2969,1223.5,308.2969" style="stroke:#181818;stroke-width:1.0;"/></g><!--MD5=[53d46adbeb03dd17ed534e5ba23ccd4d]
link Apply to Race--><g id="link_Apply_Race"><path codeLine="33" d="M1188.76,301.3069 C1183.04,303.7569 1177.13,306.1769 1171.5,308.2969 C1092.67,338.0169 997.98,365.9569 946.13,380.6169 " fill="none" id="Apply-to-Race" style="stroke:#181818;stroke-width:1.0;stroke-dasharray:7.0,7.0;"/><polygon fill="#181818" points="941.25,381.9969,950.9977,383.4049,946.0624,380.6403,948.8271,375.705,941.25,381.9969" style="stroke:#181818;stroke-width:1.0;"/></g><!--MD5=[766de44c127d67c269e0e5bad3e2e7ae]
link Consult to Race--><g id="link_Consult_Race"><path codeLine="35" d="M945.08,308.2969 C937.78,324.4369 927.96,346.1169 920.19,363.2669 " fill="none" id="Consult-to-Race" style="stroke:#181818;stroke-width:1.0;"/><polygon fill="#181818" points="918.06,367.9769,925.4257,361.4388,920.129,363.425,918.1428,358.1284,918.06,367.9769" style="stroke:#181818;stroke-width:1.0;"/></g><!--MD5=[e411b63e9fce17c83545870915635e7f]
link Manage to Race--><g id="link_Manage_Race"><path codeLine="37" d="M94.06,303.2569 C99.86,305.1869 105.77,306.9469 111.5,308.2969 C396.62,375.7269 752.1,388.3869 868.58,390.7569 " fill="none" id="Manage-to-Race" style="stroke:#181818;stroke-width:1.0;"/><polygon fill="#181818" points="873.62,390.8569,864.6899,386.7032,868.6207,390.7712,864.5528,394.702,873.62,390.8569" style="stroke:#181818;stroke-width:1.0;"/></g><!--MD5=[8d22a264b1d458f793ad84cf56e8b974]
link Race to Distance--><g id="link_Race_Distance"><path codeLine="40" d="M861.9197,402.3232 C861.9197,402.3232 663.35,444.3169 555.5,476.2969 C553.91,476.7669 552.3,477.2569 550.68,477.7669 " fill="none" id="Race-Distance" style="stroke:#181818;stroke-width:1.0;"/><polygon fill="#181818" points="538.13,481.8469,547.9255,482.8705,542.8854,480.3021,545.4538,475.2619,538.13,481.8469" style="stroke:#181818;stroke-width:1.0;"/><line style="stroke:#181818;stroke-width:1.0;" x1="542.8854" x2="550.495" y1="480.3021" y2="477.8219"/><polygon fill="#181818" points="873.68,399.9369,867.0044,397.2099,861.9197,402.3232,868.5953,405.0502,873.68,399.9369" style="stroke:#181818;stroke-width:1.0;"/></g><!--MD5=[8593d6a5c3560d11be4b908e63e5dfbe]
link Race to AthleteCapacity--><g id="link_Race_AthleteCapacity"><path codeLine="41" d="M952.8294,403.952 C952.8294,403.952 1144.65,449.4969 1250.5,476.2969 C1251.99,476.6769 1253.49,477.0569 1255,477.4369 " fill="none" id="Race-AthleteCapacity" style="stroke:#181818;stroke-width:1.0;"/><polygon fill="#181818" points="1267.73,480.7169,1260.0045,474.6081,1262.8865,479.4758,1258.0188,482.3577,1267.73,480.7169" style="stroke:#181818;stroke-width:1.0;"/><line style="stroke:#181818;stroke-width:1.0;" x1="1262.8865" x2="1255.14" y1="479.4758" y2="477.4769"/><polygon fill="#181818" points="941.15,401.1969,946.0714,406.4676,952.8294,403.952,947.9081,398.6813,941.15,401.1969" style="stroke:#181818;stroke-width:1.0;"/></g><!--MD5=[edbfbe743c7fc77980287e7924ad1dd2]
link Race to Date--><g id="link_Race_Date"><path codeLine="42" d="M862.3223,406.6856 C862.3223,406.6856 726.92,448.8569 656.5,476.2969 C654.45,477.0969 652.36,477.9369 650.25,478.7969 " fill="none" id="Race-Date" style="stroke:#181818;stroke-width:1.0;"/><polygon fill="#181818" points="638.21,483.9369,648.0577,484.0852,642.8091,481.9752,644.9191,476.7266,638.21,483.9369" style="stroke:#181818;stroke-width:1.0;"/><line style="stroke:#181818;stroke-width:1.0;" x1="642.8091" x2="650.165" y1="481.9752" y2="478.8419"/><polygon fill="#181818" points="873.81,403.2169,866.9099,401.122,862.3223,406.6856,869.2224,408.7805,873.81,403.2169" style="stroke:#181818;stroke-width:1.0;"/></g><!--MD5=[12d87157ab46e978eba99b31a6236695]
link Race to Location--><g id="link_Race_Location"><path codeLine="43" d="M863.242,418.1137 C863.242,418.1137 799.69,453.7669 771.02,469.8469 " fill="none" id="Race-Location" style="stroke:#181818;stroke-width:1.0;"/><polygon fill="#181818" points="759.57,476.2669,769.3767,475.3561,763.9317,473.8224,765.4654,468.3774,759.57,476.2669" style="stroke:#181818;stroke-width:1.0;"/><line style="stroke:#181818;stroke-width:1.0;" x1="763.9317" x2="770.905" y1="473.8224" y2="469.9069"/><polygon fill="#181818" points="873.71,412.2469,866.5204,411.691,863.242,418.1137,870.4316,418.6697,873.71,412.2469" style="stroke:#181818;stroke-width:1.0;"/></g><!--MD5=[e63702b17efa877e97c567e3b8727b12]
link Race to Score--><g id="link_Race_Score"><path codeLine="44" d="M884.8521,426.1788 C884.8521,426.1788 866.46,452.8869 858.15,464.9569 " fill="none" id="Race-Score" style="stroke:#181818;stroke-width:1.0;"/><polygon fill="#181818" points="850.56,475.9769,858.9599,470.8347,853.3966,471.8594,852.3719,466.2961,850.56,475.9769" style="stroke:#181818;stroke-width:1.0;"/><line style="stroke:#181818;stroke-width:1.0;" x1="853.3966" x2="857.935" y1="471.8594" y2="465.2669"/><polygon fill="#181818" points="891.66,416.2969,884.9621,418.9686,884.8521,426.1788,891.5501,423.5071,891.66,416.2969" style="stroke:#181818;stroke-width:1.0;"/></g><!--MD5=[705270ac592e1243045b327c48162558]
link Race to Type--><g id="link_Race_Type"><path codeLine="45" d="M953.1124,396.5565 C953.1124,396.5565 1255.75,425.6769 1424.5,476.2969 C1426.33,476.8469 1428.18,477.4469 1430.04,478.0869 " fill="none" id="Race-Type" style="stroke:#181818;stroke-width:1.0;"/><polygon fill="#181818" points="1442.24,482.7869,1435.2791,475.8194,1437.5741,480.9898,1432.4037,483.2848,1442.24,482.7869" style="stroke:#181818;stroke-width:1.0;"/><line style="stroke:#181818;stroke-width:1.0;" x1="1437.5741" x2="1430.105" y1="480.9898" y2="478.1119"/><polygon fill="#181818" points="941.15,395.6069,946.8146,400.0691,953.1124,396.5565,947.4477,392.0942,941.15,395.6069" style="stroke:#181818;stroke-width:1.0;"/></g><!--MD5=[f74ac41f8e65a460acd910897c37c7bb]
link Race to ApplicationPeriod--><g id="link_Race_ApplicationPeriod"><path codeLine="46" d="M930.4221,426.1413 C930.4221,426.1413 949.1,452.8869 957.53,464.9569 " fill="none" id="Race-ApplicationPeriod" style="stroke:#181818;stroke-width:1.0;"/><polygon fill="#181818" points="965.22,475.9769,963.3462,466.3079,962.3571,471.8776,956.7874,470.8885,965.22,475.9769" style="stroke:#181818;stroke-width:1.0;"/><line style="stroke:#181818;stroke-width:1.0;" x1="962.3571" x2="957.78" y1="471.8776" y2="465.3119"/><polygon fill="#181818" points="923.56,416.2969,923.7096,423.5064,930.4221,426.1413,930.2725,418.9317,923.56,416.2969" style="stroke:#181818;stroke-width:1.0;"/></g><!--MD5=[e5714be867b65f6e1b8ca2a79d34adbc]
link Race to RegistrationInfo--><g id="link_Race_RegistrationInfo"><path codeLine="47" d="M952.1816,411.871 C952.1816,411.871 1049.88,452.4869 1094.6,471.0769 " fill="none" id="Race-RegistrationInfo" style="stroke:#181818;stroke-width:1.0;"/><polygon fill="#181818" points="1106.86,476.1669,1100.0835,469.0199,1102.2427,474.2485,1097.0141,476.4076,1106.86,476.1669" style="stroke:#181818;stroke-width:1.0;"/><line style="stroke:#181818;stroke-width:1.0;" x1="1102.2427" x2="1094.855" y1="474.2485" y2="471.1769"/><polygon fill="#181818" points="941.1,407.2669,945.1061,413.2628,952.1816,411.871,948.1755,405.8751,941.1,407.2669" style="stroke:#181818;stroke-width:1.0;"/></g><!--MD5=[b087527d04b27fae334fe5e89ff2b67a]
link Track to Race--><g id="link_Track_Race"><path codeLine="51" d="M725.66,193.7369 C754.33,208.3569 794.65,231.7969 823.5,260.2969 C854.39,290.8069 879.6,334.6369 894.09,363.0369 " fill="none" id="Track-to-Race" style="stroke:#181818;stroke-width:1.0;"/><polygon fill="#181818" points="896.49,367.8069,896.0176,357.9694,894.2425,363.3405,888.8714,361.5654,896.49,367.8069" style="stroke:#181818;stroke-width:1.0;"/></g><!--MD5=[723125675b31b30bd32f774e808b7585]
link Track to Athlete--><g id="link_Track_Athlete"><path codeLine="52" d="M725.7,176.2969 C786.96,176.2969 848.22,176.2969 909.49,176.2969 " fill="none" id="Track-to-Athlete" style="stroke:#181818;stroke-width:1.0;"/><polygon fill="#181818" points="914.66,176.2969,905.66,172.2969,909.66,176.2969,905.66,180.2969,914.66,176.2969" style="stroke:#181818;stroke-width:1.0;"/></g><!--MD5=[8d7e964ec22cdfd27c39419638ccfd24]
link Track to RegistrationDate_--><g id="link_Track_RegistrationDate_"><path codeLine="53" d="M667.0077,210.042 C667.0077,210.042 647.57,237.1669 638.85,249.3269 " fill="none" id="Track-RegistrationDate_" style="stroke:#181818;stroke-width:1.0;"/><polygon fill="#181818" points="631.22,259.9769,639.7156,254.9945,634.134,255.9138,633.2147,250.3321,631.22,259.9769" style="stroke:#181818;stroke-width:1.0;"/><line style="stroke:#181818;stroke-width:1.0;" x1="634.134" x2="638.795" y1="255.9138" y2="249.4069"/><polygon fill="#181818" points="674.01,200.2969,667.2605,202.8354,667.0077,210.042,673.7573,207.5035,674.01,200.2969" style="stroke:#181818;stroke-width:1.0;"/></g><!--MD5=[860877463f0bc93f1df9bb1b1cf8e811]
link Track to Dorsal--><g id="link_Track_Dorsal"><path codeLine="54" d="M644.1558,198.9315 C644.1558,198.9315 552.36,241.8069 513.75,259.8369 " fill="none" id="Track-Dorsal" style="stroke:#181818;stroke-width:1.0;"/><polygon fill="#181818" points="501.75,265.4369,511.5971,265.2511,506.2799,263.3203,508.2107,258.0032,501.75,265.4369" style="stroke:#181818;stroke-width:1.0;"/><line style="stroke:#181818;stroke-width:1.0;" x1="506.2799" x2="513.525" y1="263.3203" y2="259.9369"/><polygon fill="#181818" points="655.03,193.8569,647.9014,192.7695,644.1558,198.9315,651.2844,200.0189,655.03,193.8569" style="stroke:#181818;stroke-width:1.0;"/></g><!--MD5=[8f38138bc2fa095b4f74145647d2aa62]
link Track to PaymentInfo--><g id="link_Track_PaymentInfo"><path codeLine="55" d="M643.8049,190.9836 C643.8049,190.9836 490.72,235.9169 408.5,260.2969 C406.66,260.8469 404.8,261.3969 402.92,261.9569 " fill="none" id="Track-PaymentInfo" style="stroke:#181818;stroke-width:1.0;"/><polygon fill="#181818" points="390.35,265.6969,400.1177,266.9585,395.1415,264.2682,397.8318,259.292,390.35,265.6969" style="stroke:#181818;stroke-width:1.0;"/><line style="stroke:#181818;stroke-width:1.0;" x1="395.1415" x2="402.81" y1="264.2682" y2="261.9869"/><polygon fill="#181818" points="655.32,187.6069,648.4369,185.4569,643.8049,190.9836,650.688,193.1336,655.32,187.6069" style="stroke:#181818;stroke-width:1.0;"/></g><!--MD5=[10b5f8771d4433cc4ba1c85197577bb0]
link Track to Score_--><g id="link_Track_Score_"><path codeLine="56" d="M713.9923,210.042 C713.9923,210.042 733.43,237.1669 742.15,249.3269 " fill="none" id="Track-Score_" style="stroke:#181818;stroke-width:1.0;"/><polygon fill="#181818" points="749.78,259.9769,747.7853,250.3321,746.866,255.9138,741.2844,254.9945,749.78,259.9769" style="stroke:#181818;stroke-width:1.0;"/><line style="stroke:#181818;stroke-width:1.0;" x1="746.866" x2="742.205" y1="255.9138" y2="249.4069"/><polygon fill="#181818" points="706.99,200.2969,707.2427,207.5035,713.9923,210.042,713.7395,202.8354,706.99,200.2969" style="stroke:#181818;stroke-width:1.0;"/></g><!--MD5=[cfe11875bd0b12302a4c4917dab20bff]
link RegistrationInfo to RegistrationType--><g id="link_RegistrationInfo_RegistrationType"><path codeLine="58" d="M1112.1723,530.2875 C1112.1723,530.2875 1055.46,562.9569 1030.23,577.4969 " fill="none" id="RegistrationInfo-RegistrationType" style="stroke:#181818;stroke-width:1.0;"/><polygon fill="#181818" points="1018.66,584.1569,1028.4552,583.1299,1022.9924,581.6608,1024.4614,576.198,1018.66,584.1569" style="stroke:#181818;stroke-width:1.0;"/><line style="stroke:#181818;stroke-width:1.0;" x1="1022.9924" x2="1029.93" y1="581.6608" y2="577.6669"/><polygon fill="#181818" points="1122.57,524.2969,1115.3743,523.8262,1112.1723,530.2875,1119.368,530.7581,1122.57,524.2969" style="stroke:#181818;stroke-width:1.0;"/></g><!--MD5=[de41c6aeab30fe3ec517080e18e431e2]
link RegistrationInfo to RegistrationDate--><g id="link_RegistrationInfo_RegistrationDate"><path codeLine="59" d="M1162.5,536.2969 C1162.5,536.2969 1162.5,559.9769 1162.5,570.6569 " fill="none" id="RegistrationInfo-RegistrationDate" style="stroke:#181818;stroke-width:1.0;"/><polygon fill="#181818" points="1162.5,583.9769,1166.5,574.9769,1162.5,578.9769,1158.5,574.9769,1162.5,583.9769" style="stroke:#181818;stroke-width:1.0;"/><line style="stroke:#181818;stroke-width:1.0;" x1="1162.5" x2="1162.5" y1="578.9769" y2="570.9769"/><polygon fill="#181818" points="1162.5,524.2969,1158.5,530.2969,1162.5,536.2969,1166.5,530.2969,1162.5,524.2969" style="stroke:#181818;stroke-width:1.0;"/></g><!--MD5=[e175993a1b7d8365a5dd58cae71e3af2]
link RegistrationInfo to RegistrationCost--><g id="link_RegistrationInfo_RegistrationCost"><path codeLine="60" d="M1212.593,530.313 C1212.593,530.313 1268.96,562.9569 1294.05,577.4969 " fill="none" id="RegistrationInfo-RegistrationCost" style="stroke:#181818;stroke-width:1.0;"/><polygon fill="#181818" points="1305.55,584.1569,1299.7757,576.1783,1301.2261,581.6461,1295.7584,583.0965,1305.55,584.1569" style="stroke:#181818;stroke-width:1.0;"/><line style="stroke:#181818;stroke-width:1.0;" x1="1301.2261" x2="1294.305" y1="581.6461" y2="577.6419"/><polygon fill="#181818" points="1202.21,524.2969,1205.3961,530.7659,1212.593,530.313,1209.4069,523.8439,1202.21,524.2969" style="stroke:#181818;stroke-width:1.0;"/></g><!--MD5=[f7e2771519c667b35b8ad02ef916a1c2]
reverse link RegistrationType to ByDrawing--><g id="link_RegistrationType_ByDrawing"><path codeLine="62" d="M953.51,649.4269 C944.57,663.7969 934.79,679.5069 927.02,691.9769 " fill="none" id="RegistrationType-backto-ByDrawing" style="stroke:#181818;stroke-width:1.0;"/><polygon fill="none" points="947.67,645.5769,964.18,632.2969,959.55,652.9769,947.67,645.5769" style="stroke:#181818;stroke-width:1.0;"/></g><!--MD5=[56cec7f2b86664aedea991e86d33f179]
reverse link RegistrationType to ByOrder--><g id="link_RegistrationType_ByOrder"><path codeLine="63" d="M1003.49,649.4269 C1012.43,663.7969 1022.21,679.5069 1029.98,691.9769 " fill="none" id="RegistrationType-backto-ByOrder" style="stroke:#181818;stroke-width:1.0;"/><polygon fill="none" points="997.45,652.9769,992.82,632.2969,1009.33,645.5769,997.45,652.9769" style="stroke:#181818;stroke-width:1.0;"/></g><!--MD5=[23dcb61a6fdfba41b802371b814cd918]
link Organizer to Suscription--><g id="link_Organizer_Suscription"><path codeLine="66" d="M183.5,200.2969 C183.5,216.2969 183.5,237.7469 183.5,254.8269 " fill="none" id="Organizer-to-Suscription" style="stroke:#181818;stroke-width:1.0;"/><polygon fill="#181818" points="183.5,259.9769,187.5,250.9769,183.5,254.9769,179.5,250.9769,183.5,259.9769" style="stroke:#181818;stroke-width:1.0;"/></g><!--MD5=[0bf4ba37cab3a5d1133e8e6c5ea47ca9]
@startuml
title Your Race - Domain Model

class YourRace
class Athlete
class Organizer
class Race
class Track
class Distance
class Date
class Location
class Consult
class Manage
class Apply
class Score
class PaymentInfo
class Dorsal
class ApplicationPeriod
class TrackRecord
class Suscription
class RegistrationInfo

YourRace *- -> Athlete
YourRace *- -> Organizer

Organizer - -> Manage

Athlete ..> Apply
Athlete - -> Consult
Athlete *- -> TrackRecord

Apply *- -> ApplicationCode

Apply ..> Race

Consult - -> Race

Manage - -> Race


Race *- -> Distance
Race *- -> AthleteCapacity
Race *- -> Date
Race *- -> Location
Race *- -> Score
Race *- -> Type
Race *- -> ApplicationPeriod
Race *- -> RegistrationInfo



Track -right-> Race 
Track -right-> Athlete 
Track *- -> RegistrationDate_
Track *- -> Dorsal
Track *- -> PaymentInfo
Track *- -> Score_

RegistrationInfo *- -> RegistrationType
RegistrationInfo *- -> RegistrationDate
RegistrationInfo *- -> RegistrationCost

RegistrationType <|- - ByDrawing
RegistrationType <|- - ByOrder


Organizer - -> Suscription


@enduml

PlantUML version 1.2022.7(Mon Aug 22 19:01:30 CEST 2022)
(GPL source distribution)
Java Runtime: Java(TM) SE Runtime Environment
JVM: Java HotSpot(TM) 64-Bit Server VM
Default Encoding: UTF-8
Language: en
Country: US
--></g></svg>