<?xml version="1.0" encoding="UTF-8" standalone="no"?><svg xmlns="http://www.w3.org/2000/svg" xmlns:xlink="http://www.w3.org/1999/xlink" contentStyleType="text/css" height="747px" preserveAspectRatio="none" style="width:1557px;height:747px;background:#FFFFFF;" version="1.1" viewBox="0 0 1557 747" width="1557px" zoomAndPan="magnify"><defs/><g><rect fill="none" height="26.2969" id="_title" style="stroke:none;stroke-width:1.0;" width="216" x="663.5" y="5"/><text fill="#000000" font-family="sans-serif" font-size="14" font-weight="bold" lengthAdjust="spacing" textLength="206" x="668.5" y="22.9951">Your Race - Domain Model</text><!--MD5=[27e1e7f9c4820a0277e6c5de2c4c6668]
class YourRace--><g id="elem_YourRace"><rect codeLine="3" fill="#F1F1F1" height="48" id="YourRace" rx="2.5" ry="2.5" style="stroke:#181818;stroke-width:0.5;" width="99" x="538" y="44.2969"/><ellipse cx="553" cy="60.2969" fill="#ADD1B2" rx="11" ry="11" style="stroke:#181818;stroke-width:1.0;"/><path d="M555.9688,65.9375 Q555.3906,66.2344 554.75,66.375 Q554.1094,66.5313 553.4063,66.5313 Q550.9063,66.5313 549.5781,64.8906 Q548.2656,63.2344 548.2656,60.1094 Q548.2656,56.9844 549.5781,55.3281 Q550.9063,53.6719 553.4063,53.6719 Q554.1094,53.6719 554.75,53.8281 Q555.4063,53.9844 555.9688,54.2813 L555.9688,57 Q555.3438,56.4219 554.75,56.1563 Q554.1563,55.875 553.5313,55.875 Q552.1875,55.875 551.5,56.9531 Q550.8125,58.0156 550.8125,60.1094 Q550.8125,62.2031 551.5,63.2813 Q552.1875,64.3438 553.5313,64.3438 Q554.1563,64.3438 554.75,64.0781 Q555.3438,63.7969 555.9688,63.2188 L555.9688,65.9375 Z " fill="#000000"/><text fill="#000000" font-family="sans-serif" font-size="14" lengthAdjust="spacing" textLength="67" x="567" y="65.1436">YourRace</text><line style="stroke:#181818;stroke-width:0.5;" x1="539" x2="636" y1="76.2969" y2="76.2969"/><line style="stroke:#181818;stroke-width:0.5;" x1="539" x2="636" y1="84.2969" y2="84.2969"/></g><!--MD5=[069cecb0f107147f35d50ee2cc41a241]
class Athlete--><g id="elem_Athlete"><rect codeLine="4" fill="#F1F1F1" height="48" id="Athlete" rx="2.5" ry="2.5" style="stroke:#181818;stroke-width:0.5;" width="81" x="951" y="152.2969"/><ellipse cx="966" cy="168.2969" fill="#ADD1B2" rx="11" ry="11" style="stroke:#181818;stroke-width:1.0;"/><path d="M968.9688,173.9375 Q968.3906,174.2344 967.75,174.375 Q967.1094,174.5313 966.4063,174.5313 Q963.9063,174.5313 962.5781,172.8906 Q961.2656,171.2344 961.2656,168.1094 Q961.2656,164.9844 962.5781,163.3281 Q963.9063,161.6719 966.4063,161.6719 Q967.1094,161.6719 967.75,161.8281 Q968.4063,161.9844 968.9688,162.2813 L968.9688,165 Q968.3438,164.4219 967.75,164.1563 Q967.1563,163.875 966.5313,163.875 Q965.1875,163.875 964.5,164.9531 Q963.8125,166.0156 963.8125,168.1094 Q963.8125,170.2031 964.5,171.2813 Q965.1875,172.3438 966.5313,172.3438 Q967.1563,172.3438 967.75,172.0781 Q968.3438,171.7969 968.9688,171.2188 L968.9688,173.9375 Z " fill="#000000"/><text fill="#000000" font-family="sans-serif" font-size="14" lengthAdjust="spacing" textLength="49" x="980" y="173.1436">Athlete</text><line style="stroke:#181818;stroke-width:0.5;" x1="952" x2="1031" y1="184.2969" y2="184.2969"/><line style="stroke:#181818;stroke-width:0.5;" x1="952" x2="1031" y1="192.2969" y2="192.2969"/></g><!--MD5=[c943b7297f25d0ee4f831707c42d3ae4]
class Organizer--><g id="elem_Organizer"><rect codeLine="5" fill="#F1F1F1" height="48" id="Organizer" rx="2.5" ry="2.5" style="stroke:#181818;stroke-width:0.5;" width="99" x="134" y="152.2969"/><ellipse cx="149" cy="168.2969" fill="#ADD1B2" rx="11" ry="11" style="stroke:#181818;stroke-width:1.0;"/><path d="M151.9688,173.9375 Q151.3906,174.2344 150.75,174.375 Q150.1094,174.5313 149.4063,174.5313 Q146.9063,174.5313 145.5781,172.8906 Q144.2656,171.2344 144.2656,168.1094 Q144.2656,164.9844 145.5781,163.3281 Q146.9063,161.6719 149.4063,161.6719 Q150.1094,161.6719 150.75,161.8281 Q151.4063,161.9844 151.9688,162.2813 L151.9688,165 Q151.3438,164.4219 150.75,164.1563 Q150.1563,163.875 149.5313,163.875 Q148.1875,163.875 147.5,164.9531 Q146.8125,166.0156 146.8125,168.1094 Q146.8125,170.2031 147.5,171.2813 Q148.1875,172.3438 149.5313,172.3438 Q150.1563,172.3438 150.75,172.0781 Q151.3438,171.7969 151.9688,171.2188 L151.9688,173.9375 Z " fill="#000000"/><text fill="#000000" font-family="sans-serif" font-size="14" lengthAdjust="spacing" textLength="67" x="163" y="173.1436">Organizer</text><line style="stroke:#181818;stroke-width:0.5;" x1="135" x2="232" y1="184.2969" y2="184.2969"/><line style="stroke:#181818;stroke-width:0.5;" x1="135" x2="232" y1="192.2969" y2="192.2969"/></g><!--MD5=[02529dc4f79219f8425437af1389750d]
class Race--><g id="elem_Race"><rect codeLine="6" fill="#F1F1F1" height="48" id="Race" rx="2.5" ry="2.5" style="stroke:#181818;stroke-width:0.5;" width="67" x="910" y="368.2969"/><ellipse cx="925" cy="384.2969" fill="#ADD1B2" rx="11" ry="11" style="stroke:#181818;stroke-width:1.0;"/><path d="M927.9688,389.9375 Q927.3906,390.2344 926.75,390.375 Q926.1094,390.5313 925.4063,390.5313 Q922.9063,390.5313 921.5781,388.8906 Q920.2656,387.2344 920.2656,384.1094 Q920.2656,380.9844 921.5781,379.3281 Q922.9063,377.6719 925.4063,377.6719 Q926.1094,377.6719 926.75,377.8281 Q927.4063,377.9844 927.9688,378.2813 L927.9688,381 Q927.3438,380.4219 926.75,380.1563 Q926.1563,379.875 925.5313,379.875 Q924.1875,379.875 923.5,380.9531 Q922.8125,382.0156 922.8125,384.1094 Q922.8125,386.2031 923.5,387.2813 Q924.1875,388.3438 925.5313,388.3438 Q926.1563,388.3438 926.75,388.0781 Q927.3438,387.7969 927.9688,387.2188 L927.9688,389.9375 Z " fill="#000000"/><text fill="#000000" font-family="sans-serif" font-size="14" lengthAdjust="spacing" textLength="35" x="939" y="389.1436">Race</text><line style="stroke:#181818;stroke-width:0.5;" x1="911" x2="976" y1="400.2969" y2="400.2969"/><line style="stroke:#181818;stroke-width:0.5;" x1="911" x2="976" y1="408.2969" y2="408.2969"/></g><!--MD5=[3b034ebaa87c9ec5e8fb5410143f628f]
class Track--><g id="elem_Track"><rect codeLine="7" fill="#F1F1F1" height="48" id="Track" rx="2.5" ry="2.5" style="stroke:#181818;stroke-width:0.5;" width="70" x="622.5" y="152.2969"/><ellipse cx="637.5" cy="168.2969" fill="#ADD1B2" rx="11" ry="11" style="stroke:#181818;stroke-width:1.0;"/><path d="M640.4688,173.9375 Q639.8906,174.2344 639.25,174.375 Q638.6094,174.5313 637.9063,174.5313 Q635.4063,174.5313 634.0781,172.8906 Q632.7656,171.2344 632.7656,168.1094 Q632.7656,164.9844 634.0781,163.3281 Q635.4063,161.6719 637.9063,161.6719 Q638.6094,161.6719 639.25,161.8281 Q639.9063,161.9844 640.4688,162.2813 L640.4688,165 Q639.8438,164.4219 639.25,164.1563 Q638.6563,163.875 638.0313,163.875 Q636.6875,163.875 636,164.9531 Q635.3125,166.0156 635.3125,168.1094 Q635.3125,170.2031 636,171.2813 Q636.6875,172.3438 638.0313,172.3438 Q638.6563,172.3438 639.25,172.0781 Q639.8438,171.7969 640.4688,171.2188 L640.4688,173.9375 Z " fill="#000000"/><text fill="#000000" font-family="sans-serif" font-size="14" lengthAdjust="spacing" textLength="38" x="651.5" y="173.1436">Track</text><line style="stroke:#181818;stroke-width:0.5;" x1="623.5" x2="691.5" y1="184.2969" y2="184.2969"/><line style="stroke:#181818;stroke-width:0.5;" x1="623.5" x2="691.5" y1="192.2969" y2="192.2969"/></g><!--MD5=[cc15daeb8b4e6bacf34831777829d2c1]
class Distance--><g id="elem_Distance"><rect codeLine="8" fill="#F1F1F1" height="48" id="Distance" rx="2.5" ry="2.5" style="stroke:#181818;stroke-width:0.5;" width="93" x="514" y="476.2969"/><ellipse cx="529" cy="492.2969" fill="#ADD1B2" rx="11" ry="11" style="stroke:#181818;stroke-width:1.0;"/><path d="M531.9688,497.9375 Q531.3906,498.2344 530.75,498.375 Q530.1094,498.5313 529.4063,498.5313 Q526.9063,498.5313 525.5781,496.8906 Q524.2656,495.2344 524.2656,492.1094 Q524.2656,488.9844 525.5781,487.3281 Q526.9063,485.6719 529.4063,485.6719 Q530.1094,485.6719 530.75,485.8281 Q531.4063,485.9844 531.9688,486.2813 L531.9688,489 Q531.3438,488.4219 530.75,488.1563 Q530.1563,487.875 529.5313,487.875 Q528.1875,487.875 527.5,488.9531 Q526.8125,490.0156 526.8125,492.1094 Q526.8125,494.2031 527.5,495.2813 Q528.1875,496.3438 529.5313,496.3438 Q530.1563,496.3438 530.75,496.0781 Q531.3438,495.7969 531.9688,495.2188 L531.9688,497.9375 Z " fill="#000000"/><text fill="#000000" font-family="sans-serif" font-size="14" lengthAdjust="spacing" textLength="61" x="543" y="497.1436">Distance</text><line style="stroke:#181818;stroke-width:0.5;" x1="515" x2="606" y1="508.2969" y2="508.2969"/><line style="stroke:#181818;stroke-width:0.5;" x1="515" x2="606" y1="516.2969" y2="516.2969"/></g><!--MD5=[7829b64950ce38e0487c4015ea331f97]
class Date--><g id="elem_Date"><rect codeLine="9" fill="#F1F1F1" height="48" id="Date" rx="2.5" ry="2.5" style="stroke:#181818;stroke-width:0.5;" width="65" x="642" y="476.2969"/><ellipse cx="657" cy="492.2969" fill="#ADD1B2" rx="11" ry="11" style="stroke:#181818;stroke-width:1.0;"/><path d="M659.9688,497.9375 Q659.3906,498.2344 658.75,498.375 Q658.1094,498.5313 657.4063,498.5313 Q654.9063,498.5313 653.5781,496.8906 Q652.2656,495.2344 652.2656,492.1094 Q652.2656,488.9844 653.5781,487.3281 Q654.9063,485.6719 657.4063,485.6719 Q658.1094,485.6719 658.75,485.8281 Q659.4063,485.9844 659.9688,486.2813 L659.9688,489 Q659.3438,488.4219 658.75,488.1563 Q658.1563,487.875 657.5313,487.875 Q656.1875,487.875 655.5,488.9531 Q654.8125,490.0156 654.8125,492.1094 Q654.8125,494.2031 655.5,495.2813 Q656.1875,496.3438 657.5313,496.3438 Q658.1563,496.3438 658.75,496.0781 Q659.3438,495.7969 659.9688,495.2188 L659.9688,497.9375 Z " fill="#000000"/><text fill="#000000" font-family="sans-serif" font-size="14" lengthAdjust="spacing" textLength="33" x="671" y="497.1436">Date</text><line style="stroke:#181818;stroke-width:0.5;" x1="643" x2="706" y1="508.2969" y2="508.2969"/><line style="stroke:#181818;stroke-width:0.5;" x1="643" x2="706" y1="516.2969" y2="516.2969"/></g><!--MD5=[4f1f3706c1a355a8488e154afcaed5df]
class Location--><g id="elem_Location"><rect codeLine="10" fill="#F1F1F1" height="48" id="Location" rx="2.5" ry="2.5" style="stroke:#181818;stroke-width:0.5;" width="90" x="742.5" y="476.2969"/><ellipse cx="757.5" cy="492.2969" fill="#ADD1B2" rx="11" ry="11" style="stroke:#181818;stroke-width:1.0;"/><path d="M760.4688,497.9375 Q759.8906,498.2344 759.25,498.375 Q758.6094,498.5313 757.9063,498.5313 Q755.4063,498.5313 754.0781,496.8906 Q752.7656,495.2344 752.7656,492.1094 Q752.7656,488.9844 754.0781,487.3281 Q755.4063,485.6719 757.9063,485.6719 Q758.6094,485.6719 759.25,485.8281 Q759.9063,485.9844 760.4688,486.2813 L760.4688,489 Q759.8438,488.4219 759.25,488.1563 Q758.6563,487.875 758.0313,487.875 Q756.6875,487.875 756,488.9531 Q755.3125,490.0156 755.3125,492.1094 Q755.3125,494.2031 756,495.2813 Q756.6875,496.3438 758.0313,496.3438 Q758.6563,496.3438 759.25,496.0781 Q759.8438,495.7969 760.4688,495.2188 L760.4688,497.9375 Z " fill="#000000"/><text fill="#000000" font-family="sans-serif" font-size="14" lengthAdjust="spacing" textLength="58" x="771.5" y="497.1436">Location</text><line style="stroke:#181818;stroke-width:0.5;" x1="743.5" x2="831.5" y1="508.2969" y2="508.2969"/><line style="stroke:#181818;stroke-width:0.5;" x1="743.5" x2="831.5" y1="516.2969" y2="516.2969"/></g><!--MD5=[1582a1ceb3054ea3298fac38767ea8e7]
class Consult--><g id="elem_Consult"><rect codeLine="11" fill="#F1F1F1" height="48" id="Consult" rx="2.5" ry="2.5" style="stroke:#181818;stroke-width:0.5;" width="85" x="949" y="260.2969"/><ellipse cx="964" cy="276.2969" fill="#ADD1B2" rx="11" ry="11" style="stroke:#181818;stroke-width:1.0;"/><path d="M966.9688,281.9375 Q966.3906,282.2344 965.75,282.375 Q965.1094,282.5313 964.4063,282.5313 Q961.9063,282.5313 960.5781,280.8906 Q959.2656,279.2344 959.2656,276.1094 Q959.2656,272.9844 960.5781,271.3281 Q961.9063,269.6719 964.4063,269.6719 Q965.1094,269.6719 965.75,269.8281 Q966.4063,269.9844 966.9688,270.2813 L966.9688,273 Q966.3438,272.4219 965.75,272.1563 Q965.1563,271.875 964.5313,271.875 Q963.1875,271.875 962.5,272.9531 Q961.8125,274.0156 961.8125,276.1094 Q961.8125,278.2031 962.5,279.2813 Q963.1875,280.3438 964.5313,280.3438 Q965.1563,280.3438 965.75,280.0781 Q966.3438,279.7969 966.9688,279.2188 L966.9688,281.9375 Z " fill="#000000"/><text fill="#000000" font-family="sans-serif" font-size="14" lengthAdjust="spacing" textLength="53" x="978" y="281.1436">Consult</text><line style="stroke:#181818;stroke-width:0.5;" x1="950" x2="1033" y1="292.2969" y2="292.2969"/><line style="stroke:#181818;stroke-width:0.5;" x1="950" x2="1033" y1="300.2969" y2="300.2969"/></g><!--MD5=[ae82a2da8b56c6226c99c86cebc2591c]
class Manage--><g id="elem_Manage"><rect codeLine="12" fill="#F1F1F1" height="48" id="Manage" rx="2.5" ry="2.5" style="stroke:#181818;stroke-width:0.5;" width="87" x="7" y="260.2969"/><ellipse cx="22" cy="276.2969" fill="#ADD1B2" rx="11" ry="11" style="stroke:#181818;stroke-width:1.0;"/><path d="M24.9688,281.9375 Q24.3906,282.2344 23.75,282.375 Q23.1094,282.5313 22.4063,282.5313 Q19.9063,282.5313 18.5781,280.8906 Q17.2656,279.2344 17.2656,276.1094 Q17.2656,272.9844 18.5781,271.3281 Q19.9063,269.6719 22.4063,269.6719 Q23.1094,269.6719 23.75,269.8281 Q24.4063,269.9844 24.9688,270.2813 L24.9688,273 Q24.3438,272.4219 23.75,272.1563 Q23.1563,271.875 22.5313,271.875 Q21.1875,271.875 20.5,272.9531 Q19.8125,274.0156 19.8125,276.1094 Q19.8125,278.2031 20.5,279.2813 Q21.1875,280.3438 22.5313,280.3438 Q23.1563,280.3438 23.75,280.0781 Q24.3438,279.7969 24.9688,279.2188 L24.9688,281.9375 Z " fill="#000000"/><text fill="#000000" font-family="sans-serif" font-size="14" lengthAdjust="spacing" textLength="55" x="36" y="281.1436">Manage</text><line style="stroke:#181818;stroke-width:0.5;" x1="8" x2="93" y1="292.2969" y2="292.2969"/><line style="stroke:#181818;stroke-width:0.5;" x1="8" x2="93" y1="300.2969" y2="300.2969"/></g><!--MD5=[6584eb4189611289abbb06941f844685]
class Apply--><g id="elem_Apply"><rect codeLine="13" fill="#F1F1F1" height="48" id="Apply" rx="2.5" ry="2.5" style="stroke:#181818;stroke-width:0.5;" width="69" x="1225" y="260.2969"/><ellipse cx="1240" cy="276.2969" fill="#ADD1B2" rx="11" ry="11" style="stroke:#181818;stroke-width:1.0;"/><path d="M1242.9688,281.9375 Q1242.3906,282.2344 1241.75,282.375 Q1241.1094,282.5313 1240.4063,282.5313 Q1237.9063,282.5313 1236.5781,280.8906 Q1235.2656,279.2344 1235.2656,276.1094 Q1235.2656,272.9844 1236.5781,271.3281 Q1237.9063,269.6719 1240.4063,269.6719 Q1241.1094,269.6719 1241.75,269.8281 Q1242.4063,269.9844 1242.9688,270.2813 L1242.9688,273 Q1242.3438,272.4219 1241.75,272.1563 Q1241.1563,271.875 1240.5313,271.875 Q1239.1875,271.875 1238.5,272.9531 Q1237.8125,274.0156 1237.8125,276.1094 Q1237.8125,278.2031 1238.5,279.2813 Q1239.1875,280.3438 1240.5313,280.3438 Q1241.1563,280.3438 1241.75,280.0781 Q1242.3438,279.7969 1242.9688,279.2188 L1242.9688,281.9375 Z " fill="#000000"/><text fill="#000000" font-family="sans-serif" font-size="14" lengthAdjust="spacing" textLength="37" x="1254" y="281.1436">Apply</text><line style="stroke:#181818;stroke-width:0.5;" x1="1226" x2="1293" y1="292.2969" y2="292.2969"/><line style="stroke:#181818;stroke-width:0.5;" x1="1226" x2="1293" y1="300.2969" y2="300.2969"/></g><!--MD5=[107af66394bf1ebaa045812c9c475148]
class Score--><g id="elem_Score"><rect codeLine="14" fill="#F1F1F1" height="48" id="Score" rx="2.5" ry="2.5" style="stroke:#181818;stroke-width:0.5;" width="72" x="273.5" y="260.2969"/><ellipse cx="288.5" cy="276.2969" fill="#ADD1B2" rx="11" ry="11" style="stroke:#181818;stroke-width:1.0;"/><path d="M291.4688,281.9375 Q290.8906,282.2344 290.25,282.375 Q289.6094,282.5313 288.9063,282.5313 Q286.4063,282.5313 285.0781,280.8906 Q283.7656,279.2344 283.7656,276.1094 Q283.7656,272.9844 285.0781,271.3281 Q286.4063,269.6719 288.9063,269.6719 Q289.6094,269.6719 290.25,269.8281 Q290.9063,269.9844 291.4688,270.2813 L291.4688,273 Q290.8438,272.4219 290.25,272.1563 Q289.6563,271.875 289.0313,271.875 Q287.6875,271.875 287,272.9531 Q286.3125,274.0156 286.3125,276.1094 Q286.3125,278.2031 287,279.2813 Q287.6875,280.3438 289.0313,280.3438 Q289.6563,280.3438 290.25,280.0781 Q290.8438,279.7969 291.4688,279.2188 L291.4688,281.9375 Z " fill="#000000"/><text fill="#000000" font-family="sans-serif" font-size="14" lengthAdjust="spacing" textLength="40" x="302.5" y="281.1436">Score</text><line style="stroke:#181818;stroke-width:0.5;" x1="274.5" x2="344.5" y1="292.2969" y2="292.2969"/><line style="stroke:#181818;stroke-width:0.5;" x1="274.5" x2="344.5" y1="300.2969" y2="300.2969"/></g><!--MD5=[75608257a5c34eea21c80da2dd697475]
class PaymentInfo--><g id="elem_PaymentInfo"><rect codeLine="15" fill="#F1F1F1" height="48" id="PaymentInfo" rx="2.5" ry="2.5" style="stroke:#181818;stroke-width:0.5;" width="117" x="381" y="260.2969"/><ellipse cx="396" cy="276.2969" fill="#ADD1B2" rx="11" ry="11" style="stroke:#181818;stroke-width:1.0;"/><path d="M398.9688,281.9375 Q398.3906,282.2344 397.75,282.375 Q397.1094,282.5313 396.4063,282.5313 Q393.9063,282.5313 392.5781,280.8906 Q391.2656,279.2344 391.2656,276.1094 Q391.2656,272.9844 392.5781,271.3281 Q393.9063,269.6719 396.4063,269.6719 Q397.1094,269.6719 397.75,269.8281 Q398.4063,269.9844 398.9688,270.2813 L398.9688,273 Q398.3438,272.4219 397.75,272.1563 Q397.1563,271.875 396.5313,271.875 Q395.1875,271.875 394.5,272.9531 Q393.8125,274.0156 393.8125,276.1094 Q393.8125,278.2031 394.5,279.2813 Q395.1875,280.3438 396.5313,280.3438 Q397.1563,280.3438 397.75,280.0781 Q398.3438,279.7969 398.9688,279.2188 L398.9688,281.9375 Z " fill="#000000"/><text fill="#000000" font-family="sans-serif" font-size="14" lengthAdjust="spacing" textLength="85" x="410" y="281.1436">PaymentInfo</text><line style="stroke:#181818;stroke-width:0.5;" x1="382" x2="497" y1="292.2969" y2="292.2969"/><line style="stroke:#181818;stroke-width:0.5;" x1="382" x2="497" y1="300.2969" y2="300.2969"/></g><!--MD5=[7181b6cfacae2bce8e581b6d37db2178]
class Dorsal--><g id="elem_Dorsal"><rect codeLine="16" fill="#F1F1F1" height="48" id="Dorsal" rx="2.5" ry="2.5" style="stroke:#181818;stroke-width:0.5;" width="76" x="533.5" y="260.2969"/><ellipse cx="548.5" cy="276.2969" fill="#ADD1B2" rx="11" ry="11" style="stroke:#181818;stroke-width:1.0;"/><path d="M551.4688,281.9375 Q550.8906,282.2344 550.25,282.375 Q549.6094,282.5313 548.9063,282.5313 Q546.4063,282.5313 545.0781,280.8906 Q543.7656,279.2344 543.7656,276.1094 Q543.7656,272.9844 545.0781,271.3281 Q546.4063,269.6719 548.9063,269.6719 Q549.6094,269.6719 550.25,269.8281 Q550.9063,269.9844 551.4688,270.2813 L551.4688,273 Q550.8438,272.4219 550.25,272.1563 Q549.6563,271.875 549.0313,271.875 Q547.6875,271.875 547,272.9531 Q546.3125,274.0156 546.3125,276.1094 Q546.3125,278.2031 547,279.2813 Q547.6875,280.3438 549.0313,280.3438 Q549.6563,280.3438 550.25,280.0781 Q550.8438,279.7969 551.4688,279.2188 L551.4688,281.9375 Z " fill="#000000"/><text fill="#000000" font-family="sans-serif" font-size="14" lengthAdjust="spacing" textLength="44" x="562.5" y="281.1436">Dorsal</text><line style="stroke:#181818;stroke-width:0.5;" x1="534.5" x2="608.5" y1="292.2969" y2="292.2969"/><line style="stroke:#181818;stroke-width:0.5;" x1="534.5" x2="608.5" y1="300.2969" y2="300.2969"/></g><!--MD5=[4879bc36ecaf6732470680c23d16b6d6]
class ApplicationPeriod--><g id="elem_ApplicationPeriod"><rect codeLine="17" fill="#F1F1F1" height="48" id="ApplicationPeriod" rx="2.5" ry="2.5" style="stroke:#181818;stroke-width:0.5;" width="151" x="868" y="476.2969"/><ellipse cx="883" cy="492.2969" fill="#ADD1B2" rx="11" ry="11" style="stroke:#181818;stroke-width:1.0;"/><path d="M885.9688,497.9375 Q885.3906,498.2344 884.75,498.375 Q884.1094,498.5313 883.4063,498.5313 Q880.9063,498.5313 879.5781,496.8906 Q878.2656,495.2344 878.2656,492.1094 Q878.2656,488.9844 879.5781,487.3281 Q880.9063,485.6719 883.4063,485.6719 Q884.1094,485.6719 884.75,485.8281 Q885.4063,485.9844 885.9688,486.2813 L885.9688,489 Q885.3438,488.4219 884.75,488.1563 Q884.1563,487.875 883.5313,487.875 Q882.1875,487.875 881.5,488.9531 Q880.8125,490.0156 880.8125,492.1094 Q880.8125,494.2031 881.5,495.2813 Q882.1875,496.3438 883.5313,496.3438 Q884.1563,496.3438 884.75,496.0781 Q885.3438,495.7969 885.9688,495.2188 L885.9688,497.9375 Z " fill="#000000"/><text fill="#000000" font-family="sans-serif" font-size="14" lengthAdjust="spacing" textLength="119" x="897" y="497.1436">ApplicationPeriod</text><line style="stroke:#181818;stroke-width:0.5;" x1="869" x2="1018" y1="508.2969" y2="508.2969"/><line style="stroke:#181818;stroke-width:0.5;" x1="869" x2="1018" y1="516.2969" y2="516.2969"/></g><!--MD5=[fa2f63ccaf221ae7736318ef25f3047e]
class TrackRecord--><g id="elem_TrackRecord"><rect codeLine="18" fill="#F1F1F1" height="48" id="TrackRecord" rx="2.5" ry="2.5" style="stroke:#181818;stroke-width:0.5;" width="120" x="1069.5" y="260.2969"/><ellipse cx="1084.5" cy="276.2969" fill="#ADD1B2" rx="11" ry="11" style="stroke:#181818;stroke-width:1.0;"/><path d="M1087.4688,281.9375 Q1086.8906,282.2344 1086.25,282.375 Q1085.6094,282.5313 1084.9063,282.5313 Q1082.4063,282.5313 1081.0781,280.8906 Q1079.7656,279.2344 1079.7656,276.1094 Q1079.7656,272.9844 1081.0781,271.3281 Q1082.4063,269.6719 1084.9063,269.6719 Q1085.6094,269.6719 1086.25,269.8281 Q1086.9063,269.9844 1087.4688,270.2813 L1087.4688,273 Q1086.8438,272.4219 1086.25,272.1563 Q1085.6563,271.875 1085.0313,271.875 Q1083.6875,271.875 1083,272.9531 Q1082.3125,274.0156 1082.3125,276.1094 Q1082.3125,278.2031 1083,279.2813 Q1083.6875,280.3438 1085.0313,280.3438 Q1085.6563,280.3438 1086.25,280.0781 Q1086.8438,279.7969 1087.4688,279.2188 L1087.4688,281.9375 Z " fill="#000000"/><text fill="#000000" font-family="sans-serif" font-size="14" lengthAdjust="spacing" textLength="88" x="1098.5" y="281.1436">TrackRecord</text><line style="stroke:#181818;stroke-width:0.5;" x1="1070.5" x2="1188.5" y1="292.2969" y2="292.2969"/><line style="stroke:#181818;stroke-width:0.5;" x1="1070.5" x2="1188.5" y1="300.2969" y2="300.2969"/></g><!--MD5=[daaf474a872145e7245538cddd912e0c]
class Suscription--><g id="elem_Suscription"><rect codeLine="19" fill="#F1F1F1" height="48" id="Suscription" rx="2.5" ry="2.5" style="stroke:#181818;stroke-width:0.5;" width="109" x="129" y="260.2969"/><ellipse cx="144" cy="276.2969" fill="#ADD1B2" rx="11" ry="11" style="stroke:#181818;stroke-width:1.0;"/><path d="M146.9688,281.9375 Q146.3906,282.2344 145.75,282.375 Q145.1094,282.5313 144.4063,282.5313 Q141.9063,282.5313 140.5781,280.8906 Q139.2656,279.2344 139.2656,276.1094 Q139.2656,272.9844 140.5781,271.3281 Q141.9063,269.6719 144.4063,269.6719 Q145.1094,269.6719 145.75,269.8281 Q146.4063,269.9844 146.9688,270.2813 L146.9688,273 Q146.3438,272.4219 145.75,272.1563 Q145.1563,271.875 144.5313,271.875 Q143.1875,271.875 142.5,272.9531 Q141.8125,274.0156 141.8125,276.1094 Q141.8125,278.2031 142.5,279.2813 Q143.1875,280.3438 144.5313,280.3438 Q145.1563,280.3438 145.75,280.0781 Q146.3438,279.7969 146.9688,279.2188 L146.9688,281.9375 Z " fill="#000000"/><text fill="#000000" font-family="sans-serif" font-size="14" lengthAdjust="spacing" textLength="77" x="158" y="281.1436">Suscription</text><line style="stroke:#181818;stroke-width:0.5;" x1="130" x2="237" y1="292.2969" y2="292.2969"/><line style="stroke:#181818;stroke-width:0.5;" x1="130" x2="237" y1="300.2969" y2="300.2969"/></g><!--MD5=[1537e7b3e760210491ed7d5f83b83174]
class Registration--><g id="elem_Registration"><rect codeLine="20" fill="#F1F1F1" height="48" id="Registration" rx="2.5" ry="2.5" style="stroke:#181818;stroke-width:0.5;" width="115" x="1054" y="476.2969"/><ellipse cx="1069" cy="492.2969" fill="#ADD1B2" rx="11" ry="11" style="stroke:#181818;stroke-width:1.0;"/><path d="M1071.9688,497.9375 Q1071.3906,498.2344 1070.75,498.375 Q1070.1094,498.5313 1069.4063,498.5313 Q1066.9063,498.5313 1065.5781,496.8906 Q1064.2656,495.2344 1064.2656,492.1094 Q1064.2656,488.9844 1065.5781,487.3281 Q1066.9063,485.6719 1069.4063,485.6719 Q1070.1094,485.6719 1070.75,485.8281 Q1071.4063,485.9844 1071.9688,486.2813 L1071.9688,489 Q1071.3438,488.4219 1070.75,488.1563 Q1070.1563,487.875 1069.5313,487.875 Q1068.1875,487.875 1067.5,488.9531 Q1066.8125,490.0156 1066.8125,492.1094 Q1066.8125,494.2031 1067.5,495.2813 Q1068.1875,496.3438 1069.5313,496.3438 Q1070.1563,496.3438 1070.75,496.0781 Q1071.3438,495.7969 1071.9688,495.2188 L1071.9688,497.9375 Z " fill="#000000"/><text fill="#000000" font-family="sans-serif" font-size="14" lengthAdjust="spacing" textLength="83" x="1083" y="497.1436">Registration</text><line style="stroke:#181818;stroke-width:0.5;" x1="1055" x2="1168" y1="508.2969" y2="508.2969"/><line style="stroke:#181818;stroke-width:0.5;" x1="1055" x2="1168" y1="516.2969" y2="516.2969"/></g><!--MD5=[1eb16f587f0be04f87e5494aaa8d5362]
class ApplicationCode--><g id="elem_ApplicationCode"><rect fill="#F1F1F1" height="48" id="ApplicationCode" rx="2.5" ry="2.5" style="stroke:#181818;stroke-width:0.5;" width="144" x="1187.5" y="368.2969"/><ellipse cx="1202.5" cy="384.2969" fill="#ADD1B2" rx="11" ry="11" style="stroke:#181818;stroke-width:1.0;"/><path d="M1205.4688,389.9375 Q1204.8906,390.2344 1204.25,390.375 Q1203.6094,390.5313 1202.9063,390.5313 Q1200.4063,390.5313 1199.0781,388.8906 Q1197.7656,387.2344 1197.7656,384.1094 Q1197.7656,380.9844 1199.0781,379.3281 Q1200.4063,377.6719 1202.9063,377.6719 Q1203.6094,377.6719 1204.25,377.8281 Q1204.9063,377.9844 1205.4688,378.2813 L1205.4688,381 Q1204.8438,380.4219 1204.25,380.1563 Q1203.6563,379.875 1203.0313,379.875 Q1201.6875,379.875 1201,380.9531 Q1200.3125,382.0156 1200.3125,384.1094 Q1200.3125,386.2031 1201,387.2813 Q1201.6875,388.3438 1203.0313,388.3438 Q1203.6563,388.3438 1204.25,388.0781 Q1204.8438,387.7969 1205.4688,387.2188 L1205.4688,389.9375 Z " fill="#000000"/><text fill="#000000" font-family="sans-serif" font-size="14" lengthAdjust="spacing" textLength="112" x="1216.5" y="389.1436">ApplicationCode</text><line style="stroke:#181818;stroke-width:0.5;" x1="1188.5" x2="1330.5" y1="400.2969" y2="400.2969"/><line style="stroke:#181818;stroke-width:0.5;" x1="1188.5" x2="1330.5" y1="408.2969" y2="408.2969"/></g><!--MD5=[7fa87c15454b6b26abd290c64b708ccb]
class AthleteCapacity--><g id="elem_AthleteCapacity"><rect fill="#F1F1F1" height="48" id="AthleteCapacity" rx="2.5" ry="2.5" style="stroke:#181818;stroke-width:0.5;" width="139" x="1204" y="476.2969"/><ellipse cx="1219" cy="492.2969" fill="#ADD1B2" rx="11" ry="11" style="stroke:#181818;stroke-width:1.0;"/><path d="M1221.9688,497.9375 Q1221.3906,498.2344 1220.75,498.375 Q1220.1094,498.5313 1219.4063,498.5313 Q1216.9063,498.5313 1215.5781,496.8906 Q1214.2656,495.2344 1214.2656,492.1094 Q1214.2656,488.9844 1215.5781,487.3281 Q1216.9063,485.6719 1219.4063,485.6719 Q1220.1094,485.6719 1220.75,485.8281 Q1221.4063,485.9844 1221.9688,486.2813 L1221.9688,489 Q1221.3438,488.4219 1220.75,488.1563 Q1220.1563,487.875 1219.5313,487.875 Q1218.1875,487.875 1217.5,488.9531 Q1216.8125,490.0156 1216.8125,492.1094 Q1216.8125,494.2031 1217.5,495.2813 Q1218.1875,496.3438 1219.5313,496.3438 Q1220.1563,496.3438 1220.75,496.0781 Q1221.3438,495.7969 1221.9688,495.2188 L1221.9688,497.9375 Z " fill="#000000"/><text fill="#000000" font-family="sans-serif" font-size="14" lengthAdjust="spacing" textLength="107" x="1233" y="497.1436">AthleteCapacity</text><line style="stroke:#181818;stroke-width:0.5;" x1="1205" x2="1342" y1="508.2969" y2="508.2969"/><line style="stroke:#181818;stroke-width:0.5;" x1="1205" x2="1342" y1="516.2969" y2="516.2969"/></g><!--MD5=[4296a1ab0576a383a1a509d52c22ebf0]
class Type--><g id="elem_Type"><rect fill="#F1F1F1" height="48" id="Type" rx="2.5" ry="2.5" style="stroke:#181818;stroke-width:0.5;" width="66" x="1378.5" y="476.2969"/><ellipse cx="1393.5" cy="492.2969" fill="#ADD1B2" rx="11" ry="11" style="stroke:#181818;stroke-width:1.0;"/><path d="M1396.4688,497.9375 Q1395.8906,498.2344 1395.25,498.375 Q1394.6094,498.5313 1393.9063,498.5313 Q1391.4063,498.5313 1390.0781,496.8906 Q1388.7656,495.2344 1388.7656,492.1094 Q1388.7656,488.9844 1390.0781,487.3281 Q1391.4063,485.6719 1393.9063,485.6719 Q1394.6094,485.6719 1395.25,485.8281 Q1395.9063,485.9844 1396.4688,486.2813 L1396.4688,489 Q1395.8438,488.4219 1395.25,488.1563 Q1394.6563,487.875 1394.0313,487.875 Q1392.6875,487.875 1392,488.9531 Q1391.3125,490.0156 1391.3125,492.1094 Q1391.3125,494.2031 1392,495.2813 Q1392.6875,496.3438 1394.0313,496.3438 Q1394.6563,496.3438 1395.25,496.0781 Q1395.8438,495.7969 1396.4688,495.2188 L1396.4688,497.9375 Z " fill="#000000"/><text fill="#000000" font-family="sans-serif" font-size="14" lengthAdjust="spacing" textLength="34" x="1407.5" y="497.1436">Type</text><line style="stroke:#181818;stroke-width:0.5;" x1="1379.5" x2="1443.5" y1="508.2969" y2="508.2969"/><line style="stroke:#181818;stroke-width:0.5;" x1="1379.5" x2="1443.5" y1="516.2969" y2="516.2969"/></g><!--MD5=[ff1ec4984a10357ff87efd790c997cab]
class AthleteRegistrationDate--><g id="elem_AthleteRegistrationDate"><rect fill="#F1F1F1" height="48" id="AthleteRegistrationDate" rx="2.5" ry="2.5" style="stroke:#181818;stroke-width:0.5;" width="197" x="645" y="260.2969"/><ellipse cx="660" cy="276.2969" fill="#ADD1B2" rx="11" ry="11" style="stroke:#181818;stroke-width:1.0;"/><path d="M662.9688,281.9375 Q662.3906,282.2344 661.75,282.375 Q661.1094,282.5313 660.4063,282.5313 Q657.9063,282.5313 656.5781,280.8906 Q655.2656,279.2344 655.2656,276.1094 Q655.2656,272.9844 656.5781,271.3281 Q657.9063,269.6719 660.4063,269.6719 Q661.1094,269.6719 661.75,269.8281 Q662.4063,269.9844 662.9688,270.2813 L662.9688,273 Q662.3438,272.4219 661.75,272.1563 Q661.1563,271.875 660.5313,271.875 Q659.1875,271.875 658.5,272.9531 Q657.8125,274.0156 657.8125,276.1094 Q657.8125,278.2031 658.5,279.2813 Q659.1875,280.3438 660.5313,280.3438 Q661.1563,280.3438 661.75,280.0781 Q662.3438,279.7969 662.9688,279.2188 L662.9688,281.9375 Z " fill="#000000"/><text fill="#000000" font-family="sans-serif" font-size="14" lengthAdjust="spacing" textLength="165" x="674" y="281.1436">AthleteRegistrationDate</text><line style="stroke:#181818;stroke-width:0.5;" x1="646" x2="841" y1="292.2969" y2="292.2969"/><line style="stroke:#181818;stroke-width:0.5;" x1="646" x2="841" y1="300.2969" y2="300.2969"/></g><!--MD5=[d40c1293bf545fb669cd4f076a63ddfc]
class RegistrationType--><g id="elem_RegistrationType"><rect fill="#F1F1F1" height="48" id="RegistrationType" rx="2.5" ry="2.5" style="stroke:#181818;stroke-width:0.5;" width="149" x="761" y="584.2969"/><ellipse cx="776" cy="600.2969" fill="#ADD1B2" rx="11" ry="11" style="stroke:#181818;stroke-width:1.0;"/><path d="M778.9688,605.9375 Q778.3906,606.2344 777.75,606.375 Q777.1094,606.5313 776.4063,606.5313 Q773.9063,606.5313 772.5781,604.8906 Q771.2656,603.2344 771.2656,600.1094 Q771.2656,596.9844 772.5781,595.3281 Q773.9063,593.6719 776.4063,593.6719 Q777.1094,593.6719 777.75,593.8281 Q778.4063,593.9844 778.9688,594.2813 L778.9688,597 Q778.3438,596.4219 777.75,596.1563 Q777.1563,595.875 776.5313,595.875 Q775.1875,595.875 774.5,596.9531 Q773.8125,598.0156 773.8125,600.1094 Q773.8125,602.2031 774.5,603.2813 Q775.1875,604.3438 776.5313,604.3438 Q777.1563,604.3438 777.75,604.0781 Q778.3438,603.7969 778.9688,603.2188 L778.9688,605.9375 Z " fill="#000000"/><text fill="#000000" font-family="sans-serif" font-size="14" lengthAdjust="spacing" textLength="117" x="790" y="605.1436">RegistrationType</text><line style="stroke:#181818;stroke-width:0.5;" x1="762" x2="909" y1="616.2969" y2="616.2969"/><line style="stroke:#181818;stroke-width:0.5;" x1="762" x2="909" y1="624.2969" y2="624.2969"/></g><!--MD5=[b12e0ef570f00e2cf0640b1aecbc69b7]
class RegistrationDate--><g id="elem_RegistrationDate"><rect fill="#F1F1F1" height="48" id="RegistrationDate" rx="2.5" ry="2.5" style="stroke:#181818;stroke-width:0.5;" width="148" x="945.5" y="584.2969"/><ellipse cx="960.5" cy="600.2969" fill="#ADD1B2" rx="11" ry="11" style="stroke:#181818;stroke-width:1.0;"/><path d="M963.4688,605.9375 Q962.8906,606.2344 962.25,606.375 Q961.6094,606.5313 960.9063,606.5313 Q958.4063,606.5313 957.0781,604.8906 Q955.7656,603.2344 955.7656,600.1094 Q955.7656,596.9844 957.0781,595.3281 Q958.4063,593.6719 960.9063,593.6719 Q961.6094,593.6719 962.25,593.8281 Q962.9063,593.9844 963.4688,594.2813 L963.4688,597 Q962.8438,596.4219 962.25,596.1563 Q961.6563,595.875 961.0313,595.875 Q959.6875,595.875 959,596.9531 Q958.3125,598.0156 958.3125,600.1094 Q958.3125,602.2031 959,603.2813 Q959.6875,604.3438 961.0313,604.3438 Q961.6563,604.3438 962.25,604.0781 Q962.8438,603.7969 963.4688,603.2188 L963.4688,605.9375 Z " fill="#000000"/><text fill="#000000" font-family="sans-serif" font-size="14" lengthAdjust="spacing" textLength="116" x="974.5" y="605.1436">RegistrationDate</text><line style="stroke:#181818;stroke-width:0.5;" x1="946.5" x2="1092.5" y1="616.2969" y2="616.2969"/><line style="stroke:#181818;stroke-width:0.5;" x1="946.5" x2="1092.5" y1="624.2969" y2="624.2969"/></g><!--MD5=[a071edbadeaaf875ef26ba4cdee01b34]
class RegistrationCost--><g id="elem_RegistrationCost"><rect fill="#F1F1F1" height="48" id="RegistrationCost" rx="2.5" ry="2.5" style="stroke:#181818;stroke-width:0.5;" width="147" x="1129" y="584.2969"/><ellipse cx="1144" cy="600.2969" fill="#ADD1B2" rx="11" ry="11" style="stroke:#181818;stroke-width:1.0;"/><path d="M1146.9688,605.9375 Q1146.3906,606.2344 1145.75,606.375 Q1145.1094,606.5313 1144.4063,606.5313 Q1141.9063,606.5313 1140.5781,604.8906 Q1139.2656,603.2344 1139.2656,600.1094 Q1139.2656,596.9844 1140.5781,595.3281 Q1141.9063,593.6719 1144.4063,593.6719 Q1145.1094,593.6719 1145.75,593.8281 Q1146.4063,593.9844 1146.9688,594.2813 L1146.9688,597 Q1146.3438,596.4219 1145.75,596.1563 Q1145.1563,595.875 1144.5313,595.875 Q1143.1875,595.875 1142.5,596.9531 Q1141.8125,598.0156 1141.8125,600.1094 Q1141.8125,602.2031 1142.5,603.2813 Q1143.1875,604.3438 1144.5313,604.3438 Q1145.1563,604.3438 1145.75,604.0781 Q1146.3438,603.7969 1146.9688,603.2188 L1146.9688,605.9375 Z " fill="#000000"/><text fill="#000000" font-family="sans-serif" font-size="14" lengthAdjust="spacing" textLength="115" x="1158" y="605.1436">RegistrationCost</text><line style="stroke:#181818;stroke-width:0.5;" x1="1130" x2="1275" y1="616.2969" y2="616.2969"/><line style="stroke:#181818;stroke-width:0.5;" x1="1130" x2="1275" y1="624.2969" y2="624.2969"/></g><!--MD5=[77d8c8cc986ef6c3a7389f6b227c7f04]
class ConcurrentRequestThreshold--><g id="elem_ConcurrentRequestThreshold"><rect fill="#F1F1F1" height="48" id="ConcurrentRequestThreshold" rx="2.5" ry="2.5" style="stroke:#181818;stroke-width:0.5;" width="239" x="1311" y="584.2969"/><ellipse cx="1326" cy="600.2969" fill="#ADD1B2" rx="11" ry="11" style="stroke:#181818;stroke-width:1.0;"/><path d="M1328.9688,605.9375 Q1328.3906,606.2344 1327.75,606.375 Q1327.1094,606.5313 1326.4063,606.5313 Q1323.9063,606.5313 1322.5781,604.8906 Q1321.2656,603.2344 1321.2656,600.1094 Q1321.2656,596.9844 1322.5781,595.3281 Q1323.9063,593.6719 1326.4063,593.6719 Q1327.1094,593.6719 1327.75,593.8281 Q1328.4063,593.9844 1328.9688,594.2813 L1328.9688,597 Q1328.3438,596.4219 1327.75,596.1563 Q1327.1563,595.875 1326.5313,595.875 Q1325.1875,595.875 1324.5,596.9531 Q1323.8125,598.0156 1323.8125,600.1094 Q1323.8125,602.2031 1324.5,603.2813 Q1325.1875,604.3438 1326.5313,604.3438 Q1327.1563,604.3438 1327.75,604.0781 Q1328.3438,603.7969 1328.9688,603.2188 L1328.9688,605.9375 Z " fill="#000000"/><text fill="#000000" font-family="sans-serif" font-size="14" lengthAdjust="spacing" textLength="207" x="1340" y="605.1436">ConcurrentRequestThreshold</text><line style="stroke:#181818;stroke-width:0.5;" x1="1312" x2="1549" y1="616.2969" y2="616.2969"/><line style="stroke:#181818;stroke-width:0.5;" x1="1312" x2="1549" y1="624.2969" y2="624.2969"/></g><!--MD5=[1dc911963f0116eb7551a64657943f11]
class ByDrawing--><g id="elem_ByDrawing"><rect fill="#F1F1F1" height="48" id="ByDrawing" rx="2.5" ry="2.5" style="stroke:#181818;stroke-width:0.5;" width="105" x="717" y="692.2969"/><ellipse cx="732" cy="708.2969" fill="#ADD1B2" rx="11" ry="11" style="stroke:#181818;stroke-width:1.0;"/><path d="M734.9688,713.9375 Q734.3906,714.2344 733.75,714.375 Q733.1094,714.5313 732.4063,714.5313 Q729.9063,714.5313 728.5781,712.8906 Q727.2656,711.2344 727.2656,708.1094 Q727.2656,704.9844 728.5781,703.3281 Q729.9063,701.6719 732.4063,701.6719 Q733.1094,701.6719 733.75,701.8281 Q734.4063,701.9844 734.9688,702.2813 L734.9688,705 Q734.3438,704.4219 733.75,704.1563 Q733.1563,703.875 732.5313,703.875 Q731.1875,703.875 730.5,704.9531 Q729.8125,706.0156 729.8125,708.1094 Q729.8125,710.2031 730.5,711.2813 Q731.1875,712.3438 732.5313,712.3438 Q733.1563,712.3438 733.75,712.0781 Q734.3438,711.7969 734.9688,711.2188 L734.9688,713.9375 Z " fill="#000000"/><text fill="#000000" font-family="sans-serif" font-size="14" lengthAdjust="spacing" textLength="73" x="746" y="713.1436">ByDrawing</text><line style="stroke:#181818;stroke-width:0.5;" x1="718" x2="821" y1="724.2969" y2="724.2969"/><line style="stroke:#181818;stroke-width:0.5;" x1="718" x2="821" y1="732.2969" y2="732.2969"/></g><!--MD5=[626ee839297ae6d74adcb816213ff129]
class ByOrder--><g id="elem_ByOrder"><rect fill="#F1F1F1" height="48" id="ByOrder" rx="2.5" ry="2.5" style="stroke:#181818;stroke-width:0.5;" width="88" x="857.5" y="692.2969"/><ellipse cx="872.5" cy="708.2969" fill="#ADD1B2" rx="11" ry="11" style="stroke:#181818;stroke-width:1.0;"/><path d="M875.4688,713.9375 Q874.8906,714.2344 874.25,714.375 Q873.6094,714.5313 872.9063,714.5313 Q870.4063,714.5313 869.0781,712.8906 Q867.7656,711.2344 867.7656,708.1094 Q867.7656,704.9844 869.0781,703.3281 Q870.4063,701.6719 872.9063,701.6719 Q873.6094,701.6719 874.25,701.8281 Q874.9063,701.9844 875.4688,702.2813 L875.4688,705 Q874.8438,704.4219 874.25,704.1563 Q873.6563,703.875 873.0313,703.875 Q871.6875,703.875 871,704.9531 Q870.3125,706.0156 870.3125,708.1094 Q870.3125,710.2031 871,711.2813 Q871.6875,712.3438 873.0313,712.3438 Q873.6563,712.3438 874.25,712.0781 Q874.8438,711.7969 875.4688,711.2188 L875.4688,713.9375 Z " fill="#000000"/><text fill="#000000" font-family="sans-serif" font-size="14" lengthAdjust="spacing" textLength="56" x="886.5" y="713.1436">ByOrder</text><line style="stroke:#181818;stroke-width:0.5;" x1="858.5" x2="944.5" y1="724.2969" y2="724.2969"/><line style="stroke:#181818;stroke-width:0.5;" x1="858.5" x2="944.5" y1="732.2969" y2="732.2969"/></g><!--MD5=[23e1070f3df272e91d97f134644eec19]
link YourRace to Athlete--><g id="link_YourRace_Athlete"><path codeLine="22" d="M648.6468,85.3437 C648.6468,85.3437 863.76,141.7769 938.26,161.3269 " fill="none" id="YourRace-Athlete" style="stroke:#181818;stroke-width:1.0;"/><polygon fill="#181818" points="950.99,164.6669,943.3005,158.5129,946.1538,163.3974,941.2693,166.2507,950.99,164.6669" style="stroke:#181818;stroke-width:1.0;"/><line style="stroke:#181818;stroke-width:1.0;" x1="946.1538" x2="938.425" y1="163.3974" y2="161.3669"/><polygon fill="#181818" points="637.04,82.2969,641.8278,87.6892,648.6468,85.3437,643.859,79.9513,637.04,82.2969" style="stroke:#181818;stroke-width:1.0;"/></g><!--MD5=[5359aeb4b27adfe89cdf839703c53325]
link YourRace to Organizer--><g id="link_YourRace_Organizer"><path codeLine="23" d="M526.3532,85.3437 C526.3532,85.3437 321.65,139.0469 245.76,158.9569 " fill="none" id="YourRace-Organizer" style="stroke:#181818;stroke-width:1.0;"/><polygon fill="#181818" points="233.13,162.2769,242.8507,163.8607,237.9662,161.0074,240.8195,156.1229,233.13,162.2769" style="stroke:#181818;stroke-width:1.0;"/><line style="stroke:#181818;stroke-width:1.0;" x1="237.9662" x2="245.705" y1="161.0074" y2="158.9769"/><polygon fill="#181818" points="537.96,82.2969,531.141,79.9513,526.3532,85.3437,533.1722,87.6892,537.96,82.2969" style="stroke:#181818;stroke-width:1.0;"/></g><!--MD5=[7151f2d60812e04faec703a7b590ae07]
link Organizer to Manage--><g id="link_Organizer_Manage"><path codeLine="25" d="M154.64,200.2969 C133.78,216.9169 105.56,239.4169 83.76,256.7969 " fill="none" id="Organizer-to-Manage" style="stroke:#181818;stroke-width:1.0;"/><polygon fill="#181818" points="79.76,259.9769,89.2933,257.5036,83.6727,256.8639,84.3124,251.2433,79.76,259.9769" style="stroke:#181818;stroke-width:1.0;"/></g><!--MD5=[37d723eb891adce7d8e365d1b147a08a]
link Athlete to Apply--><g id="link_Athlete_Apply"><path codeLine="27" d="M1032.34,192.3069 C1075.96,208.4869 1146.98,235.2969 1207.5,260.2969 C1211.65,262.0169 1215.98,263.8469 1220.27,265.6969 " fill="none" id="Athlete-to-Apply" style="stroke:#181818;stroke-width:1.0;stroke-dasharray:7.0,7.0;"/><polygon fill="#181818" points="1224.92,267.7169,1218.2505,260.4699,1220.3317,265.73,1215.0716,267.8112,1224.92,267.7169" style="stroke:#181818;stroke-width:1.0;"/></g><!--MD5=[f05b3ee42e886bc038042c952099922c]
link Athlete to Consult--><g id="link_Athlete_Consult"><path codeLine="28" d="M991.5,200.2969 C991.5,216.2969 991.5,237.7469 991.5,254.8269 " fill="none" id="Athlete-to-Consult" style="stroke:#181818;stroke-width:1.0;"/><polygon fill="#181818" points="991.5,259.9769,995.5,250.9769,991.5,254.9769,987.5,250.9769,991.5,259.9769" style="stroke:#181818;stroke-width:1.0;"/></g><!--MD5=[1af141ae5437315f4ccd964254671e2b]
link Athlete to TrackRecord--><g id="link_Athlete_TrackRecord"><path codeLine="29" d="M1030.9539,207.6102 C1030.9539,207.6102 1070.78,238.1969 1088.71,251.9669 " fill="none" id="Athlete-TrackRecord" style="stroke:#181818;stroke-width:1.0;"/><polygon fill="#181818" points="1099.14,259.9769,1094.4348,251.3247,1095.1732,256.9331,1089.5648,257.6715,1099.14,259.9769" style="stroke:#181818;stroke-width:1.0;"/><line style="stroke:#181818;stroke-width:1.0;" x1="1095.1732" x2="1088.83" y1="256.9331" y2="252.0569"/><polygon fill="#181818" points="1021.44,200.2969,1023.7592,207.1249,1030.9539,207.6102,1028.6347,200.7822,1021.44,200.2969" style="stroke:#181818;stroke-width:1.0;"/></g><!--MD5=[dcfb4e855971f3c033a0c29c0562827a]
link Apply to ApplicationCode--><g id="link_Apply_ApplicationCode"><path codeLine="31" d="M1259.5,320.2969 C1259.5,320.2969 1259.5,343.9769 1259.5,354.6569 " fill="none" id="Apply-ApplicationCode" style="stroke:#181818;stroke-width:1.0;"/><polygon fill="#181818" points="1259.5,367.9769,1263.5,358.9769,1259.5,362.9769,1255.5,358.9769,1259.5,367.9769" style="stroke:#181818;stroke-width:1.0;"/><line style="stroke:#181818;stroke-width:1.0;" x1="1259.5" x2="1259.5" y1="362.9769" y2="354.9769"/><polygon fill="#181818" points="1259.5,308.2969,1255.5,314.2969,1259.5,320.2969,1263.5,314.2969,1259.5,308.2969" style="stroke:#181818;stroke-width:1.0;"/></g><!--MD5=[53d46adbeb03dd17ed534e5ba23ccd4d]
link Apply to Race--><g id="link_Apply_Race"><path codeLine="33" d="M1224.76,301.3069 C1219.04,303.7569 1213.13,306.1769 1207.5,308.2969 C1128.67,338.0169 1033.98,365.9569 982.13,380.6169 " fill="none" id="Apply-to-Race" style="stroke:#181818;stroke-width:1.0;stroke-dasharray:7.0,7.0;"/><polygon fill="#181818" points="977.25,381.9969,986.9977,383.4049,982.0624,380.6403,984.8271,375.705,977.25,381.9969" style="stroke:#181818;stroke-width:1.0;"/></g><!--MD5=[766de44c127d67c269e0e5bad3e2e7ae]
link Consult to Race--><g id="link_Consult_Race"><path codeLine="35" d="M981.08,308.2969 C973.78,324.4369 963.96,346.1169 956.19,363.2669 " fill="none" id="Consult-to-Race" style="stroke:#181818;stroke-width:1.0;"/><polygon fill="#181818" points="954.06,367.9769,961.4257,361.4388,956.129,363.425,954.1428,358.1284,954.06,367.9769" style="stroke:#181818;stroke-width:1.0;"/></g><!--MD5=[e411b63e9fce17c83545870915635e7f]
link Manage to Race--><g id="link_Manage_Race"><path codeLine="37" d="M94.06,303.2769 C99.85,305.2069 105.77,306.9569 111.5,308.2969 C410.93,378.4069 784.55,389.3169 904.52,390.9969 " fill="none" id="Manage-to-Race" style="stroke:#181818;stroke-width:1.0;"/><polygon fill="#181818" points="909.7,391.0669,900.7581,386.9387,904.7005,390.9955,900.6438,394.9379,909.7,391.0669" style="stroke:#181818;stroke-width:1.0;"/></g><!--MD5=[8d22a264b1d458f793ad84cf56e8b974]
link Race to Distance--><g id="link_Race_Distance"><path codeLine="40" d="M898.004,403.754 C898.004,403.754 720.26,446.6969 624.5,476.2969 C622.91,476.7869 621.31,477.2969 619.69,477.8069 " fill="none" id="Race-Distance" style="stroke:#181818;stroke-width:1.0;"/><polygon fill="#181818" points="607.17,481.9769,616.9724,482.9324,611.9145,480.399,614.4479,475.3412,607.17,481.9769" style="stroke:#181818;stroke-width:1.0;"/><line style="stroke:#181818;stroke-width:1.0;" x1="611.9145" x2="619.505" y1="480.399" y2="477.8719"/><polygon fill="#181818" points="909.69,401.0269,902.9379,398.4951,898.004,403.754,904.7561,406.2858,909.69,401.0269" style="stroke:#181818;stroke-width:1.0;"/></g><!--MD5=[8593d6a5c3560d11be4b908e63e5dfbe]
link Race to AthleteCapacity--><g id="link_Race_AthleteCapacity"><path codeLine="41" d="M988.6857,407.8147 C988.6857,407.8147 1127.91,452.5269 1191.49,472.9569 " fill="none" id="Race-AthleteCapacity" style="stroke:#181818;stroke-width:1.0;"/><polygon fill="#181818" points="1203.89,476.9369,1196.548,470.3722,1199.1304,475.4052,1194.0974,477.9876,1203.89,476.9369" style="stroke:#181818;stroke-width:1.0;"/><line style="stroke:#181818;stroke-width:1.0;" x1="1199.1304" x2="1191.515" y1="475.4052" y2="472.9619"/><polygon fill="#181818" points="977.26,404.1469,981.7502,409.7894,988.6857,407.8147,984.1955,402.1722,977.26,404.1469" style="stroke:#181818;stroke-width:1.0;"/></g><!--MD5=[edbfbe743c7fc77980287e7924ad1dd2]
link Race to Date--><g id="link_Race_Date"><path codeLine="42" d="M898.3687,409.5947 C898.3687,409.5947 784.22,451.9069 725.5,476.2969 C723.43,477.1569 721.33,478.0469 719.2,478.9569 " fill="none" id="Race-Date" style="stroke:#181818;stroke-width:1.0;"/><polygon fill="#181818" points="707.02,484.2769,716.8687,484.3286,711.5997,482.2702,713.658,477.0011,707.02,484.2769" style="stroke:#181818;stroke-width:1.0;"/><line style="stroke:#181818;stroke-width:1.0;" x1="711.5997" x2="718.935" y1="482.2702" y2="479.0719"/><polygon fill="#181818" points="909.64,405.4769,902.6317,403.7787,898.3687,409.5947,905.377,411.2929,909.64,405.4769" style="stroke:#181818;stroke-width:1.0;"/></g><!--MD5=[12d87157ab46e978eba99b31a6236695]
link Race to Location--><g id="link_Race_Location"><path codeLine="43" d="M899.7205,423.0352 C899.7205,423.0352 853.23,454.6369 832.37,468.8069 " fill="none" id="Race-Location" style="stroke:#181818;stroke-width:1.0;"/><polygon fill="#181818" points="821.55,476.1569,831.2432,474.413,825.6873,473.3492,826.751,467.7933,821.55,476.1569" style="stroke:#181818;stroke-width:1.0;"/><line style="stroke:#181818;stroke-width:1.0;" x1="825.6873" x2="832.305" y1="473.3492" y2="468.8519"/><polygon fill="#181818" points="909.65,416.2969,902.4391,416.3562,899.7205,423.0352,906.9314,422.9759,909.65,416.2969" style="stroke:#181818;stroke-width:1.0;"/></g><!--MD5=[705270ac592e1243045b327c48162558]
link Race to Type--><g id="link_Race_Type"><path codeLine="44" d="M989.0169,398.9164 C989.0169,398.9164 1229.53,434.3369 1360.5,476.2969 C1362.35,476.8869 1364.22,477.5269 1366.1,478.2069 " fill="none" id="Race-Type" style="stroke:#181818;stroke-width:1.0;"/><polygon fill="#181818" points="1378.46,483.0869,1371.5548,476.0642,1373.8086,481.2527,1368.6201,483.5064,1378.46,483.0869" style="stroke:#181818;stroke-width:1.0;"/><line style="stroke:#181818;stroke-width:1.0;" x1="1373.8086" x2="1366.37" y1="481.2527" y2="478.3119"/><polygon fill="#181818" points="977.12,397.3469,982.5453,402.0973,989.0169,398.9164,983.5916,394.166,977.12,397.3469" style="stroke:#181818;stroke-width:1.0;"/></g><!--MD5=[f74ac41f8e65a460acd910897c37c7bb]
link Race to ApplicationPeriod--><g id="link_Race_ApplicationPeriod"><path codeLine="45" d="M943.5,428.2969 C943.5,428.2969 943.5,451.9769 943.5,462.6569 " fill="none" id="Race-ApplicationPeriod" style="stroke:#181818;stroke-width:1.0;"/><polygon fill="#181818" points="943.5,475.9769,947.5,466.9769,943.5,470.9769,939.5,466.9769,943.5,475.9769" style="stroke:#181818;stroke-width:1.0;"/><line style="stroke:#181818;stroke-width:1.0;" x1="943.5" x2="943.5" y1="470.9769" y2="462.9769"/><polygon fill="#181818" points="943.5,416.2969,939.5,422.2969,943.5,428.2969,947.5,422.2969,943.5,416.2969" style="stroke:#181818;stroke-width:1.0;"/></g><!--MD5=[e921ad57443782d0d4c22e7ab8201ebc]
link Race to Registration--><g id="link_Race_Registration"><path codeLine="46" d="M987.2377,420.9018 C987.2377,420.9018 1039.86,454.0969 1063.55,469.0469 " fill="none" id="Race-Registration" style="stroke:#181818;stroke-width:1.0;"/><polygon fill="#181818" points="1074.76,476.1169,1069.2842,467.9306,1070.5318,473.4481,1065.0142,474.6958,1074.76,476.1169" style="stroke:#181818;stroke-width:1.0;"/><line style="stroke:#181818;stroke-width:1.0;" x1="1070.5318" x2="1063.76" y1="473.4481" y2="469.1769"/><polygon fill="#181818" points="977.09,414.4969,980.0289,421.0819,987.2377,420.9018,984.2989,414.3168,977.09,414.4969" style="stroke:#181818;stroke-width:1.0;"/></g><!--MD5=[b087527d04b27fae334fe5e89ff2b67a]
link Track to Race--><g id="link_Track_Race"><path codeLine="50" d="M692.68,184.8469 C735.88,195.5469 809.57,218.6469 859.5,260.2969 C893.37,288.5569 918.21,334.0469 931.75,363.3069 " fill="none" id="Track-to-Race" style="stroke:#181818;stroke-width:1.0;"/><polygon fill="#181818" points="933.83,367.8569,933.71,358.0087,931.7438,363.3129,926.4396,361.3467,933.83,367.8569" style="stroke:#181818;stroke-width:1.0;"/></g><!--MD5=[723125675b31b30bd32f774e808b7585]
link Track to Athlete--><g id="link_Track_Athlete"><path codeLine="51" d="M692.73,176.2969 C777.12,176.2969 861.51,176.2969 945.9,176.2969 " fill="none" id="Track-to-Athlete" style="stroke:#181818;stroke-width:1.0;"/><polygon fill="#181818" points="950.94,176.2969,941.94,172.2969,945.94,176.2969,941.94,180.2969,950.94,176.2969" style="stroke:#181818;stroke-width:1.0;"/></g><!--MD5=[851c2e7e5fa863029b4e9568e74bd420]
link Track to AthleteRegistrationDate--><g id="link_Track_AthleteRegistrationDate"><path codeLine="52" d="M683.7221,209.6143 C683.7221,209.6143 706.11,237.2169 716.16,249.5969 " fill="none" id="Track-AthleteRegistrationDate" style="stroke:#181818;stroke-width:1.0;"/><polygon fill="#181818" points="724.58,259.9769,722.0208,250.4663,721.4318,256.0924,715.8057,255.5035,724.58,259.9769" style="stroke:#181818;stroke-width:1.0;"/><line style="stroke:#181818;stroke-width:1.0;" x1="721.4318" x2="716.385" y1="256.0924" y2="249.8819"/><polygon fill="#181818" points="676.16,200.2969,676.8353,207.4763,683.7221,209.6143,683.0469,202.4349,676.16,200.2969" style="stroke:#181818;stroke-width:1.0;"/></g><!--MD5=[860877463f0bc93f1df9bb1b1cf8e811]
link Track to Dorsal--><g id="link_Track_Dorsal"><path codeLine="53" d="M631.2779,209.6143 C631.2779,209.6143 608.89,237.2169 598.84,249.5969 " fill="none" id="Track-Dorsal" style="stroke:#181818;stroke-width:1.0;"/><polygon fill="#181818" points="590.42,259.9769,599.1943,255.5035,593.5682,256.0924,592.9792,250.4663,590.42,259.9769" style="stroke:#181818;stroke-width:1.0;"/><line style="stroke:#181818;stroke-width:1.0;" x1="593.5682" x2="598.615" y1="256.0924" y2="249.8819"/><polygon fill="#181818" points="638.84,200.2969,631.9531,202.4349,631.2779,209.6143,638.1647,207.4763,638.84,200.2969" style="stroke:#181818;stroke-width:1.0;"/></g><!--MD5=[8f38138bc2fa095b4f74145647d2aa62]
link Track to PaymentInfo--><g id="link_Track_PaymentInfo"><path codeLine="54" d="M611.6769,199.5719 C611.6769,199.5719 534.2,237.2469 499.07,254.3269 " fill="none" id="Track-PaymentInfo" style="stroke:#181818;stroke-width:1.0;"/><polygon fill="#181818" points="487.04,260.1769,496.883,259.8361,491.5361,257.9893,493.3829,252.6424,487.04,260.1769" style="stroke:#181818;stroke-width:1.0;"/><line style="stroke:#181818;stroke-width:1.0;" x1="491.5361" x2="498.73" y1="257.9893" y2="254.4969"/><polygon fill="#181818" points="622.47,194.3269,615.3251,193.3517,611.6769,199.5719,618.8218,200.5471,622.47,194.3269" style="stroke:#181818;stroke-width:1.0;"/></g><!--MD5=[fb53a1de847ab9694106a812d68be1ce]
link Track to Score--><g id="link_Track_Score"><path codeLine="55" d="M610.5498,188.5931 C610.5498,188.5931 448.65,230.2769 363.5,260.2969 C361.58,260.9769 359.62,261.6869 357.66,262.4269 " fill="none" id="Track-Score" style="stroke:#181818;stroke-width:1.0;"/><polygon fill="#181818" points="345.56,267.1869,355.3997,267.6125,350.2126,265.3556,352.4695,260.1684,345.56,267.1869" style="stroke:#181818;stroke-width:1.0;"/><line style="stroke:#181818;stroke-width:1.0;" x1="350.2126" x2="357.655" y1="265.3556" y2="262.4269"/><polygon fill="#181818" points="622.2,185.7169,615.4161,183.2716,610.5498,188.5931,617.3337,191.0384,622.2,185.7169" style="stroke:#181818;stroke-width:1.0;"/></g><!--MD5=[c0294b685351dc9ae42d4cf001b7cc06]
link Registration to RegistrationType--><g id="link_Registration_RegistrationType"><path codeLine="57" d="M1042.7775,527.6884 C1042.7775,527.6884 949.31,563.5869 908,579.4469 " fill="none" id="Registration-RegistrationType" style="stroke:#181818;stroke-width:1.0;"/><polygon fill="#181818" points="895.81,584.1369,905.6457,584.6449,900.4777,582.3446,902.778,577.1765,895.81,584.1369" style="stroke:#181818;stroke-width:1.0;"/><line style="stroke:#181818;stroke-width:1.0;" x1="900.4777" x2="907.95" y1="582.3446" y2="579.4719"/><polygon fill="#181818" points="1053.98,523.3869,1046.9449,521.8035,1042.7775,527.6884,1049.8126,529.2718,1053.98,523.3869" style="stroke:#181818;stroke-width:1.0;"/></g><!--MD5=[99fb3c277457517443938aee0727aee3]
link Registration to RegistrationDate--><g id="link_Registration_RegistrationDate"><path codeLine="58" d="M1083.6763,533.3612 C1083.6763,533.3612 1059.45,561.2669 1048.51,573.8669 " fill="none" id="Registration-RegistrationDate" style="stroke:#181818;stroke-width:1.0;"/><polygon fill="#181818" points="1039.74,583.9769,1048.6592,579.7998,1043.0165,580.2001,1042.6163,574.5574,1039.74,583.9769" style="stroke:#181818;stroke-width:1.0;"/><line style="stroke:#181818;stroke-width:1.0;" x1="1043.0165" x2="1048.265" y1="580.2001" y2="574.1569"/><polygon fill="#181818" points="1091.54,524.2969,1084.5867,526.2078,1083.6763,533.3612,1090.6296,531.4503,1091.54,524.2969" style="stroke:#181818;stroke-width:1.0;"/></g><!--MD5=[87910c30f36841c7ddeb6ecc215d01aa]
link Registration to RegistrationCost--><g id="link_Registration_RegistrationCost"><path codeLine="59" d="M1139.0649,533.4033 C1139.0649,533.4033 1162.99,561.2669 1173.8,573.8669 " fill="none" id="Registration-RegistrationCost" style="stroke:#181818;stroke-width:1.0;"/><polygon fill="#181818" points="1182.48,583.9769,1179.6475,574.5441,1179.2211,580.1849,1173.5803,579.7584,1182.48,583.9769" style="stroke:#181818;stroke-width:1.0;"/><line style="stroke:#181818;stroke-width:1.0;" x1="1179.2211" x2="1174.01" y1="580.1849" y2="574.1119"/><polygon fill="#181818" points="1131.25,524.2969,1132.122,531.4551,1139.0649,533.4033,1138.1929,526.2451,1131.25,524.2969" style="stroke:#181818;stroke-width:1.0;"/></g><!--MD5=[4ac7ae78fd83dda5c6b086788a4cc457]
link Registration to ConcurrentRequestThreshold--><g id="link_Registration_ConcurrentRequestThreshold"><path codeLine="60" d="M1180.6568,524.2837 C1180.6568,524.2837 1297.08,562.9669 1348.75,580.1269 " fill="none" id="Registration-ConcurrentRequestThreshold" style="stroke:#181818;stroke-width:1.0;"/><polygon fill="#181818" points="1361.22,584.2769,1353.9398,577.6437,1356.4749,582.7007,1351.4179,585.2358,1361.22,584.2769" style="stroke:#181818;stroke-width:1.0;"/><line style="stroke:#181818;stroke-width:1.0;" x1="1356.4749" x2="1348.885" y1="582.7007" y2="580.1769"/><polygon fill="#181818" points="1169.27,520.4969,1173.7011,526.1859,1180.6568,524.2837,1176.2257,518.5947,1169.27,520.4969" style="stroke:#181818;stroke-width:1.0;"/></g><!--MD5=[f7e2771519c667b35b8ad02ef916a1c2]
reverse link RegistrationType to ByDrawing--><g id="link_RegistrationType_ByDrawing"><path codeLine="62" d="M810.51,649.4269 C801.57,663.7969 791.79,679.5069 784.02,691.9769 " fill="none" id="RegistrationType-backto-ByDrawing" style="stroke:#181818;stroke-width:1.0;"/><polygon fill="none" points="804.67,645.5769,821.18,632.2969,816.55,652.9769,804.67,645.5769" style="stroke:#181818;stroke-width:1.0;"/></g><!--MD5=[56cec7f2b86664aedea991e86d33f179]
reverse link RegistrationType to ByOrder--><g id="link_RegistrationType_ByOrder"><path codeLine="63" d="M860.49,649.4269 C869.43,663.7969 879.21,679.5069 886.98,691.9769 " fill="none" id="RegistrationType-backto-ByOrder" style="stroke:#181818;stroke-width:1.0;"/><polygon fill="none" points="854.45,652.9769,849.82,632.2969,866.33,645.5769,854.45,652.9769" style="stroke:#181818;stroke-width:1.0;"/></g><!--MD5=[23dcb61a6fdfba41b802371b814cd918]
link Organizer to Suscription--><g id="link_Organizer_Suscription"><path codeLine="66" d="M183.5,200.2969 C183.5,216.2969 183.5,237.7469 183.5,254.8269 " fill="none" id="Organizer-to-Suscription" style="stroke:#181818;stroke-width:1.0;"/><polygon fill="#181818" points="183.5,259.9769,187.5,250.9769,183.5,254.9769,179.5,250.9769,183.5,259.9769" style="stroke:#181818;stroke-width:1.0;"/></g><!--MD5=[3e17234635b875d71f812d6a5f241456]
@startuml
title Your Race - Domain Model

class YourRace
class Athlete
class Organizer
class Race
class Track
class Distance
class Date
class Location
class Consult
class Manage
class Apply
class Score
class PaymentInfo
class Dorsal
class ApplicationPeriod
class TrackRecord
class Suscription
class Registration

YourRace *- -> Athlete
YourRace *- -> Organizer

Organizer - -> Manage

Athlete ..> Apply
Athlete - -> Consult
Athlete *- -> TrackRecord

Apply *- -> ApplicationCode

Apply ..> Race

Consult - -> Race

Manage - -> Race


Race *- -> Distance
Race *- -> AthleteCapacity
Race *- -> Date
Race *- -> Location
Race *- -> Type
Race *- -> ApplicationPeriod
Race *- -> Registration



Track -right-> Race 
Track -right-> Athlete 
Track *- -> AthleteRegistrationDate
Track *- -> Dorsal
Track *- -> PaymentInfo
Track *- -> Score

Registration *- -> RegistrationType
Registration *- -> RegistrationDate
Registration *- -> RegistrationCost
Registration *- -> ConcurrentRequestThreshold

RegistrationType <|- - ByDrawing
RegistrationType <|- - ByOrder


Organizer - -> Suscription



@enduml

PlantUML version 1.2022.7(Mon Aug 22 19:01:30 CEST 2022)
(GPL source distribution)
Java Runtime: Java(TM) SE Runtime Environment
JVM: Java HotSpot(TM) 64-Bit Server VM
Default Encoding: UTF-8
Language: en
Country: US
--></g></svg>