<?xml version="1.0" encoding="UTF-8" standalone="no"?><svg xmlns="http://www.w3.org/2000/svg" xmlns:xlink="http://www.w3.org/1999/xlink" contentStyleType="text/css" height="747px" preserveAspectRatio="none" style="width:1517px;height:747px;background:#FFFFFF;" version="1.1" viewBox="0 0 1517 747" width="1517px" zoomAndPan="magnify"><defs/><g><rect fill="none" height="26.2969" id="_title" style="stroke:none;stroke-width:1.0;" width="216" x="643.75" y="5"/><text fill="#000000" font-family="sans-serif" font-size="14" font-weight="bold" lengthAdjust="spacing" textLength="206" x="648.75" y="22.9951">Your Race - Domain Model</text><!--MD5=[27e1e7f9c4820a0277e6c5de2c4c6668]
class YourRace--><g id="elem_YourRace"><rect codeLine="3" fill="#F1F1F1" height="48" id="YourRace" rx="2.5" ry="2.5" style="stroke:#181818;stroke-width:0.5;" width="99" x="538" y="44.2969"/><ellipse cx="553" cy="60.2969" fill="#ADD1B2" rx="11" ry="11" style="stroke:#181818;stroke-width:1.0;"/><path d="M555.9688,65.9375 Q555.3906,66.2344 554.75,66.375 Q554.1094,66.5313 553.4063,66.5313 Q550.9063,66.5313 549.5781,64.8906 Q548.2656,63.2344 548.2656,60.1094 Q548.2656,56.9844 549.5781,55.3281 Q550.9063,53.6719 553.4063,53.6719 Q554.1094,53.6719 554.75,53.8281 Q555.4063,53.9844 555.9688,54.2813 L555.9688,57 Q555.3438,56.4219 554.75,56.1563 Q554.1563,55.875 553.5313,55.875 Q552.1875,55.875 551.5,56.9531 Q550.8125,58.0156 550.8125,60.1094 Q550.8125,62.2031 551.5,63.2813 Q552.1875,64.3438 553.5313,64.3438 Q554.1563,64.3438 554.75,64.0781 Q555.3438,63.7969 555.9688,63.2188 L555.9688,65.9375 Z " fill="#000000"/><text fill="#000000" font-family="sans-serif" font-size="14" lengthAdjust="spacing" textLength="67" x="567" y="65.1436">YourRace</text><line style="stroke:#181818;stroke-width:0.5;" x1="539" x2="636" y1="76.2969" y2="76.2969"/><line style="stroke:#181818;stroke-width:0.5;" x1="539" x2="636" y1="84.2969" y2="84.2969"/></g><!--MD5=[069cecb0f107147f35d50ee2cc41a241]
class Athlete--><g id="elem_Athlete"><rect codeLine="4" fill="#F1F1F1" height="48" id="Athlete" rx="2.5" ry="2.5" style="stroke:#181818;stroke-width:0.5;" width="81" x="951" y="152.2969"/><ellipse cx="966" cy="168.2969" fill="#ADD1B2" rx="11" ry="11" style="stroke:#181818;stroke-width:1.0;"/><path d="M968.9688,173.9375 Q968.3906,174.2344 967.75,174.375 Q967.1094,174.5313 966.4063,174.5313 Q963.9063,174.5313 962.5781,172.8906 Q961.2656,171.2344 961.2656,168.1094 Q961.2656,164.9844 962.5781,163.3281 Q963.9063,161.6719 966.4063,161.6719 Q967.1094,161.6719 967.75,161.8281 Q968.4063,161.9844 968.9688,162.2813 L968.9688,165 Q968.3438,164.4219 967.75,164.1563 Q967.1563,163.875 966.5313,163.875 Q965.1875,163.875 964.5,164.9531 Q963.8125,166.0156 963.8125,168.1094 Q963.8125,170.2031 964.5,171.2813 Q965.1875,172.3438 966.5313,172.3438 Q967.1563,172.3438 967.75,172.0781 Q968.3438,171.7969 968.9688,171.2188 L968.9688,173.9375 Z " fill="#000000"/><text fill="#000000" font-family="sans-serif" font-size="14" lengthAdjust="spacing" textLength="49" x="980" y="173.1436">Athlete</text><line style="stroke:#181818;stroke-width:0.5;" x1="952" x2="1031" y1="184.2969" y2="184.2969"/><line style="stroke:#181818;stroke-width:0.5;" x1="952" x2="1031" y1="192.2969" y2="192.2969"/></g><!--MD5=[c943b7297f25d0ee4f831707c42d3ae4]
class Organizer--><g id="elem_Organizer"><rect codeLine="5" fill="#F1F1F1" height="48" id="Organizer" rx="2.5" ry="2.5" style="stroke:#181818;stroke-width:0.5;" width="99" x="134" y="152.2969"/><ellipse cx="149" cy="168.2969" fill="#ADD1B2" rx="11" ry="11" style="stroke:#181818;stroke-width:1.0;"/><path d="M151.9688,173.9375 Q151.3906,174.2344 150.75,174.375 Q150.1094,174.5313 149.4063,174.5313 Q146.9063,174.5313 145.5781,172.8906 Q144.2656,171.2344 144.2656,168.1094 Q144.2656,164.9844 145.5781,163.3281 Q146.9063,161.6719 149.4063,161.6719 Q150.1094,161.6719 150.75,161.8281 Q151.4063,161.9844 151.9688,162.2813 L151.9688,165 Q151.3438,164.4219 150.75,164.1563 Q150.1563,163.875 149.5313,163.875 Q148.1875,163.875 147.5,164.9531 Q146.8125,166.0156 146.8125,168.1094 Q146.8125,170.2031 147.5,171.2813 Q148.1875,172.3438 149.5313,172.3438 Q150.1563,172.3438 150.75,172.0781 Q151.3438,171.7969 151.9688,171.2188 L151.9688,173.9375 Z " fill="#000000"/><text fill="#000000" font-family="sans-serif" font-size="14" lengthAdjust="spacing" textLength="67" x="163" y="173.1436">Organizer</text><line style="stroke:#181818;stroke-width:0.5;" x1="135" x2="232" y1="184.2969" y2="184.2969"/><line style="stroke:#181818;stroke-width:0.5;" x1="135" x2="232" y1="192.2969" y2="192.2969"/></g><!--MD5=[02529dc4f79219f8425437af1389750d]
class Race--><g id="elem_Race"><rect codeLine="6" fill="#F1F1F1" height="48" id="Race" rx="2.5" ry="2.5" style="stroke:#181818;stroke-width:0.5;" width="67" x="910" y="368.2969"/><ellipse cx="925" cy="384.2969" fill="#ADD1B2" rx="11" ry="11" style="stroke:#181818;stroke-width:1.0;"/><path d="M927.9688,389.9375 Q927.3906,390.2344 926.75,390.375 Q926.1094,390.5313 925.4063,390.5313 Q922.9063,390.5313 921.5781,388.8906 Q920.2656,387.2344 920.2656,384.1094 Q920.2656,380.9844 921.5781,379.3281 Q922.9063,377.6719 925.4063,377.6719 Q926.1094,377.6719 926.75,377.8281 Q927.4063,377.9844 927.9688,378.2813 L927.9688,381 Q927.3438,380.4219 926.75,380.1563 Q926.1563,379.875 925.5313,379.875 Q924.1875,379.875 923.5,380.9531 Q922.8125,382.0156 922.8125,384.1094 Q922.8125,386.2031 923.5,387.2813 Q924.1875,388.3438 925.5313,388.3438 Q926.1563,388.3438 926.75,388.0781 Q927.3438,387.7969 927.9688,387.2188 L927.9688,389.9375 Z " fill="#000000"/><text fill="#000000" font-family="sans-serif" font-size="14" lengthAdjust="spacing" textLength="35" x="939" y="389.1436">Race</text><line style="stroke:#181818;stroke-width:0.5;" x1="911" x2="976" y1="400.2969" y2="400.2969"/><line style="stroke:#181818;stroke-width:0.5;" x1="911" x2="976" y1="408.2969" y2="408.2969"/></g><!--MD5=[3b034ebaa87c9ec5e8fb5410143f628f]
class Track--><g id="elem_Track"><rect codeLine="7" fill="#F1F1F1" height="48" id="Track" rx="2.5" ry="2.5" style="stroke:#181818;stroke-width:0.5;" width="70" x="622.5" y="152.2969"/><ellipse cx="637.5" cy="168.2969" fill="#ADD1B2" rx="11" ry="11" style="stroke:#181818;stroke-width:1.0;"/><path d="M640.4688,173.9375 Q639.8906,174.2344 639.25,174.375 Q638.6094,174.5313 637.9063,174.5313 Q635.4063,174.5313 634.0781,172.8906 Q632.7656,171.2344 632.7656,168.1094 Q632.7656,164.9844 634.0781,163.3281 Q635.4063,161.6719 637.9063,161.6719 Q638.6094,161.6719 639.25,161.8281 Q639.9063,161.9844 640.4688,162.2813 L640.4688,165 Q639.8438,164.4219 639.25,164.1563 Q638.6563,163.875 638.0313,163.875 Q636.6875,163.875 636,164.9531 Q635.3125,166.0156 635.3125,168.1094 Q635.3125,170.2031 636,171.2813 Q636.6875,172.3438 638.0313,172.3438 Q638.6563,172.3438 639.25,172.0781 Q639.8438,171.7969 640.4688,171.2188 L640.4688,173.9375 Z " fill="#000000"/><text fill="#000000" font-family="sans-serif" font-size="14" lengthAdjust="spacing" textLength="38" x="651.5" y="173.1436">Track</text><line style="stroke:#181818;stroke-width:0.5;" x1="623.5" x2="691.5" y1="184.2969" y2="184.2969"/><line style="stroke:#181818;stroke-width:0.5;" x1="623.5" x2="691.5" y1="192.2969" y2="192.2969"/></g><!--MD5=[cc15daeb8b4e6bacf34831777829d2c1]
class Distance--><g id="elem_Distance"><rect codeLine="8" fill="#F1F1F1" height="48" id="Distance" rx="2.5" ry="2.5" style="stroke:#181818;stroke-width:0.5;" width="93" x="430" y="476.2969"/><ellipse cx="445" cy="492.2969" fill="#ADD1B2" rx="11" ry="11" style="stroke:#181818;stroke-width:1.0;"/><path d="M447.9688,497.9375 Q447.3906,498.2344 446.75,498.375 Q446.1094,498.5313 445.4063,498.5313 Q442.9063,498.5313 441.5781,496.8906 Q440.2656,495.2344 440.2656,492.1094 Q440.2656,488.9844 441.5781,487.3281 Q442.9063,485.6719 445.4063,485.6719 Q446.1094,485.6719 446.75,485.8281 Q447.4063,485.9844 447.9688,486.2813 L447.9688,489 Q447.3438,488.4219 446.75,488.1563 Q446.1563,487.875 445.5313,487.875 Q444.1875,487.875 443.5,488.9531 Q442.8125,490.0156 442.8125,492.1094 Q442.8125,494.2031 443.5,495.2813 Q444.1875,496.3438 445.5313,496.3438 Q446.1563,496.3438 446.75,496.0781 Q447.3438,495.7969 447.9688,495.2188 L447.9688,497.9375 Z " fill="#000000"/><text fill="#000000" font-family="sans-serif" font-size="14" lengthAdjust="spacing" textLength="61" x="459" y="497.1436">Distance</text><line style="stroke:#181818;stroke-width:0.5;" x1="431" x2="522" y1="508.2969" y2="508.2969"/><line style="stroke:#181818;stroke-width:0.5;" x1="431" x2="522" y1="516.2969" y2="516.2969"/></g><!--MD5=[7829b64950ce38e0487c4015ea331f97]
class Date--><g id="elem_Date"><rect codeLine="9" fill="#F1F1F1" height="48" id="Date" rx="2.5" ry="2.5" style="stroke:#181818;stroke-width:0.5;" width="65" x="558" y="476.2969"/><ellipse cx="573" cy="492.2969" fill="#ADD1B2" rx="11" ry="11" style="stroke:#181818;stroke-width:1.0;"/><path d="M575.9688,497.9375 Q575.3906,498.2344 574.75,498.375 Q574.1094,498.5313 573.4063,498.5313 Q570.9063,498.5313 569.5781,496.8906 Q568.2656,495.2344 568.2656,492.1094 Q568.2656,488.9844 569.5781,487.3281 Q570.9063,485.6719 573.4063,485.6719 Q574.1094,485.6719 574.75,485.8281 Q575.4063,485.9844 575.9688,486.2813 L575.9688,489 Q575.3438,488.4219 574.75,488.1563 Q574.1563,487.875 573.5313,487.875 Q572.1875,487.875 571.5,488.9531 Q570.8125,490.0156 570.8125,492.1094 Q570.8125,494.2031 571.5,495.2813 Q572.1875,496.3438 573.5313,496.3438 Q574.1563,496.3438 574.75,496.0781 Q575.3438,495.7969 575.9688,495.2188 L575.9688,497.9375 Z " fill="#000000"/><text fill="#000000" font-family="sans-serif" font-size="14" lengthAdjust="spacing" textLength="33" x="587" y="497.1436">Date</text><line style="stroke:#181818;stroke-width:0.5;" x1="559" x2="622" y1="508.2969" y2="508.2969"/><line style="stroke:#181818;stroke-width:0.5;" x1="559" x2="622" y1="516.2969" y2="516.2969"/></g><!--MD5=[4f1f3706c1a355a8488e154afcaed5df]
class Location--><g id="elem_Location"><rect codeLine="10" fill="#F1F1F1" height="48" id="Location" rx="2.5" ry="2.5" style="stroke:#181818;stroke-width:0.5;" width="90" x="658.5" y="476.2969"/><ellipse cx="673.5" cy="492.2969" fill="#ADD1B2" rx="11" ry="11" style="stroke:#181818;stroke-width:1.0;"/><path d="M676.4688,497.9375 Q675.8906,498.2344 675.25,498.375 Q674.6094,498.5313 673.9063,498.5313 Q671.4063,498.5313 670.0781,496.8906 Q668.7656,495.2344 668.7656,492.1094 Q668.7656,488.9844 670.0781,487.3281 Q671.4063,485.6719 673.9063,485.6719 Q674.6094,485.6719 675.25,485.8281 Q675.9063,485.9844 676.4688,486.2813 L676.4688,489 Q675.8438,488.4219 675.25,488.1563 Q674.6563,487.875 674.0313,487.875 Q672.6875,487.875 672,488.9531 Q671.3125,490.0156 671.3125,492.1094 Q671.3125,494.2031 672,495.2813 Q672.6875,496.3438 674.0313,496.3438 Q674.6563,496.3438 675.25,496.0781 Q675.8438,495.7969 676.4688,495.2188 L676.4688,497.9375 Z " fill="#000000"/><text fill="#000000" font-family="sans-serif" font-size="14" lengthAdjust="spacing" textLength="58" x="687.5" y="497.1436">Location</text><line style="stroke:#181818;stroke-width:0.5;" x1="659.5" x2="747.5" y1="508.2969" y2="508.2969"/><line style="stroke:#181818;stroke-width:0.5;" x1="659.5" x2="747.5" y1="516.2969" y2="516.2969"/></g><!--MD5=[1582a1ceb3054ea3298fac38767ea8e7]
class Consult--><g id="elem_Consult"><rect codeLine="11" fill="#F1F1F1" height="48" id="Consult" rx="2.5" ry="2.5" style="stroke:#181818;stroke-width:0.5;" width="85" x="949" y="260.2969"/><ellipse cx="964" cy="276.2969" fill="#ADD1B2" rx="11" ry="11" style="stroke:#181818;stroke-width:1.0;"/><path d="M966.9688,281.9375 Q966.3906,282.2344 965.75,282.375 Q965.1094,282.5313 964.4063,282.5313 Q961.9063,282.5313 960.5781,280.8906 Q959.2656,279.2344 959.2656,276.1094 Q959.2656,272.9844 960.5781,271.3281 Q961.9063,269.6719 964.4063,269.6719 Q965.1094,269.6719 965.75,269.8281 Q966.4063,269.9844 966.9688,270.2813 L966.9688,273 Q966.3438,272.4219 965.75,272.1563 Q965.1563,271.875 964.5313,271.875 Q963.1875,271.875 962.5,272.9531 Q961.8125,274.0156 961.8125,276.1094 Q961.8125,278.2031 962.5,279.2813 Q963.1875,280.3438 964.5313,280.3438 Q965.1563,280.3438 965.75,280.0781 Q966.3438,279.7969 966.9688,279.2188 L966.9688,281.9375 Z " fill="#000000"/><text fill="#000000" font-family="sans-serif" font-size="14" lengthAdjust="spacing" textLength="53" x="978" y="281.1436">Consult</text><line style="stroke:#181818;stroke-width:0.5;" x1="950" x2="1033" y1="292.2969" y2="292.2969"/><line style="stroke:#181818;stroke-width:0.5;" x1="950" x2="1033" y1="300.2969" y2="300.2969"/></g><!--MD5=[ae82a2da8b56c6226c99c86cebc2591c]
class Manage--><g id="elem_Manage"><rect codeLine="12" fill="#F1F1F1" height="48" id="Manage" rx="2.5" ry="2.5" style="stroke:#181818;stroke-width:0.5;" width="87" x="7" y="260.2969"/><ellipse cx="22" cy="276.2969" fill="#ADD1B2" rx="11" ry="11" style="stroke:#181818;stroke-width:1.0;"/><path d="M24.9688,281.9375 Q24.3906,282.2344 23.75,282.375 Q23.1094,282.5313 22.4063,282.5313 Q19.9063,282.5313 18.5781,280.8906 Q17.2656,279.2344 17.2656,276.1094 Q17.2656,272.9844 18.5781,271.3281 Q19.9063,269.6719 22.4063,269.6719 Q23.1094,269.6719 23.75,269.8281 Q24.4063,269.9844 24.9688,270.2813 L24.9688,273 Q24.3438,272.4219 23.75,272.1563 Q23.1563,271.875 22.5313,271.875 Q21.1875,271.875 20.5,272.9531 Q19.8125,274.0156 19.8125,276.1094 Q19.8125,278.2031 20.5,279.2813 Q21.1875,280.3438 22.5313,280.3438 Q23.1563,280.3438 23.75,280.0781 Q24.3438,279.7969 24.9688,279.2188 L24.9688,281.9375 Z " fill="#000000"/><text fill="#000000" font-family="sans-serif" font-size="14" lengthAdjust="spacing" textLength="55" x="36" y="281.1436">Manage</text><line style="stroke:#181818;stroke-width:0.5;" x1="8" x2="93" y1="292.2969" y2="292.2969"/><line style="stroke:#181818;stroke-width:0.5;" x1="8" x2="93" y1="300.2969" y2="300.2969"/></g><!--MD5=[6584eb4189611289abbb06941f844685]
class Apply--><g id="elem_Apply"><rect codeLine="13" fill="#F1F1F1" height="48" id="Apply" rx="2.5" ry="2.5" style="stroke:#181818;stroke-width:0.5;" width="69" x="1225" y="260.2969"/><ellipse cx="1240" cy="276.2969" fill="#ADD1B2" rx="11" ry="11" style="stroke:#181818;stroke-width:1.0;"/><path d="M1242.9688,281.9375 Q1242.3906,282.2344 1241.75,282.375 Q1241.1094,282.5313 1240.4063,282.5313 Q1237.9063,282.5313 1236.5781,280.8906 Q1235.2656,279.2344 1235.2656,276.1094 Q1235.2656,272.9844 1236.5781,271.3281 Q1237.9063,269.6719 1240.4063,269.6719 Q1241.1094,269.6719 1241.75,269.8281 Q1242.4063,269.9844 1242.9688,270.2813 L1242.9688,273 Q1242.3438,272.4219 1241.75,272.1563 Q1241.1563,271.875 1240.5313,271.875 Q1239.1875,271.875 1238.5,272.9531 Q1237.8125,274.0156 1237.8125,276.1094 Q1237.8125,278.2031 1238.5,279.2813 Q1239.1875,280.3438 1240.5313,280.3438 Q1241.1563,280.3438 1241.75,280.0781 Q1242.3438,279.7969 1242.9688,279.2188 L1242.9688,281.9375 Z " fill="#000000"/><text fill="#000000" font-family="sans-serif" font-size="14" lengthAdjust="spacing" textLength="37" x="1254" y="281.1436">Apply</text><line style="stroke:#181818;stroke-width:0.5;" x1="1226" x2="1293" y1="292.2969" y2="292.2969"/><line style="stroke:#181818;stroke-width:0.5;" x1="1226" x2="1293" y1="300.2969" y2="300.2969"/></g><!--MD5=[107af66394bf1ebaa045812c9c475148]
class Score--><g id="elem_Score"><rect codeLine="14" fill="#F1F1F1" height="48" id="Score" rx="2.5" ry="2.5" style="stroke:#181818;stroke-width:0.5;" width="72" x="273.5" y="260.2969"/><ellipse cx="288.5" cy="276.2969" fill="#ADD1B2" rx="11" ry="11" style="stroke:#181818;stroke-width:1.0;"/><path d="M291.4688,281.9375 Q290.8906,282.2344 290.25,282.375 Q289.6094,282.5313 288.9063,282.5313 Q286.4063,282.5313 285.0781,280.8906 Q283.7656,279.2344 283.7656,276.1094 Q283.7656,272.9844 285.0781,271.3281 Q286.4063,269.6719 288.9063,269.6719 Q289.6094,269.6719 290.25,269.8281 Q290.9063,269.9844 291.4688,270.2813 L291.4688,273 Q290.8438,272.4219 290.25,272.1563 Q289.6563,271.875 289.0313,271.875 Q287.6875,271.875 287,272.9531 Q286.3125,274.0156 286.3125,276.1094 Q286.3125,278.2031 287,279.2813 Q287.6875,280.3438 289.0313,280.3438 Q289.6563,280.3438 290.25,280.0781 Q290.8438,279.7969 291.4688,279.2188 L291.4688,281.9375 Z " fill="#000000"/><text fill="#000000" font-family="sans-serif" font-size="14" lengthAdjust="spacing" textLength="40" x="302.5" y="281.1436">Score</text><line style="stroke:#181818;stroke-width:0.5;" x1="274.5" x2="344.5" y1="292.2969" y2="292.2969"/><line style="stroke:#181818;stroke-width:0.5;" x1="274.5" x2="344.5" y1="300.2969" y2="300.2969"/></g><!--MD5=[75608257a5c34eea21c80da2dd697475]
class PaymentInfo--><g id="elem_PaymentInfo"><rect codeLine="15" fill="#F1F1F1" height="48" id="PaymentInfo" rx="2.5" ry="2.5" style="stroke:#181818;stroke-width:0.5;" width="117" x="381" y="260.2969"/><ellipse cx="396" cy="276.2969" fill="#ADD1B2" rx="11" ry="11" style="stroke:#181818;stroke-width:1.0;"/><path d="M398.9688,281.9375 Q398.3906,282.2344 397.75,282.375 Q397.1094,282.5313 396.4063,282.5313 Q393.9063,282.5313 392.5781,280.8906 Q391.2656,279.2344 391.2656,276.1094 Q391.2656,272.9844 392.5781,271.3281 Q393.9063,269.6719 396.4063,269.6719 Q397.1094,269.6719 397.75,269.8281 Q398.4063,269.9844 398.9688,270.2813 L398.9688,273 Q398.3438,272.4219 397.75,272.1563 Q397.1563,271.875 396.5313,271.875 Q395.1875,271.875 394.5,272.9531 Q393.8125,274.0156 393.8125,276.1094 Q393.8125,278.2031 394.5,279.2813 Q395.1875,280.3438 396.5313,280.3438 Q397.1563,280.3438 397.75,280.0781 Q398.3438,279.7969 398.9688,279.2188 L398.9688,281.9375 Z " fill="#000000"/><text fill="#000000" font-family="sans-serif" font-size="14" lengthAdjust="spacing" textLength="85" x="410" y="281.1436">PaymentInfo</text><line style="stroke:#181818;stroke-width:0.5;" x1="382" x2="497" y1="292.2969" y2="292.2969"/><line style="stroke:#181818;stroke-width:0.5;" x1="382" x2="497" y1="300.2969" y2="300.2969"/></g><!--MD5=[7181b6cfacae2bce8e581b6d37db2178]
class Dorsal--><g id="elem_Dorsal"><rect codeLine="16" fill="#F1F1F1" height="48" id="Dorsal" rx="2.5" ry="2.5" style="stroke:#181818;stroke-width:0.5;" width="76" x="533.5" y="260.2969"/><ellipse cx="548.5" cy="276.2969" fill="#ADD1B2" rx="11" ry="11" style="stroke:#181818;stroke-width:1.0;"/><path d="M551.4688,281.9375 Q550.8906,282.2344 550.25,282.375 Q549.6094,282.5313 548.9063,282.5313 Q546.4063,282.5313 545.0781,280.8906 Q543.7656,279.2344 543.7656,276.1094 Q543.7656,272.9844 545.0781,271.3281 Q546.4063,269.6719 548.9063,269.6719 Q549.6094,269.6719 550.25,269.8281 Q550.9063,269.9844 551.4688,270.2813 L551.4688,273 Q550.8438,272.4219 550.25,272.1563 Q549.6563,271.875 549.0313,271.875 Q547.6875,271.875 547,272.9531 Q546.3125,274.0156 546.3125,276.1094 Q546.3125,278.2031 547,279.2813 Q547.6875,280.3438 549.0313,280.3438 Q549.6563,280.3438 550.25,280.0781 Q550.8438,279.7969 551.4688,279.2188 L551.4688,281.9375 Z " fill="#000000"/><text fill="#000000" font-family="sans-serif" font-size="14" lengthAdjust="spacing" textLength="44" x="562.5" y="281.1436">Dorsal</text><line style="stroke:#181818;stroke-width:0.5;" x1="534.5" x2="608.5" y1="292.2969" y2="292.2969"/><line style="stroke:#181818;stroke-width:0.5;" x1="534.5" x2="608.5" y1="300.2969" y2="300.2969"/></g><!--MD5=[4879bc36ecaf6732470680c23d16b6d6]
class ApplicationPeriod--><g id="elem_ApplicationPeriod"><rect codeLine="17" fill="#F1F1F1" height="48" id="ApplicationPeriod" rx="2.5" ry="2.5" style="stroke:#181818;stroke-width:0.5;" width="151" x="784" y="476.2969"/><ellipse cx="799" cy="492.2969" fill="#ADD1B2" rx="11" ry="11" style="stroke:#181818;stroke-width:1.0;"/><path d="M801.9688,497.9375 Q801.3906,498.2344 800.75,498.375 Q800.1094,498.5313 799.4063,498.5313 Q796.9063,498.5313 795.5781,496.8906 Q794.2656,495.2344 794.2656,492.1094 Q794.2656,488.9844 795.5781,487.3281 Q796.9063,485.6719 799.4063,485.6719 Q800.1094,485.6719 800.75,485.8281 Q801.4063,485.9844 801.9688,486.2813 L801.9688,489 Q801.3438,488.4219 800.75,488.1563 Q800.1563,487.875 799.5313,487.875 Q798.1875,487.875 797.5,488.9531 Q796.8125,490.0156 796.8125,492.1094 Q796.8125,494.2031 797.5,495.2813 Q798.1875,496.3438 799.5313,496.3438 Q800.1563,496.3438 800.75,496.0781 Q801.3438,495.7969 801.9688,495.2188 L801.9688,497.9375 Z " fill="#000000"/><text fill="#000000" font-family="sans-serif" font-size="14" lengthAdjust="spacing" textLength="119" x="813" y="497.1436">ApplicationPeriod</text><line style="stroke:#181818;stroke-width:0.5;" x1="785" x2="934" y1="508.2969" y2="508.2969"/><line style="stroke:#181818;stroke-width:0.5;" x1="785" x2="934" y1="516.2969" y2="516.2969"/></g><!--MD5=[fa2f63ccaf221ae7736318ef25f3047e]
class TrackRecord--><g id="elem_TrackRecord"><rect codeLine="18" fill="#F1F1F1" height="48" id="TrackRecord" rx="2.5" ry="2.5" style="stroke:#181818;stroke-width:0.5;" width="120" x="1069.5" y="260.2969"/><ellipse cx="1084.5" cy="276.2969" fill="#ADD1B2" rx="11" ry="11" style="stroke:#181818;stroke-width:1.0;"/><path d="M1087.4688,281.9375 Q1086.8906,282.2344 1086.25,282.375 Q1085.6094,282.5313 1084.9063,282.5313 Q1082.4063,282.5313 1081.0781,280.8906 Q1079.7656,279.2344 1079.7656,276.1094 Q1079.7656,272.9844 1081.0781,271.3281 Q1082.4063,269.6719 1084.9063,269.6719 Q1085.6094,269.6719 1086.25,269.8281 Q1086.9063,269.9844 1087.4688,270.2813 L1087.4688,273 Q1086.8438,272.4219 1086.25,272.1563 Q1085.6563,271.875 1085.0313,271.875 Q1083.6875,271.875 1083,272.9531 Q1082.3125,274.0156 1082.3125,276.1094 Q1082.3125,278.2031 1083,279.2813 Q1083.6875,280.3438 1085.0313,280.3438 Q1085.6563,280.3438 1086.25,280.0781 Q1086.8438,279.7969 1087.4688,279.2188 L1087.4688,281.9375 Z " fill="#000000"/><text fill="#000000" font-family="sans-serif" font-size="14" lengthAdjust="spacing" textLength="88" x="1098.5" y="281.1436">TrackRecord</text><line style="stroke:#181818;stroke-width:0.5;" x1="1070.5" x2="1188.5" y1="292.2969" y2="292.2969"/><line style="stroke:#181818;stroke-width:0.5;" x1="1070.5" x2="1188.5" y1="300.2969" y2="300.2969"/></g><!--MD5=[daaf474a872145e7245538cddd912e0c]
class Suscription--><g id="elem_Suscription"><rect codeLine="19" fill="#F1F1F1" height="48" id="Suscription" rx="2.5" ry="2.5" style="stroke:#181818;stroke-width:0.5;" width="109" x="129" y="260.2969"/><ellipse cx="144" cy="276.2969" fill="#ADD1B2" rx="11" ry="11" style="stroke:#181818;stroke-width:1.0;"/><path d="M146.9688,281.9375 Q146.3906,282.2344 145.75,282.375 Q145.1094,282.5313 144.4063,282.5313 Q141.9063,282.5313 140.5781,280.8906 Q139.2656,279.2344 139.2656,276.1094 Q139.2656,272.9844 140.5781,271.3281 Q141.9063,269.6719 144.4063,269.6719 Q145.1094,269.6719 145.75,269.8281 Q146.4063,269.9844 146.9688,270.2813 L146.9688,273 Q146.3438,272.4219 145.75,272.1563 Q145.1563,271.875 144.5313,271.875 Q143.1875,271.875 142.5,272.9531 Q141.8125,274.0156 141.8125,276.1094 Q141.8125,278.2031 142.5,279.2813 Q143.1875,280.3438 144.5313,280.3438 Q145.1563,280.3438 145.75,280.0781 Q146.3438,279.7969 146.9688,279.2188 L146.9688,281.9375 Z " fill="#000000"/><text fill="#000000" font-family="sans-serif" font-size="14" lengthAdjust="spacing" textLength="77" x="158" y="281.1436">Suscription</text><line style="stroke:#181818;stroke-width:0.5;" x1="130" x2="237" y1="292.2969" y2="292.2969"/><line style="stroke:#181818;stroke-width:0.5;" x1="130" x2="237" y1="300.2969" y2="300.2969"/></g><!--MD5=[1537e7b3e760210491ed7d5f83b83174]
class Registration--><g id="elem_Registration"><rect codeLine="20" fill="#F1F1F1" height="48" id="Registration" rx="2.5" ry="2.5" style="stroke:#181818;stroke-width:0.5;" width="115" x="970" y="476.2969"/><ellipse cx="985" cy="492.2969" fill="#ADD1B2" rx="11" ry="11" style="stroke:#181818;stroke-width:1.0;"/><path d="M987.9688,497.9375 Q987.3906,498.2344 986.75,498.375 Q986.1094,498.5313 985.4063,498.5313 Q982.9063,498.5313 981.5781,496.8906 Q980.2656,495.2344 980.2656,492.1094 Q980.2656,488.9844 981.5781,487.3281 Q982.9063,485.6719 985.4063,485.6719 Q986.1094,485.6719 986.75,485.8281 Q987.4063,485.9844 987.9688,486.2813 L987.9688,489 Q987.3438,488.4219 986.75,488.1563 Q986.1563,487.875 985.5313,487.875 Q984.1875,487.875 983.5,488.9531 Q982.8125,490.0156 982.8125,492.1094 Q982.8125,494.2031 983.5,495.2813 Q984.1875,496.3438 985.5313,496.3438 Q986.1563,496.3438 986.75,496.0781 Q987.3438,495.7969 987.9688,495.2188 L987.9688,497.9375 Z " fill="#000000"/><text fill="#000000" font-family="sans-serif" font-size="14" lengthAdjust="spacing" textLength="83" x="999" y="497.1436">Registration</text><line style="stroke:#181818;stroke-width:0.5;" x1="971" x2="1084" y1="508.2969" y2="508.2969"/><line style="stroke:#181818;stroke-width:0.5;" x1="971" x2="1084" y1="516.2969" y2="516.2969"/></g><!--MD5=[1eb16f587f0be04f87e5494aaa8d5362]
class ApplicationCode--><g id="elem_ApplicationCode"><rect fill="#F1F1F1" height="48" id="ApplicationCode" rx="2.5" ry="2.5" style="stroke:#181818;stroke-width:0.5;" width="144" x="1187.5" y="368.2969"/><ellipse cx="1202.5" cy="384.2969" fill="#ADD1B2" rx="11" ry="11" style="stroke:#181818;stroke-width:1.0;"/><path d="M1205.4688,389.9375 Q1204.8906,390.2344 1204.25,390.375 Q1203.6094,390.5313 1202.9063,390.5313 Q1200.4063,390.5313 1199.0781,388.8906 Q1197.7656,387.2344 1197.7656,384.1094 Q1197.7656,380.9844 1199.0781,379.3281 Q1200.4063,377.6719 1202.9063,377.6719 Q1203.6094,377.6719 1204.25,377.8281 Q1204.9063,377.9844 1205.4688,378.2813 L1205.4688,381 Q1204.8438,380.4219 1204.25,380.1563 Q1203.6563,379.875 1203.0313,379.875 Q1201.6875,379.875 1201,380.9531 Q1200.3125,382.0156 1200.3125,384.1094 Q1200.3125,386.2031 1201,387.2813 Q1201.6875,388.3438 1203.0313,388.3438 Q1203.6563,388.3438 1204.25,388.0781 Q1204.8438,387.7969 1205.4688,387.2188 L1205.4688,389.9375 Z " fill="#000000"/><text fill="#000000" font-family="sans-serif" font-size="14" lengthAdjust="spacing" textLength="112" x="1216.5" y="389.1436">ApplicationCode</text><line style="stroke:#181818;stroke-width:0.5;" x1="1188.5" x2="1330.5" y1="400.2969" y2="400.2969"/><line style="stroke:#181818;stroke-width:0.5;" x1="1188.5" x2="1330.5" y1="408.2969" y2="408.2969"/></g><!--MD5=[7fa87c15454b6b26abd290c64b708ccb]
class AthleteCapacity--><g id="elem_AthleteCapacity"><rect fill="#F1F1F1" height="48" id="AthleteCapacity" rx="2.5" ry="2.5" style="stroke:#181818;stroke-width:0.5;" width="139" x="1120" y="476.2969"/><ellipse cx="1135" cy="492.2969" fill="#ADD1B2" rx="11" ry="11" style="stroke:#181818;stroke-width:1.0;"/><path d="M1137.9688,497.9375 Q1137.3906,498.2344 1136.75,498.375 Q1136.1094,498.5313 1135.4063,498.5313 Q1132.9063,498.5313 1131.5781,496.8906 Q1130.2656,495.2344 1130.2656,492.1094 Q1130.2656,488.9844 1131.5781,487.3281 Q1132.9063,485.6719 1135.4063,485.6719 Q1136.1094,485.6719 1136.75,485.8281 Q1137.4063,485.9844 1137.9688,486.2813 L1137.9688,489 Q1137.3438,488.4219 1136.75,488.1563 Q1136.1563,487.875 1135.5313,487.875 Q1134.1875,487.875 1133.5,488.9531 Q1132.8125,490.0156 1132.8125,492.1094 Q1132.8125,494.2031 1133.5,495.2813 Q1134.1875,496.3438 1135.5313,496.3438 Q1136.1563,496.3438 1136.75,496.0781 Q1137.3438,495.7969 1137.9688,495.2188 L1137.9688,497.9375 Z " fill="#000000"/><text fill="#000000" font-family="sans-serif" font-size="14" lengthAdjust="spacing" textLength="107" x="1149" y="497.1436">AthleteCapacity</text><line style="stroke:#181818;stroke-width:0.5;" x1="1121" x2="1258" y1="508.2969" y2="508.2969"/><line style="stroke:#181818;stroke-width:0.5;" x1="1121" x2="1258" y1="516.2969" y2="516.2969"/></g><!--MD5=[9248640f641e1b311851ffce650eff16]
class GlobalScore--><g id="elem_GlobalScore"><rect fill="#F1F1F1" height="48" id="GlobalScore" rx="2.5" ry="2.5" style="stroke:#181818;stroke-width:0.5;" width="115" x="1294" y="476.2969"/><ellipse cx="1309" cy="492.2969" fill="#ADD1B2" rx="11" ry="11" style="stroke:#181818;stroke-width:1.0;"/><path d="M1311.9688,497.9375 Q1311.3906,498.2344 1310.75,498.375 Q1310.1094,498.5313 1309.4063,498.5313 Q1306.9063,498.5313 1305.5781,496.8906 Q1304.2656,495.2344 1304.2656,492.1094 Q1304.2656,488.9844 1305.5781,487.3281 Q1306.9063,485.6719 1309.4063,485.6719 Q1310.1094,485.6719 1310.75,485.8281 Q1311.4063,485.9844 1311.9688,486.2813 L1311.9688,489 Q1311.3438,488.4219 1310.75,488.1563 Q1310.1563,487.875 1309.5313,487.875 Q1308.1875,487.875 1307.5,488.9531 Q1306.8125,490.0156 1306.8125,492.1094 Q1306.8125,494.2031 1307.5,495.2813 Q1308.1875,496.3438 1309.5313,496.3438 Q1310.1563,496.3438 1310.75,496.0781 Q1311.3438,495.7969 1311.9688,495.2188 L1311.9688,497.9375 Z " fill="#000000"/><text fill="#000000" font-family="sans-serif" font-size="14" lengthAdjust="spacing" textLength="83" x="1323" y="497.1436">GlobalScore</text><line style="stroke:#181818;stroke-width:0.5;" x1="1295" x2="1408" y1="508.2969" y2="508.2969"/><line style="stroke:#181818;stroke-width:0.5;" x1="1295" x2="1408" y1="516.2969" y2="516.2969"/></g><!--MD5=[4296a1ab0576a383a1a509d52c22ebf0]
class Type--><g id="elem_Type"><rect fill="#F1F1F1" height="48" id="Type" rx="2.5" ry="2.5" style="stroke:#181818;stroke-width:0.5;" width="66" x="1444.5" y="476.2969"/><ellipse cx="1459.5" cy="492.2969" fill="#ADD1B2" rx="11" ry="11" style="stroke:#181818;stroke-width:1.0;"/><path d="M1462.4688,497.9375 Q1461.8906,498.2344 1461.25,498.375 Q1460.6094,498.5313 1459.9063,498.5313 Q1457.4063,498.5313 1456.0781,496.8906 Q1454.7656,495.2344 1454.7656,492.1094 Q1454.7656,488.9844 1456.0781,487.3281 Q1457.4063,485.6719 1459.9063,485.6719 Q1460.6094,485.6719 1461.25,485.8281 Q1461.9063,485.9844 1462.4688,486.2813 L1462.4688,489 Q1461.8438,488.4219 1461.25,488.1563 Q1460.6563,487.875 1460.0313,487.875 Q1458.6875,487.875 1458,488.9531 Q1457.3125,490.0156 1457.3125,492.1094 Q1457.3125,494.2031 1458,495.2813 Q1458.6875,496.3438 1460.0313,496.3438 Q1460.6563,496.3438 1461.25,496.0781 Q1461.8438,495.7969 1462.4688,495.2188 L1462.4688,497.9375 Z " fill="#000000"/><text fill="#000000" font-family="sans-serif" font-size="14" lengthAdjust="spacing" textLength="34" x="1473.5" y="497.1436">Type</text><line style="stroke:#181818;stroke-width:0.5;" x1="1445.5" x2="1509.5" y1="508.2969" y2="508.2969"/><line style="stroke:#181818;stroke-width:0.5;" x1="1445.5" x2="1509.5" y1="516.2969" y2="516.2969"/></g><!--MD5=[ff1ec4984a10357ff87efd790c997cab]
class AthleteRegistrationDate--><g id="elem_AthleteRegistrationDate"><rect fill="#F1F1F1" height="48" id="AthleteRegistrationDate" rx="2.5" ry="2.5" style="stroke:#181818;stroke-width:0.5;" width="197" x="645" y="260.2969"/><ellipse cx="660" cy="276.2969" fill="#ADD1B2" rx="11" ry="11" style="stroke:#181818;stroke-width:1.0;"/><path d="M662.9688,281.9375 Q662.3906,282.2344 661.75,282.375 Q661.1094,282.5313 660.4063,282.5313 Q657.9063,282.5313 656.5781,280.8906 Q655.2656,279.2344 655.2656,276.1094 Q655.2656,272.9844 656.5781,271.3281 Q657.9063,269.6719 660.4063,269.6719 Q661.1094,269.6719 661.75,269.8281 Q662.4063,269.9844 662.9688,270.2813 L662.9688,273 Q662.3438,272.4219 661.75,272.1563 Q661.1563,271.875 660.5313,271.875 Q659.1875,271.875 658.5,272.9531 Q657.8125,274.0156 657.8125,276.1094 Q657.8125,278.2031 658.5,279.2813 Q659.1875,280.3438 660.5313,280.3438 Q661.1563,280.3438 661.75,280.0781 Q662.3438,279.7969 662.9688,279.2188 L662.9688,281.9375 Z " fill="#000000"/><text fill="#000000" font-family="sans-serif" font-size="14" lengthAdjust="spacing" textLength="165" x="674" y="281.1436">AthleteRegistrationDate</text><line style="stroke:#181818;stroke-width:0.5;" x1="646" x2="841" y1="292.2969" y2="292.2969"/><line style="stroke:#181818;stroke-width:0.5;" x1="646" x2="841" y1="300.2969" y2="300.2969"/></g><!--MD5=[d40c1293bf545fb669cd4f076a63ddfc]
class RegistrationType--><g id="elem_RegistrationType"><rect fill="#F1F1F1" height="48" id="RegistrationType" rx="2.5" ry="2.5" style="stroke:#181818;stroke-width:0.5;" width="149" x="769" y="584.2969"/><ellipse cx="784" cy="600.2969" fill="#ADD1B2" rx="11" ry="11" style="stroke:#181818;stroke-width:1.0;"/><path d="M786.9688,605.9375 Q786.3906,606.2344 785.75,606.375 Q785.1094,606.5313 784.4063,606.5313 Q781.9063,606.5313 780.5781,604.8906 Q779.2656,603.2344 779.2656,600.1094 Q779.2656,596.9844 780.5781,595.3281 Q781.9063,593.6719 784.4063,593.6719 Q785.1094,593.6719 785.75,593.8281 Q786.4063,593.9844 786.9688,594.2813 L786.9688,597 Q786.3438,596.4219 785.75,596.1563 Q785.1563,595.875 784.5313,595.875 Q783.1875,595.875 782.5,596.9531 Q781.8125,598.0156 781.8125,600.1094 Q781.8125,602.2031 782.5,603.2813 Q783.1875,604.3438 784.5313,604.3438 Q785.1563,604.3438 785.75,604.0781 Q786.3438,603.7969 786.9688,603.2188 L786.9688,605.9375 Z " fill="#000000"/><text fill="#000000" font-family="sans-serif" font-size="14" lengthAdjust="spacing" textLength="117" x="798" y="605.1436">RegistrationType</text><line style="stroke:#181818;stroke-width:0.5;" x1="770" x2="917" y1="616.2969" y2="616.2969"/><line style="stroke:#181818;stroke-width:0.5;" x1="770" x2="917" y1="624.2969" y2="624.2969"/></g><!--MD5=[b12e0ef570f00e2cf0640b1aecbc69b7]
class RegistrationDate--><g id="elem_RegistrationDate"><rect fill="#F1F1F1" height="48" id="RegistrationDate" rx="2.5" ry="2.5" style="stroke:#181818;stroke-width:0.5;" width="148" x="953.5" y="584.2969"/><ellipse cx="968.5" cy="600.2969" fill="#ADD1B2" rx="11" ry="11" style="stroke:#181818;stroke-width:1.0;"/><path d="M971.4688,605.9375 Q970.8906,606.2344 970.25,606.375 Q969.6094,606.5313 968.9063,606.5313 Q966.4063,606.5313 965.0781,604.8906 Q963.7656,603.2344 963.7656,600.1094 Q963.7656,596.9844 965.0781,595.3281 Q966.4063,593.6719 968.9063,593.6719 Q969.6094,593.6719 970.25,593.8281 Q970.9063,593.9844 971.4688,594.2813 L971.4688,597 Q970.8438,596.4219 970.25,596.1563 Q969.6563,595.875 969.0313,595.875 Q967.6875,595.875 967,596.9531 Q966.3125,598.0156 966.3125,600.1094 Q966.3125,602.2031 967,603.2813 Q967.6875,604.3438 969.0313,604.3438 Q969.6563,604.3438 970.25,604.0781 Q970.8438,603.7969 971.4688,603.2188 L971.4688,605.9375 Z " fill="#000000"/><text fill="#000000" font-family="sans-serif" font-size="14" lengthAdjust="spacing" textLength="116" x="982.5" y="605.1436">RegistrationDate</text><line style="stroke:#181818;stroke-width:0.5;" x1="954.5" x2="1100.5" y1="616.2969" y2="616.2969"/><line style="stroke:#181818;stroke-width:0.5;" x1="954.5" x2="1100.5" y1="624.2969" y2="624.2969"/></g><!--MD5=[a071edbadeaaf875ef26ba4cdee01b34]
class RegistrationCost--><g id="elem_RegistrationCost"><rect fill="#F1F1F1" height="48" id="RegistrationCost" rx="2.5" ry="2.5" style="stroke:#181818;stroke-width:0.5;" width="147" x="1137" y="584.2969"/><ellipse cx="1152" cy="600.2969" fill="#ADD1B2" rx="11" ry="11" style="stroke:#181818;stroke-width:1.0;"/><path d="M1154.9688,605.9375 Q1154.3906,606.2344 1153.75,606.375 Q1153.1094,606.5313 1152.4063,606.5313 Q1149.9063,606.5313 1148.5781,604.8906 Q1147.2656,603.2344 1147.2656,600.1094 Q1147.2656,596.9844 1148.5781,595.3281 Q1149.9063,593.6719 1152.4063,593.6719 Q1153.1094,593.6719 1153.75,593.8281 Q1154.4063,593.9844 1154.9688,594.2813 L1154.9688,597 Q1154.3438,596.4219 1153.75,596.1563 Q1153.1563,595.875 1152.5313,595.875 Q1151.1875,595.875 1150.5,596.9531 Q1149.8125,598.0156 1149.8125,600.1094 Q1149.8125,602.2031 1150.5,603.2813 Q1151.1875,604.3438 1152.5313,604.3438 Q1153.1563,604.3438 1153.75,604.0781 Q1154.3438,603.7969 1154.9688,603.2188 L1154.9688,605.9375 Z " fill="#000000"/><text fill="#000000" font-family="sans-serif" font-size="14" lengthAdjust="spacing" textLength="115" x="1166" y="605.1436">RegistrationCost</text><line style="stroke:#181818;stroke-width:0.5;" x1="1138" x2="1283" y1="616.2969" y2="616.2969"/><line style="stroke:#181818;stroke-width:0.5;" x1="1138" x2="1283" y1="624.2969" y2="624.2969"/></g><!--MD5=[1dc911963f0116eb7551a64657943f11]
class ByDrawing--><g id="elem_ByDrawing"><rect fill="#F1F1F1" height="48" id="ByDrawing" rx="2.5" ry="2.5" style="stroke:#181818;stroke-width:0.5;" width="105" x="725" y="692.2969"/><ellipse cx="740" cy="708.2969" fill="#ADD1B2" rx="11" ry="11" style="stroke:#181818;stroke-width:1.0;"/><path d="M742.9688,713.9375 Q742.3906,714.2344 741.75,714.375 Q741.1094,714.5313 740.4063,714.5313 Q737.9063,714.5313 736.5781,712.8906 Q735.2656,711.2344 735.2656,708.1094 Q735.2656,704.9844 736.5781,703.3281 Q737.9063,701.6719 740.4063,701.6719 Q741.1094,701.6719 741.75,701.8281 Q742.4063,701.9844 742.9688,702.2813 L742.9688,705 Q742.3438,704.4219 741.75,704.1563 Q741.1563,703.875 740.5313,703.875 Q739.1875,703.875 738.5,704.9531 Q737.8125,706.0156 737.8125,708.1094 Q737.8125,710.2031 738.5,711.2813 Q739.1875,712.3438 740.5313,712.3438 Q741.1563,712.3438 741.75,712.0781 Q742.3438,711.7969 742.9688,711.2188 L742.9688,713.9375 Z " fill="#000000"/><text fill="#000000" font-family="sans-serif" font-size="14" lengthAdjust="spacing" textLength="73" x="754" y="713.1436">ByDrawing</text><line style="stroke:#181818;stroke-width:0.5;" x1="726" x2="829" y1="724.2969" y2="724.2969"/><line style="stroke:#181818;stroke-width:0.5;" x1="726" x2="829" y1="732.2969" y2="732.2969"/></g><!--MD5=[626ee839297ae6d74adcb816213ff129]
class ByOrder--><g id="elem_ByOrder"><rect fill="#F1F1F1" height="48" id="ByOrder" rx="2.5" ry="2.5" style="stroke:#181818;stroke-width:0.5;" width="88" x="865.5" y="692.2969"/><ellipse cx="880.5" cy="708.2969" fill="#ADD1B2" rx="11" ry="11" style="stroke:#181818;stroke-width:1.0;"/><path d="M883.4688,713.9375 Q882.8906,714.2344 882.25,714.375 Q881.6094,714.5313 880.9063,714.5313 Q878.4063,714.5313 877.0781,712.8906 Q875.7656,711.2344 875.7656,708.1094 Q875.7656,704.9844 877.0781,703.3281 Q878.4063,701.6719 880.9063,701.6719 Q881.6094,701.6719 882.25,701.8281 Q882.9063,701.9844 883.4688,702.2813 L883.4688,705 Q882.8438,704.4219 882.25,704.1563 Q881.6563,703.875 881.0313,703.875 Q879.6875,703.875 879,704.9531 Q878.3125,706.0156 878.3125,708.1094 Q878.3125,710.2031 879,711.2813 Q879.6875,712.3438 881.0313,712.3438 Q881.6563,712.3438 882.25,712.0781 Q882.8438,711.7969 883.4688,711.2188 L883.4688,713.9375 Z " fill="#000000"/><text fill="#000000" font-family="sans-serif" font-size="14" lengthAdjust="spacing" textLength="56" x="894.5" y="713.1436">ByOrder</text><line style="stroke:#181818;stroke-width:0.5;" x1="866.5" x2="952.5" y1="724.2969" y2="724.2969"/><line style="stroke:#181818;stroke-width:0.5;" x1="866.5" x2="952.5" y1="732.2969" y2="732.2969"/></g><!--MD5=[23e1070f3df272e91d97f134644eec19]
link YourRace to Athlete--><g id="link_YourRace_Athlete"><path codeLine="22" d="M648.6468,85.3437 C648.6468,85.3437 863.76,141.7769 938.26,161.3269 " fill="none" id="YourRace-Athlete" style="stroke:#181818;stroke-width:1.0;"/><polygon fill="#181818" points="950.99,164.6669,943.3005,158.5129,946.1538,163.3974,941.2693,166.2507,950.99,164.6669" style="stroke:#181818;stroke-width:1.0;"/><line style="stroke:#181818;stroke-width:1.0;" x1="946.1538" x2="938.425" y1="163.3974" y2="161.3669"/><polygon fill="#181818" points="637.04,82.2969,641.8278,87.6892,648.6468,85.3437,643.859,79.9513,637.04,82.2969" style="stroke:#181818;stroke-width:1.0;"/></g><!--MD5=[5359aeb4b27adfe89cdf839703c53325]
link YourRace to Organizer--><g id="link_YourRace_Organizer"><path codeLine="23" d="M526.3532,85.3437 C526.3532,85.3437 321.65,139.0469 245.76,158.9569 " fill="none" id="YourRace-Organizer" style="stroke:#181818;stroke-width:1.0;"/><polygon fill="#181818" points="233.13,162.2769,242.8507,163.8607,237.9662,161.0074,240.8195,156.1229,233.13,162.2769" style="stroke:#181818;stroke-width:1.0;"/><line style="stroke:#181818;stroke-width:1.0;" x1="237.9662" x2="245.705" y1="161.0074" y2="158.9769"/><polygon fill="#181818" points="537.96,82.2969,531.141,79.9513,526.3532,85.3437,533.1722,87.6892,537.96,82.2969" style="stroke:#181818;stroke-width:1.0;"/></g><!--MD5=[7151f2d60812e04faec703a7b590ae07]
link Organizer to Manage--><g id="link_Organizer_Manage"><path codeLine="25" d="M154.64,200.2969 C133.78,216.9169 105.56,239.4169 83.76,256.7969 " fill="none" id="Organizer-to-Manage" style="stroke:#181818;stroke-width:1.0;"/><polygon fill="#181818" points="79.76,259.9769,89.2933,257.5036,83.6727,256.8639,84.3124,251.2433,79.76,259.9769" style="stroke:#181818;stroke-width:1.0;"/></g><!--MD5=[37d723eb891adce7d8e365d1b147a08a]
link Athlete to Apply--><g id="link_Athlete_Apply"><path codeLine="27" d="M1032.34,192.3069 C1075.96,208.4869 1146.98,235.2969 1207.5,260.2969 C1211.65,262.0169 1215.98,263.8469 1220.27,265.6969 " fill="none" id="Athlete-to-Apply" style="stroke:#181818;stroke-width:1.0;stroke-dasharray:7.0,7.0;"/><polygon fill="#181818" points="1224.92,267.7169,1218.2505,260.4699,1220.3317,265.73,1215.0716,267.8112,1224.92,267.7169" style="stroke:#181818;stroke-width:1.0;"/></g><!--MD5=[f05b3ee42e886bc038042c952099922c]
link Athlete to Consult--><g id="link_Athlete_Consult"><path codeLine="28" d="M991.5,200.2969 C991.5,216.2969 991.5,237.7469 991.5,254.8269 " fill="none" id="Athlete-to-Consult" style="stroke:#181818;stroke-width:1.0;"/><polygon fill="#181818" points="991.5,259.9769,995.5,250.9769,991.5,254.9769,987.5,250.9769,991.5,259.9769" style="stroke:#181818;stroke-width:1.0;"/></g><!--MD5=[1af141ae5437315f4ccd964254671e2b]
link Athlete to TrackRecord--><g id="link_Athlete_TrackRecord"><path codeLine="29" d="M1030.9539,207.6102 C1030.9539,207.6102 1070.78,238.1969 1088.71,251.9669 " fill="none" id="Athlete-TrackRecord" style="stroke:#181818;stroke-width:1.0;"/><polygon fill="#181818" points="1099.14,259.9769,1094.4348,251.3247,1095.1732,256.9331,1089.5648,257.6715,1099.14,259.9769" style="stroke:#181818;stroke-width:1.0;"/><line style="stroke:#181818;stroke-width:1.0;" x1="1095.1732" x2="1088.83" y1="256.9331" y2="252.0569"/><polygon fill="#181818" points="1021.44,200.2969,1023.7592,207.1249,1030.9539,207.6102,1028.6347,200.7822,1021.44,200.2969" style="stroke:#181818;stroke-width:1.0;"/></g><!--MD5=[dcfb4e855971f3c033a0c29c0562827a]
link Apply to ApplicationCode--><g id="link_Apply_ApplicationCode"><path codeLine="31" d="M1259.5,320.2969 C1259.5,320.2969 1259.5,343.9769 1259.5,354.6569 " fill="none" id="Apply-ApplicationCode" style="stroke:#181818;stroke-width:1.0;"/><polygon fill="#181818" points="1259.5,367.9769,1263.5,358.9769,1259.5,362.9769,1255.5,358.9769,1259.5,367.9769" style="stroke:#181818;stroke-width:1.0;"/><line style="stroke:#181818;stroke-width:1.0;" x1="1259.5" x2="1259.5" y1="362.9769" y2="354.9769"/><polygon fill="#181818" points="1259.5,308.2969,1255.5,314.2969,1259.5,320.2969,1263.5,314.2969,1259.5,308.2969" style="stroke:#181818;stroke-width:1.0;"/></g><!--MD5=[53d46adbeb03dd17ed534e5ba23ccd4d]
link Apply to Race--><g id="link_Apply_Race"><path codeLine="33" d="M1224.76,301.3069 C1219.04,303.7569 1213.13,306.1769 1207.5,308.2969 C1128.67,338.0169 1033.98,365.9569 982.13,380.6169 " fill="none" id="Apply-to-Race" style="stroke:#181818;stroke-width:1.0;stroke-dasharray:7.0,7.0;"/><polygon fill="#181818" points="977.25,381.9969,986.9977,383.4049,982.0624,380.6403,984.8271,375.705,977.25,381.9969" style="stroke:#181818;stroke-width:1.0;"/></g><!--MD5=[766de44c127d67c269e0e5bad3e2e7ae]
link Consult to Race--><g id="link_Consult_Race"><path codeLine="35" d="M981.08,308.2969 C973.78,324.4369 963.96,346.1169 956.19,363.2669 " fill="none" id="Consult-to-Race" style="stroke:#181818;stroke-width:1.0;"/><polygon fill="#181818" points="954.06,367.9769,961.4257,361.4388,956.129,363.425,954.1428,358.1284,954.06,367.9769" style="stroke:#181818;stroke-width:1.0;"/></g><!--MD5=[e411b63e9fce17c83545870915635e7f]
link Manage to Race--><g id="link_Manage_Race"><path codeLine="37" d="M94.06,303.2769 C99.85,305.2069 105.77,306.9569 111.5,308.2969 C410.93,378.4069 784.55,389.3169 904.52,390.9969 " fill="none" id="Manage-to-Race" style="stroke:#181818;stroke-width:1.0;"/><polygon fill="#181818" points="909.7,391.0669,900.7581,386.9387,904.7005,390.9955,900.6438,394.9379,909.7,391.0669" style="stroke:#181818;stroke-width:1.0;"/></g><!--MD5=[8d22a264b1d458f793ad84cf56e8b974]
link Race to Distance--><g id="link_Race_Distance"><path codeLine="40" d="M898.0976,400.4854 C898.0976,400.4854 667.55,440.5769 540.5,476.2969 C538.9,476.7469 537.29,477.2169 535.66,477.6969 " fill="none" id="Race-Distance" style="stroke:#181818;stroke-width:1.0;"/><polygon fill="#181818" points="523.09,481.6869,532.8789,482.7716,527.8549,480.1718,530.4548,475.1477,523.09,481.6869" style="stroke:#181818;stroke-width:1.0;"/><line style="stroke:#181818;stroke-width:1.0;" x1="527.8549" x2="535.48" y1="480.1718" y2="477.7569"/><polygon fill="#181818" points="909.94,398.5469,903.3726,395.5687,898.0976,400.4854,904.665,403.4636,909.94,398.5469" style="stroke:#181818;stroke-width:1.0;"/></g><!--MD5=[8593d6a5c3560d11be4b908e63e5dfbe]
link Race to AthleteCapacity--><g id="link_Race_AthleteCapacity"><path codeLine="41" d="M988.2115,412.563 C988.2115,412.563 1081.45,452.7369 1124,471.0769 " fill="none" id="Race-AthleteCapacity" style="stroke:#181818;stroke-width:1.0;"/><polygon fill="#181818" points="1135.95,476.2269,1129.2659,468.9934,1131.3577,474.2493,1126.1018,476.3411,1135.95,476.2269" style="stroke:#181818;stroke-width:1.0;"/><line style="stroke:#181818;stroke-width:1.0;" x1="1131.3577" x2="1124.01" y1="474.2493" y2="471.0769"/><polygon fill="#181818" points="977.19,407.8169,981.1187,413.8638,988.2115,412.563,984.2828,406.5161,977.19,407.8169" style="stroke:#181818;stroke-width:1.0;"/></g><!--MD5=[edbfbe743c7fc77980287e7924ad1dd2]
link Race to Date--><g id="link_Race_Date"><path codeLine="42" d="M898.2082,403.429 C898.2082,403.429 730.19,444.3269 641.5,476.2969 C639.43,477.0469 637.32,477.8369 635.2,478.6669 " fill="none" id="Race-Date" style="stroke:#181818;stroke-width:1.0;"/><polygon fill="#181818" points="623.11,483.6869,632.9556,483.9418,627.7301,481.7751,629.8967,476.5496,623.11,483.6869" style="stroke:#181818;stroke-width:1.0;"/><line style="stroke:#181818;stroke-width:1.0;" x1="627.7301" x2="635.12" y1="481.7751" y2="478.7019"/><polygon fill="#181818" points="909.9,400.7269,903.1534,398.1807,898.2082,403.429,904.9548,405.9752,909.9,400.7269" style="stroke:#181818;stroke-width:1.0;"/></g><!--MD5=[12d87157ab46e978eba99b31a6236695]
link Race to Location--><g id="link_Race_Location"><path codeLine="43" d="M898.9007,412.9899 C898.9007,412.9899 802.7,455.4869 760.75,474.0169 " fill="none" id="Race-Location" style="stroke:#181818;stroke-width:1.0;"/><polygon fill="#181818" points="748.77,479.3069,758.6188,479.3288,753.3436,477.2864,755.386,472.0111,748.77,479.3069" style="stroke:#181818;stroke-width:1.0;"/><line style="stroke:#181818;stroke-width:1.0;" x1="753.3436" x2="760.66" y1="477.2864" y2="474.0519"/><polygon fill="#181818" points="909.88,408.1469,902.776,406.9086,898.9007,412.9899,906.0047,414.2282,909.88,408.1469" style="stroke:#181818;stroke-width:1.0;"/></g><!--MD5=[5c565018bc02e33db421e2ed8323910a]
link Race to GlobalScore--><g id="link_Race_GlobalScore"><path codeLine="44" d="M988.8953,403.807 C988.8953,403.807 1174.94,448.0869 1276.5,476.2969 C1278.09,476.7369 1279.69,477.1869 1281.31,477.6469 " fill="none" id="Race-GlobalScore" style="stroke:#181818;stroke-width:1.0;"/><polygon fill="#181818" points="1293.86,481.2769,1286.3339,474.9241,1289.0586,479.8815,1284.1013,482.6063,1293.86,481.2769" style="stroke:#181818;stroke-width:1.0;"/><line style="stroke:#181818;stroke-width:1.0;" x1="1289.0586" x2="1281.37" y1="479.8815" y2="477.6669"/><polygon fill="#181818" points="977.21,401.0769,982.1426,406.337,988.8953,403.807,983.9627,398.5468,977.21,401.0769" style="stroke:#181818;stroke-width:1.0;"/></g><!--MD5=[705270ac592e1243045b327c48162558]
link Race to Type--><g id="link_Race_Type"><path codeLine="45" d="M989.2075,397.2578 C989.2075,397.2578 1270.69,428.6269 1426.5,476.2969 C1428.36,476.8669 1430.24,477.4869 1432.12,478.1469 " fill="none" id="Race-Type" style="stroke:#181818;stroke-width:1.0;"/><polygon fill="#181818" points="1444.5,482.9569,1437.5633,475.9653,1439.8404,481.1436,1434.6621,483.4206,1444.5,482.9569" style="stroke:#181818;stroke-width:1.0;"/><line style="stroke:#181818;stroke-width:1.0;" x1="1439.8404" x2="1432.38" y1="481.1436" y2="478.2469"/><polygon fill="#181818" points="977.26,396.1369,982.8601,400.6798,989.2075,397.2578,983.6074,392.7148,977.26,396.1369" style="stroke:#181818;stroke-width:1.0;"/></g><!--MD5=[f74ac41f8e65a460acd910897c37c7bb]
link Race to ApplicationPeriod--><g id="link_Race_ApplicationPeriod"><path codeLine="46" d="M917.8155,425.7006 C917.8155,425.7006 896.02,453.2169 886.21,465.5969 " fill="none" id="Race-ApplicationPeriod" style="stroke:#181818;stroke-width:1.0;"/><polygon fill="#181818" points="877.98,475.9769,886.7086,471.4149,881.0887,472.0608,880.4428,466.4409,877.98,475.9769" style="stroke:#181818;stroke-width:1.0;"/><line style="stroke:#181818;stroke-width:1.0;" x1="881.0887" x2="886.055" y1="472.0608" y2="465.7869"/><polygon fill="#181818" points="925.27,416.2969,918.4082,418.5139,917.8155,425.7006,924.6773,423.4836,925.27,416.2969" style="stroke:#181818;stroke-width:1.0;"/></g><!--MD5=[e921ad57443782d0d4c22e7ab8201ebc]
link Race to Registration--><g id="link_Race_Registration"><path codeLine="47" d="M969.1845,425.7006 C969.1845,425.7006 990.98,453.2169 1000.79,465.5969 " fill="none" id="Race-Registration" style="stroke:#181818;stroke-width:1.0;"/><polygon fill="#181818" points="1009.02,475.9769,1006.5572,466.4409,1005.9113,472.0608,1000.2914,471.4149,1009.02,475.9769" style="stroke:#181818;stroke-width:1.0;"/><line style="stroke:#181818;stroke-width:1.0;" x1="1005.9113" x2="1000.945" y1="472.0608" y2="465.7869"/><polygon fill="#181818" points="961.73,416.2969,962.3227,423.4836,969.1845,425.7006,968.5918,418.5139,961.73,416.2969" style="stroke:#181818;stroke-width:1.0;"/></g><!--MD5=[b087527d04b27fae334fe5e89ff2b67a]
link Track to Race--><g id="link_Track_Race"><path codeLine="51" d="M692.68,184.8469 C735.88,195.5469 809.57,218.6469 859.5,260.2969 C893.37,288.5569 918.21,334.0469 931.75,363.3069 " fill="none" id="Track-to-Race" style="stroke:#181818;stroke-width:1.0;"/><polygon fill="#181818" points="933.83,367.8569,933.71,358.0087,931.7438,363.3129,926.4396,361.3467,933.83,367.8569" style="stroke:#181818;stroke-width:1.0;"/></g><!--MD5=[723125675b31b30bd32f774e808b7585]
link Track to Athlete--><g id="link_Track_Athlete"><path codeLine="52" d="M692.73,176.2969 C777.12,176.2969 861.51,176.2969 945.9,176.2969 " fill="none" id="Track-to-Athlete" style="stroke:#181818;stroke-width:1.0;"/><polygon fill="#181818" points="950.94,176.2969,941.94,172.2969,945.94,176.2969,941.94,180.2969,950.94,176.2969" style="stroke:#181818;stroke-width:1.0;"/></g><!--MD5=[851c2e7e5fa863029b4e9568e74bd420]
link Track to AthleteRegistrationDate--><g id="link_Track_AthleteRegistrationDate"><path codeLine="53" d="M683.7221,209.6143 C683.7221,209.6143 706.11,237.2169 716.16,249.5969 " fill="none" id="Track-AthleteRegistrationDate" style="stroke:#181818;stroke-width:1.0;"/><polygon fill="#181818" points="724.58,259.9769,722.0208,250.4663,721.4318,256.0924,715.8057,255.5035,724.58,259.9769" style="stroke:#181818;stroke-width:1.0;"/><line style="stroke:#181818;stroke-width:1.0;" x1="721.4318" x2="716.385" y1="256.0924" y2="249.8819"/><polygon fill="#181818" points="676.16,200.2969,676.8353,207.4763,683.7221,209.6143,683.0469,202.4349,676.16,200.2969" style="stroke:#181818;stroke-width:1.0;"/></g><!--MD5=[860877463f0bc93f1df9bb1b1cf8e811]
link Track to Dorsal--><g id="link_Track_Dorsal"><path codeLine="54" d="M631.2779,209.6143 C631.2779,209.6143 608.89,237.2169 598.84,249.5969 " fill="none" id="Track-Dorsal" style="stroke:#181818;stroke-width:1.0;"/><polygon fill="#181818" points="590.42,259.9769,599.1943,255.5035,593.5682,256.0924,592.9792,250.4663,590.42,259.9769" style="stroke:#181818;stroke-width:1.0;"/><line style="stroke:#181818;stroke-width:1.0;" x1="593.5682" x2="598.615" y1="256.0924" y2="249.8819"/><polygon fill="#181818" points="638.84,200.2969,631.9531,202.4349,631.2779,209.6143,638.1647,207.4763,638.84,200.2969" style="stroke:#181818;stroke-width:1.0;"/></g><!--MD5=[8f38138bc2fa095b4f74145647d2aa62]
link Track to PaymentInfo--><g id="link_Track_PaymentInfo"><path codeLine="55" d="M611.6769,199.5719 C611.6769,199.5719 534.2,237.2469 499.07,254.3269 " fill="none" id="Track-PaymentInfo" style="stroke:#181818;stroke-width:1.0;"/><polygon fill="#181818" points="487.04,260.1769,496.883,259.8361,491.5361,257.9893,493.3829,252.6424,487.04,260.1769" style="stroke:#181818;stroke-width:1.0;"/><line style="stroke:#181818;stroke-width:1.0;" x1="491.5361" x2="498.73" y1="257.9893" y2="254.4969"/><polygon fill="#181818" points="622.47,194.3269,615.3251,193.3517,611.6769,199.5719,618.8218,200.5471,622.47,194.3269" style="stroke:#181818;stroke-width:1.0;"/></g><!--MD5=[fb53a1de847ab9694106a812d68be1ce]
link Track to Score--><g id="link_Track_Score"><path codeLine="56" d="M610.5498,188.5931 C610.5498,188.5931 448.65,230.2769 363.5,260.2969 C361.58,260.9769 359.62,261.6869 357.66,262.4269 " fill="none" id="Track-Score" style="stroke:#181818;stroke-width:1.0;"/><polygon fill="#181818" points="345.56,267.1869,355.3997,267.6125,350.2126,265.3556,352.4695,260.1684,345.56,267.1869" style="stroke:#181818;stroke-width:1.0;"/><line style="stroke:#181818;stroke-width:1.0;" x1="350.2126" x2="357.655" y1="265.3556" y2="262.4269"/><polygon fill="#181818" points="622.2,185.7169,615.4161,183.2716,610.5498,188.5931,617.3337,191.0384,622.2,185.7169" style="stroke:#181818;stroke-width:1.0;"/></g><!--MD5=[c0294b685351dc9ae42d4cf001b7cc06]
link Registration to RegistrationType--><g id="link_Registration_RegistrationType"><path codeLine="58" d="M977.1723,530.2875 C977.1723,530.2875 920.46,562.9569 895.23,577.4969 " fill="none" id="Registration-RegistrationType" style="stroke:#181818;stroke-width:1.0;"/><polygon fill="#181818" points="883.66,584.1569,893.4552,583.1299,887.9924,581.6608,889.4614,576.198,883.66,584.1569" style="stroke:#181818;stroke-width:1.0;"/><line style="stroke:#181818;stroke-width:1.0;" x1="887.9924" x2="894.93" y1="581.6608" y2="577.6669"/><polygon fill="#181818" points="987.57,524.2969,980.3743,523.8262,977.1723,530.2875,984.368,530.7581,987.57,524.2969" style="stroke:#181818;stroke-width:1.0;"/></g><!--MD5=[99fb3c277457517443938aee0727aee3]
link Registration to RegistrationDate--><g id="link_Registration_RegistrationDate"><path codeLine="59" d="M1027.5,536.2969 C1027.5,536.2969 1027.5,559.9769 1027.5,570.6569 " fill="none" id="Registration-RegistrationDate" style="stroke:#181818;stroke-width:1.0;"/><polygon fill="#181818" points="1027.5,583.9769,1031.5,574.9769,1027.5,578.9769,1023.5,574.9769,1027.5,583.9769" style="stroke:#181818;stroke-width:1.0;"/><line style="stroke:#181818;stroke-width:1.0;" x1="1027.5" x2="1027.5" y1="578.9769" y2="570.9769"/><polygon fill="#181818" points="1027.5,524.2969,1023.5,530.2969,1027.5,536.2969,1031.5,530.2969,1027.5,524.2969" style="stroke:#181818;stroke-width:1.0;"/></g><!--MD5=[87910c30f36841c7ddeb6ecc215d01aa]
link Registration to RegistrationCost--><g id="link_Registration_RegistrationCost"><path codeLine="60" d="M1077.593,530.313 C1077.593,530.313 1133.96,562.9569 1159.05,577.4969 " fill="none" id="Registration-RegistrationCost" style="stroke:#181818;stroke-width:1.0;"/><polygon fill="#181818" points="1170.55,584.1569,1164.7757,576.1783,1166.2261,581.6461,1160.7584,583.0965,1170.55,584.1569" style="stroke:#181818;stroke-width:1.0;"/><line style="stroke:#181818;stroke-width:1.0;" x1="1166.2261" x2="1159.305" y1="581.6461" y2="577.6419"/><polygon fill="#181818" points="1067.21,524.2969,1070.3961,530.7659,1077.593,530.313,1074.4069,523.8439,1067.21,524.2969" style="stroke:#181818;stroke-width:1.0;"/></g><!--MD5=[f7e2771519c667b35b8ad02ef916a1c2]
reverse link RegistrationType to ByDrawing--><g id="link_RegistrationType_ByDrawing"><path codeLine="62" d="M818.51,649.4269 C809.57,663.7969 799.79,679.5069 792.02,691.9769 " fill="none" id="RegistrationType-backto-ByDrawing" style="stroke:#181818;stroke-width:1.0;"/><polygon fill="none" points="812.67,645.5769,829.18,632.2969,824.55,652.9769,812.67,645.5769" style="stroke:#181818;stroke-width:1.0;"/></g><!--MD5=[56cec7f2b86664aedea991e86d33f179]
reverse link RegistrationType to ByOrder--><g id="link_RegistrationType_ByOrder"><path codeLine="63" d="M868.49,649.4269 C877.43,663.7969 887.21,679.5069 894.98,691.9769 " fill="none" id="RegistrationType-backto-ByOrder" style="stroke:#181818;stroke-width:1.0;"/><polygon fill="none" points="862.45,652.9769,857.82,632.2969,874.33,645.5769,862.45,652.9769" style="stroke:#181818;stroke-width:1.0;"/></g><!--MD5=[23dcb61a6fdfba41b802371b814cd918]
link Organizer to Suscription--><g id="link_Organizer_Suscription"><path codeLine="66" d="M183.5,200.2969 C183.5,216.2969 183.5,237.7469 183.5,254.8269 " fill="none" id="Organizer-to-Suscription" style="stroke:#181818;stroke-width:1.0;"/><polygon fill="#181818" points="183.5,259.9769,187.5,250.9769,183.5,254.9769,179.5,250.9769,183.5,259.9769" style="stroke:#181818;stroke-width:1.0;"/></g><!--MD5=[6ee701f4a4ed72968bb4e07b244ee794]
@startuml
title Your Race - Domain Model

class YourRace
class Athlete
class Organizer
class Race
class Track
class Distance
class Date
class Location
class Consult
class Manage
class Apply
class Score
class PaymentInfo
class Dorsal
class ApplicationPeriod
class TrackRecord
class Suscription
class Registration

YourRace *- -> Athlete
YourRace *- -> Organizer

Organizer - -> Manage

Athlete ..> Apply
Athlete - -> Consult
Athlete *- -> TrackRecord

Apply *- -> ApplicationCode

Apply ..> Race

Consult - -> Race

Manage - -> Race


Race *- -> Distance
Race *- -> AthleteCapacity
Race *- -> Date
Race *- -> Location
Race *- -> GlobalScore
Race *- -> Type
Race *- -> ApplicationPeriod
Race *- -> Registration



Track -right-> Race 
Track -right-> Athlete 
Track *- -> AthleteRegistrationDate
Track *- -> Dorsal
Track *- -> PaymentInfo
Track *- -> Score

Registration *- -> RegistrationType
Registration *- -> RegistrationDate
Registration *- -> RegistrationCost

RegistrationType <|- - ByDrawing
RegistrationType <|- - ByOrder


Organizer - -> Suscription


@enduml

PlantUML version 1.2022.7(Mon Aug 22 19:01:30 CEST 2022)
(GPL source distribution)
Java Runtime: Java(TM) SE Runtime Environment
JVM: Java HotSpot(TM) 64-Bit Server VM
Default Encoding: UTF-8
Language: en
Country: US
--></g></svg>