<?xml version="1.0" encoding="UTF-8" standalone="no"?><svg xmlns="http://www.w3.org/2000/svg" xmlns:xlink="http://www.w3.org/1999/xlink" contentStyleType="text/css" height="307px" preserveAspectRatio="none" style="width:245px;height:307px;background:#FFFFFF;" version="1.1" viewBox="0 0 245 307" width="245px" zoomAndPan="magnify"><defs/><g><rect fill="none" height="26.2969" id="_title" style="stroke:none;stroke-width:1.0;" width="227" x="5" y="5"/><text fill="#000000" font-family="sans-serif" font-size="14" font-weight="bold" lengthAdjust="spacing" textLength="217" x="10" y="22.9951">Use Case Race Registration</text><!--MD5=[6ca023b457232f961332e1f78469143f]
entity Athlete--><g id="elem_Athlete"><ellipse cx="125" cy="51.2969" fill="#F1F1F1" rx="8" ry="8" style="stroke:#181818;stroke-width:0.5;"/><path d="M125,59.2969 L125,86.2969 M112,67.2969 L138,67.2969 M125,86.2969 L112,101.2969 M125,86.2969 L138,101.2969 " fill="none" style="stroke:#181818;stroke-width:0.5;"/><text fill="#000000" font-family="sans-serif" font-size="14" lengthAdjust="spacing" textLength="49" x="100.5" y="115.792">Athlete</text></g><g id="elem_Race Registration"><ellipse cx="124.9455" cy="197.486" fill="#F1F1F1" rx="81.4455" ry="18.6891" style="stroke:#181818;stroke-width:0.5;"/><text fill="#000000" font-family="sans-serif" font-size="14" lengthAdjust="spacing" textLength="122" x="62.8109" y="200.7058">Race Registration</text></g><g id="elem_GMN4"><path d="M43.5,275.7969 L43.5,300.9297 A0,0 0 0 0 43.5,300.9297 L206.5,300.9297 A0,0 0 0 0 206.5,300.9297 L206.5,285.7969 L196.5,275.7969 L129,275.7969 L125,215.8769 L121,275.7969 L43.5,275.7969 A0,0 0 0 0 43.5,275.7969 " fill="#FEFFDD" style="stroke:#181818;stroke-width:0.5;"/><path d="M196.5,275.7969 L196.5,285.7969 L206.5,285.7969 L196.5,275.7969 " fill="#FEFFDD" style="stroke:#181818;stroke-width:0.5;"/><text fill="#000000" font-family="sans-serif" font-size="13" lengthAdjust="spacing" textLength="142" x="49.5" y="292.8638">"ByOrder Registration"</text></g><!--MD5=[0e11e9fa81ab94a60cfef9dda2288332]
link Athlete to Race Registration--><g id="link_Athlete_Race Registration"><path d="M125,118.9669 C125,136.9269 125,157.8869 125,173.4569 " fill="none" id="Athlete-to-Race Registration" style="stroke:#181818;stroke-width:1.0;"/><polygon fill="#181818" points="125,178.5169,129,169.5169,125,173.5169,121,169.5169,125,178.5169" style="stroke:#181818;stroke-width:1.0;"/></g><!--MD5=[93ed1f96945249f4081dea798c7f38de]
@startuml
title Use Case Race Registration

actor Athlete

usecase (Race Registration)
note bottom of (Race Registration) : "ByOrder Registration"


Athlete - -> (Race Registration)


@enduml

PlantUML version 1.2022.7(Mon Aug 22 19:01:30 CEST 2022)
(GPL source distribution)
Java Runtime: Java(TM) SE Runtime Environment
JVM: Java HotSpot(TM) 64-Bit Server VM
Default Encoding: UTF-8
Language: en
Country: US
--></g></svg>